# Blender v2.75 (sub 0) OBJ File: ''
# www.blender.org
mtllib blinds_closed.mtl
o default_wood_Plane
v -0.500000 -0.500000 0.440308
v -0.500000 0.500000 0.440308
v 0.500000 0.500000 0.440308
v 0.500000 -0.500000 0.440308
v -0.500000 -0.500000 0.488730
v 0.500000 -0.500000 0.488730
v 0.500000 0.500000 0.488730
v -0.500000 0.500000 0.488730
vt 0.000000 0.000000
vt 0.000000 1.000000
vt 1.000000 1.000000
vt 1.000000 0.000000
vn 0.000000 0.000000 -1.000000
vn 0.000000 -0.000000 1.000000
vn 0.000000 1.000000 0.000000
vn 0.000000 -1.000000 0.000000
vn 1.000000 0.000000 0.000000
vn -1.000000 0.000000 0.000000
usemtl default_wood
s 1
f 1/1/1 2/2/1 3/3/1 4/4/1
f 5/1/2 6/4/2 7/3/2 8/2/2
f 3/3/3 2/2/3 8/2/3 7/3/3
f 1/1/4 4/4/4 6/4/4 5/1/4
f 4/4/5 3/3/5 7/3/5 6/4/5
f 2/2/6 1/1/6 5/1/6 8/2/6
