# Blender v2.78 (sub 0) OBJ File: ''
# www.blender.org
mtllib c_tree.mtl
o nodebox15
v 0.250000 0.619398 -0.250000
v 0.250000 0.619398 0.250000
v 0.250000 0.806898 0.250000
v 0.250000 0.806898 -0.250000
v -0.250000 0.619398 -0.250000
v -0.250000 0.619398 0.250000
v -0.250000 0.806898 0.250000
v -0.250000 0.806898 -0.250000
v 0.250000 0.619398 -0.250000
v 0.250000 0.619398 0.250000
v -0.250000 0.619398 0.250000
v -0.250000 0.619398 -0.250000
v 0.187500 0.806898 -0.187500
v 0.187500 0.806898 0.187500
v 0.187500 0.994398 0.187500
v 0.187500 0.994398 -0.187500
v -0.187500 0.806898 -0.187500
v -0.187500 0.806898 0.187500
v -0.187500 0.994398 0.187500
v -0.187500 0.994398 -0.187500
v 0.125000 0.994398 -0.125000
v 0.125000 0.994398 0.125000
v 0.125000 1.181898 0.125000
v 0.125000 1.181898 -0.125000
v -0.125000 0.994398 -0.125000
v -0.125000 0.994398 0.125000
v -0.125000 1.181898 0.125000
v -0.125000 1.181898 -0.125000
v 0.062500 1.181898 -0.062500
v 0.062500 1.181898 0.062500
v 0.062500 1.306898 0.062500
v 0.062500 1.306898 -0.062500
v -0.062500 1.181898 -0.062500
v -0.062500 1.181898 0.062500
v -0.062500 1.306898 0.062500
v -0.062500 1.306898 -0.062500
v 0.312500 0.494398 -0.312500
v 0.312500 0.494398 0.312500
v 0.312500 0.619398 0.312500
v 0.312500 0.619398 -0.312500
v -0.312500 0.494398 -0.312500
v -0.312500 0.494398 0.312500
v -0.312500 0.619398 0.312500
v -0.312500 0.619398 -0.312500
v 0.500000 -0.125000 -0.500000
v 0.500000 -0.125000 0.500000
v 0.500000 0.062500 0.500000
v 0.500000 0.062500 -0.500000
v -0.500000 -0.125000 -0.500000
v -0.500000 -0.125000 0.500000
v -0.500000 0.062500 0.500000
v -0.500000 0.062500 -0.500000
v 0.312500 0.437500 -0.312500
v 0.312500 0.437500 0.312500
v 0.312500 0.500000 0.312500
v 0.312500 0.500000 -0.312500
v -0.312500 0.437500 -0.312500
v -0.312500 0.437500 0.312500
v -0.312500 0.500000 0.312500
v -0.312500 0.500000 -0.312500
v 0.375000 0.250000 -0.375000
v 0.375000 0.250000 0.375000
v 0.375000 0.437500 0.375000
v 0.375000 0.437500 -0.375000
v -0.375000 0.250000 -0.375000
v -0.375000 0.250000 0.375000
v -0.375000 0.437500 0.375000
v -0.375000 0.437500 -0.375000
v 0.187500 -0.500000 -0.187500
v 0.187500 -0.500000 0.187500
v 0.187500 -0.125000 0.187500
v 0.187500 -0.125000 -0.187500
v -0.187500 -0.500000 -0.187500
v -0.187500 -0.500000 0.187500
v -0.187500 -0.125000 0.187500
v -0.187500 -0.125000 -0.187500
v 0.437500 0.062500 -0.437500
v 0.437500 0.062500 0.437500
v 0.437500 0.250000 0.437500
v 0.437500 0.250000 -0.437500
v -0.437500 0.062500 -0.437500
v -0.437500 0.062500 0.437500
v -0.437500 0.250000 0.437500
v -0.437500 0.250000 -0.437500
vt 0.0000 0.0000
vt 0.0000 0.0000
vt 0.0000 0.0000
vt 0.0000 0.0000
vt 0.0000 0.0000
vt 0.0000 0.0000
vt 0.0000 0.0000
vt 0.0000 0.0000
vt 0.0000 0.0000
vt 0.0000 0.0000
vt 0.0000 0.0000
vt 0.0000 0.0000
vt 0.0000 0.0000
vt 0.0000 0.0000
vt 0.0000 0.0000
vt 0.0000 0.0000
vt 0.0000 0.0000
vt 0.0000 0.0000
vt 0.0000 0.0000
vt 0.0000 0.0000
vt 1.0000 1.0000
vt 0.0000 1.0000
vt -0.0000 0.6667
vt 1.0000 0.6667
vt 1.0000 1.0000
vt 0.0000 1.0000
vt -0.0000 0.6667
vt 1.0000 0.6667
vt 1.0000 0.8125
vt 1.0000 1.0000
vt 0.0000 1.0000
vt 0.0000 0.8125
vt 1.0000 0.8125
vt 1.0000 1.0000
vt -0.0000 1.0000
vt 0.0000 0.8125
vt 0.0000 0.6667
vt 1.0000 0.5000
vt 1.0000 1.0000
vt 0.0000 1.0000
vt 0.0000 0.5000
vt 1.0000 1.0000
vt 0.0000 1.0000
vt 0.0000 0.6875
vt 1.0000 0.6875
vt 1.0000 1.0000
vt 0.0000 1.0000
vt -0.0000 0.6667
vt 1.0000 0.6667
vt 1.0000 0.7500
vt 1.0000 1.0000
vt 0.0000 1.0000
vt 0.0000 0.7500
vt 1.0000 0.7500
vt 1.0000 1.0000
vt 0.0000 1.0000
vt 0.0000 0.7500
vt 1.0000 0.5000
vt 1.0000 1.0000
vt 0.0000 0.5000
vt 1.0000 0.6667
vt 0.0000 0.6667
vt 0.0000 0.6667
vt 1.0000 0.6667
vt 1.0000 1.0000
vt 0.0000 1.0000
vt -0.0000 0.6667
vt 1.0000 0.6667
vt 1.0000 1.0000
vt 0.0000 1.0000
vt 1.0000 0.6667
vt 1.0000 1.0000
vt 0.0000 1.0000
vt -0.0000 0.6667
vt 1.0000 0.5000
vt 1.0000 1.0000
vt 0.0000 1.0000
vt 0.0000 0.5000
vt 1.0000 0.6667
vt 0.0000 0.6667
vt 0.0000 0.6667
vt 1.0000 0.6667
vt 1.0000 1.0000
vt -0.0000 1.0000
vt -0.0000 0.6667
vt 1.0000 0.6667
vt 1.0000 1.0000
vt 0.0000 1.0000
vt 1.0000 0.6667
vt 1.0000 1.0000
vt 0.0000 1.0000
vt -0.0000 0.6667
vt 1.0000 0.5000
vt 1.0000 1.0000
vt 0.0000 1.0000
vt 0.0000 0.5000
vt 1.0000 0.6667
vt 0.0000 0.6667
vt 1.0000 1.0000
vt 0.0000 1.0000
vt 0.0000 0.7812
vt 1.0000 0.7812
vt 1.0000 1.0000
vt 0.0000 1.0000
vt 0.0000 0.8125
vt 1.0000 0.8125
vt 1.0000 0.9062
vt 1.0000 1.0000
vt 0.0000 1.0000
vt 0.0000 0.9062
vt 1.0000 0.9062
vt 1.0000 1.0000
vt 0.0000 1.0000
vt 0.0000 0.9062
vt 1.0000 0.6667
vt 0.0000 0.6667
vt 0.0000 0.8125
vt 1.0000 0.8125
vt 1.0000 1.0000
vt 0.0000 1.0000
vt 0.0000 0.8125
vt 1.0000 0.8125
vt 1.0000 1.0000
vt 0.0000 1.0000
vt 1.0000 0.9062
vt 1.0000 1.0000
vt 0.0000 0.9062
vt 1.0000 0.9062
vt 0.0000 1.0000
vt 0.0000 0.9062
vt 1.0000 0.6667
vt 1.0000 1.0000
vt 0.0000 1.0000
vt 0.0000 0.6667
vt 1.0000 0.6667
vt -0.0000 0.6667
vt 1.0000 1.0000
vt 0.0000 1.0000
vt 0.0000 0.9062
vt 1.0000 0.9062
vt 1.0000 1.0000
vt 0.0000 1.0000
vt 0.0000 0.9062
vt 1.0000 0.9062
vt 1.0000 0.9375
vt 1.0000 1.0000
vt 0.0000 1.0000
vt 0.0000 0.9375
vt 1.0000 0.9375
vt 1.0000 1.0000
vt 0.0000 1.0000
vt 0.0000 0.9375
vt 0.0000 0.7500
vt 1.0000 0.7500
vt 1.0000 1.0000
vt 0.0000 1.0000
vt 0.0000 0.7500
vt 1.0000 0.7500
vt 1.0000 1.0000
vt 0.0000 1.0000
vt 1.0000 0.8750
vt 1.0000 1.0000
vt 0.0000 0.8750
vt 1.0000 0.8750
vt 0.0000 1.0000
vt 0.0000 0.8750
vt 1.0000 0.6667
vt -0.0000 0.6667
vt 0.0000 0.3333
vt 1.0000 0.3333
vt 1.0000 0.6667
vt -0.0000 0.6667
vt 0.0000 0.3333
vt 1.0000 0.3333
vt 1.0000 0.6667
vt -0.0000 0.6667
vt 1.0000 0.3333
vt 1.0000 0.6667
vt 0.0000 0.6667
vt 0.0000 0.3333
vt 0.9999 0.0001
vt 0.9999 0.3334
vt 0.0001 0.3334
vt 0.0001 0.0001
vt 0.0000 0.0000
vt 1.0000 0.0000
vt 1.0000 1.0000
vt 0.0000 1.0000
vt 0.0000 0.8125
vt 1.0000 0.8125
vt 1.0000 1.0000
vt 0.0000 1.0000
vt 0.0000 0.8125
vt 1.0000 0.8125
vt 1.0000 1.0000
vt 0.0000 1.0000
vt 1.0000 0.9062
vt 1.0000 1.0000
vt 0.0000 0.9062
vt 1.0000 0.9062
vt 0.0000 1.0000
vt 0.0000 0.9062
vt 1.0000 0.6667
vt 0.0000 0.6667
vn 0.0000 -1.0000 -0.0000
vn -1.0000 0.0000 0.0000
vn 0.0000 -0.0000 1.0000
usemtl none_NONE
s 1
f 53/1/1 54/2/1 58/3/1 57/4/1
f 56/5/1 55/6/1 59/7/1 60/8/1
f 61/9/1 62/10/1 66/11/1 65/12/1
f 77/13/1 78/14/1 82/15/1 81/16/1
usemtl none.001_NONE
f 37/17/1 38/18/1 42/19/1 41/20/1
usemtl none.001
f 1/21/2 2/22/2 3/23/2 4/24/2
f 5/25/2 6/26/2 7/27/2 8/28/2
f 1/29/3 4/30/3 8/31/3 5/32/3
f 2/33/3 3/34/3 7/35/3 6/36/3
f 4/24/1 3/34/1 7/35/1 8/37/1
f 9/38/1 10/39/1 11/40/1 12/41/1
f 13/42/2 14/43/2 15/44/2 16/45/2
f 17/46/2 18/47/2 19/48/2 20/49/2
f 13/50/3 16/51/3 20/52/3 17/53/3
f 14/54/3 15/55/3 19/56/3 18/57/3
f 13/58/1 14/59/1 18/47/1 17/60/1
f 16/61/1 15/55/1 19/56/1 20/62/1
f 21/63/2 22/64/2 23/65/2 24/66/2
f 25/67/2 26/68/2 27/69/2 28/70/2
f 21/71/3 24/72/3 28/70/3 25/67/3
f 22/64/3 23/65/3 27/73/3 26/74/3
f 21/75/1 22/76/1 26/77/1 25/78/1
f 24/79/1 23/65/1 27/73/1 28/80/1
f 29/81/2 30/82/2 31/83/2 32/84/2
f 33/85/2 34/86/2 35/87/2 36/88/2
f 29/89/3 32/90/3 36/88/3 33/85/3
f 30/82/3 31/83/3 35/91/3 34/92/3
f 29/93/1 30/94/1 34/95/1 33/96/1
f 32/97/1 31/83/1 35/91/1 36/98/1
f 37/99/2 38/100/2 39/101/2 40/102/2
f 41/103/2 42/104/2 43/105/2 44/106/2
f 37/107/3 40/108/3 44/109/3 41/110/3
f 38/111/3 39/112/3 43/113/3 42/114/3
f 40/115/1 39/112/1 43/113/1 44/116/1
usemtl none
f 45/117/2 46/118/2 47/119/2 48/120/2
f 49/121/2 50/122/2 51/123/2 52/124/2
f 45/125/3 48/126/3 52/124/3 49/127/3
f 46/128/3 47/119/3 51/129/3 50/130/3
f 45/131/1 46/132/1 50/133/1 49/134/1
f 48/135/1 47/119/1 51/129/1 52/136/1
f 53/137/2 54/138/2 55/139/2 56/140/2
f 57/141/2 58/142/2 59/143/2 60/144/2
f 53/145/3 56/146/3 60/147/3 57/148/3
f 54/149/3 55/150/3 59/151/3 58/152/3
f 61/153/2 62/154/2 63/155/2 64/156/2
f 65/157/2 66/158/2 67/159/2 68/160/2
f 61/161/3 64/162/3 68/160/3 65/163/3
f 62/164/3 63/155/3 67/165/3 66/166/3
f 64/167/1 63/155/1 67/165/1 68/168/1
f 69/169/2 70/170/2 71/171/2 72/172/2
f 73/173/2 74/174/2 75/175/2 76/176/2
f 69/177/3 72/178/3 76/176/3 73/173/3
f 70/170/3 71/171/3 75/179/3 74/180/3
f 69/181/1 70/182/1 74/183/1 73/184/1
f 72/185/1 71/186/1 75/187/1 76/188/1
f 77/189/2 78/190/2 79/191/2 80/192/2
f 81/193/2 82/194/2 83/195/2 84/196/2
f 77/197/3 80/198/3 84/196/3 81/199/3
f 78/200/3 79/191/3 83/201/3 82/202/3
f 80/203/1 79/191/1 83/201/1 84/204/1
