# Blender v2.77 (sub 0) OBJ File: ''
# www.blender.org
mtllib entertainment.mtl
o Cube
v 1.000000 -0.700000 -1.000000
v 1.000000 -0.700000 1.000000
v -1.000000 -0.700000 1.000000
v -1.000000 -0.700000 -1.000000
v 1.000000 -0.500000 -0.999999
v 0.999999 -0.500000 1.000001
v -1.000000 -0.500000 1.000000
v -1.000000 -0.500000 -1.000000
v 1.000000 0.300000 -1.000000
v 1.000000 0.300000 1.000000
v -1.000000 0.300000 1.000000
v -1.000000 0.300000 -1.000000
v 1.000000 0.500000 -0.999999
v 0.999999 0.500000 1.000001
v -1.000000 0.500000 1.000000
v -1.000000 0.500000 -1.000000
v -1.000000 -0.860000 -1.000000
v -1.000000 -0.860000 1.000000
v -1.000000 1.140000 1.000000
v -1.000000 1.140000 -1.000000
v -0.800000 -0.860000 -0.999999
v -0.800000 -0.859999 1.000001
v -0.800000 1.140000 1.000000
v -0.800000 1.140000 -1.000000
v 1.000000 -0.860000 0.800000
v -1.000000 -0.860000 0.800000
v -1.000000 1.140000 0.800000
v 1.000000 1.140000 0.800000
v 0.999999 -0.860000 1.000000
v -1.000001 -0.859999 1.000000
v -1.000000 1.140000 1.000000
v 1.000000 1.140000 1.000000
v 1.000000 -0.860000 -1.000000
v -1.000000 -0.860000 -1.000000
v -1.000000 1.140000 -1.000000
v 1.000000 1.140000 -1.000000
v 0.999999 -0.860000 -0.800000
v -1.000001 -0.859999 -0.800000
v -1.000000 1.140000 -0.800000
v 1.000000 1.140000 -0.800000
v 1.000000 1.130000 -1.000000
v 1.000000 1.130000 1.000000
v -1.000000 1.130000 1.000000
v -1.000000 1.130000 -1.000000
v 1.000000 1.330000 -0.999999
v 0.999999 1.330000 1.000001
v -1.000000 1.330000 1.000000
v -1.000000 1.330000 -1.000000
vt 0.9999 0.9999
vt 0.0001 0.9999
vt 0.0001 0.0001
vt 0.9999 0.0001
vt -0.0000 1.0000
vt 0.0000 -0.0000
vt 1.0000 0.0000
vt 1.0000 1.0000
vt -0.0000 0.1250
vt 0.0000 -0.0000
vt 1.0000 0.0000
vt 1.0000 0.1250
vt -0.0000 1.0000
vt 0.0000 -0.0000
vt 1.0000 1.0000
vt 0.0000 0.1250
vt 0.0001 0.0001
vt 0.9999 0.0001
vt 1.0000 0.1250
vt 0.9999 0.0001
vt 1.0000 0.1250
vt 0.0000 0.1250
vt 0.0001 0.0001
vt 0.9999 0.9999
vt 0.0001 0.9999
vt 0.0001 0.0001
vt 0.9999 0.0001
vt 1.0000 -0.0000
vt 1.0000 1.0000
vt 0.0000 1.0000
vt -0.0000 0.0000
vt 0.9999 0.0001
vt 1.0000 0.1250
vt 0.0000 0.1250
vt 0.0001 0.0001
vt -0.0000 1.0000
vt 1.0000 0.0000
vt 1.0000 1.0000
vt 0.0000 0.1250
vt 0.0001 0.0001
vt 0.9999 0.0001
vt 1.0000 0.1250
vt 0.9999 0.0001
vt 1.0000 0.1250
vt 0.0000 0.1250
vt 0.0001 0.0001
vt 0.0000 0.0000
vt 1.0000 0.0000
vt 1.0000 1.0000
vt 0.0000 1.0000
vt -0.0000 1.0000
vt 0.0000 -0.0000
vt 1.0000 0.0000
vt 1.0000 1.0000
vt 1.0000 0.0000
vt 1.0000 0.1250
vt 0.0000 0.1250
vt 0.0000 0.0000
vt 1.0000 0.1250
vt 0.0000 0.1250
vt 0.0000 0.0000
vt -0.0000 1.0000
vt 0.0000 -0.0000
vt 1.0000 0.0000
vt 1.0000 1.0000
vt 1.0000 0.0000
vt 1.0000 1.0000
vt 0.0000 0.0000
vt 1.0000 -0.0000
vt 1.0000 1.0000
vt 0.0000 1.0000
vt 0.0000 -0.0000
vt 1.0000 0.0000
vt 1.0000 1.0000
vt -0.0000 1.0000
vt 1.0000 0.0000
vt 1.0000 0.1250
vt 0.0000 0.1250
vt 0.0000 0.0000
vt 0.0625 -0.0000
vt 0.0000 0.0000
vt 0.0000 1.0000
vt 0.0625 1.0000
vt -0.0000 1.0000
vt 0.0000 -0.0000
vt 1.0000 1.0000
vt 0.0004 0.0000
vt 0.1250 0.0000
vt 0.1250 1.0000
vt 0.0000 0.9999
vt -0.0000 1.0000
vt 0.0000 -0.0000
vt 1.0000 0.0000
vt 1.0000 1.0000
vt 1.0000 -0.0000
vt 1.0000 1.0000
vt 0.0000 1.0000
vt 0.0000 0.0000
vt 1.0000 0.0000
vt 1.0000 0.1250
vt 0.0000 0.1250
vt 0.1250 0.0000
vt 0.1250 1.0000
vt 0.0000 1.0000
vt 0.0000 -0.0000
vt 1.0000 0.0000
vt 0.0004 0.0000
vt 0.0625 0.0000
vt 0.0625 1.0000
vt 0.0000 0.9999
vt 0.9999 0.9999
vt 0.0001 0.9999
vt 0.0001 0.0001
vt 0.9999 0.0001
vt -0.0000 1.0000
vt 0.0000 -0.0000
vt 1.0000 0.0000
vt 1.0000 1.0000
vt 0.9999 0.0001
vt 1.0000 0.1250
vt 0.0000 0.1250
vt 0.0001 0.0001
vt 0.0000 -0.0000
vt 0.1250 -0.0000
vt 0.1250 1.0000
vt -0.0000 1.0000
vt 0.0000 0.1250
vt 0.0001 0.0001
vt 0.9999 0.0001
vt 1.0000 0.1250
vt 0.1250 1.0000
vt 0.0000 1.0000
vt -0.0000 0.0000
vt 0.1250 -0.0000
vn 0.0000 -1.0000 0.0000
vn 0.0000 1.0000 0.0000
vn 1.0000 0.0000 0.0000
vn -0.0000 -0.0000 1.0000
vn -1.0000 -0.0000 -0.0000
vn 0.0000 0.0000 -1.0000
usemtl Material
s off
f 1/1/1 2/2/1 3/3/1 4/4/1
f 5/5/2 8/6/2 7/7/2 6/8/2
f 1/9/3 5/10/3 6/11/3 2/12/3
f 2/13/4 6/14/4 7/7/4 3/15/4
f 3/16/5 7/17/5 8/18/5 4/19/5
f 5/20/6 1/21/6 4/22/6 8/23/6
f 9/24/1 10/25/1 11/26/1 12/27/1
f 13/28/2 16/29/2 15/30/2 14/31/2
f 9/32/3 13/33/3 14/34/3 10/35/3
f 10/36/4 14/31/4 15/37/4 11/38/4
f 11/39/5 15/40/5 16/41/5 12/42/5
f 13/43/6 9/44/6 12/45/6 16/46/6
f 17/47/5 18/48/5 19/49/5 20/50/5
f 21/51/3 24/52/3 23/53/3 22/54/3
f 17/55/1 21/56/1 22/57/1 18/58/1
f 18/48/4 22/59/4 23/60/4 19/61/4
f 19/62/2 23/63/2 24/64/2 20/65/2
f 21/51/6 17/47/6 20/66/6 24/67/6
f 25/68/6 26/69/6 27/70/6 28/71/6
f 29/72/4 32/73/4 31/74/4 30/75/4
f 25/76/1 29/77/1 30/78/1 26/79/1
f 26/80/5 30/81/5 31/82/5 27/83/5
f 27/84/2 31/85/2 32/73/2 28/86/2
f 29/87/3 25/88/3 28/89/3 32/90/3
f 33/91/6 34/92/6 35/93/6 36/94/6
f 37/95/4 40/96/4 39/97/4 38/98/4
f 33/99/1 37/100/1 38/101/1 34/92/1
f 34/92/5 38/102/5 39/103/5 35/104/5
f 35/104/2 39/105/2 40/106/2 36/94/2
f 37/107/3 33/108/3 36/109/3 40/110/3
f 41/111/1 42/112/1 43/113/1 44/114/1
f 45/115/2 48/116/2 47/117/2 46/118/2
f 41/119/3 45/120/3 46/121/3 42/122/3
f 42/123/4 46/124/4 47/125/4 43/126/4
f 43/127/5 47/128/5 48/129/5 44/130/5
f 45/131/6 41/132/6 44/133/6 48/134/6
