# Blender v2.75 (sub 4) OBJ File: 'bookshelf.blend'
# www.blender.org
o Cube.002
v 0.406939 -0.086989 -0.419225
v 0.406939 -0.396953 -0.419225
v 0.406939 -0.086989 -0.136041
v 0.406939 -0.396953 -0.136041
v 0.333512 -0.086989 -0.419225
v 0.333512 -0.396953 -0.419225
v 0.333512 -0.086989 -0.136041
v 0.333512 -0.396953 -0.136041
v -0.136399 0.057167 -0.136040
v -0.136399 0.355399 -0.136040
v -0.136399 0.057167 -0.419225
v -0.136399 0.355399 -0.419225
v -0.062972 0.057167 -0.136040
v -0.062972 0.355399 -0.136040
v -0.062972 0.057167 -0.419225
v -0.062972 0.355399 -0.419225
v 0.323467 0.357650 -0.419225
v 0.323467 0.054984 -0.419225
v 0.323467 0.357650 -0.153358
v 0.323467 0.054984 -0.153358
v 0.250039 0.357650 -0.419225
v 0.250039 0.054984 -0.419225
v 0.250039 0.357650 -0.153358
v 0.250039 0.054984 -0.153358
v -0.134471 -0.396953 0.405879
v -0.134471 -0.148853 0.405879
v -0.417656 -0.396953 0.405879
v -0.417656 -0.148853 0.405879
v -0.134471 -0.396953 0.332452
v -0.134471 -0.148853 0.332452
v -0.417656 -0.396953 0.332452
v -0.417656 -0.148853 0.332452
v 0.029529 0.057167 -0.136040
v 0.029529 0.291102 -0.136040
v 0.029529 0.057167 -0.419225
v 0.029529 0.291102 -0.419225
v 0.102956 0.057167 -0.136040
v 0.102956 0.291102 -0.136040
v 0.102956 0.057167 -0.419225
v 0.102956 0.291102 -0.419225
v -0.134471 -0.395154 0.322814
v -0.134471 -0.102765 0.322814
v -0.417656 -0.395154 0.322814
v -0.417656 -0.102765 0.322814
v -0.134471 -0.395154 0.249387
v -0.134471 -0.102765 0.249387
v -0.417656 -0.395154 0.249387
v -0.417656 -0.102765 0.249387
v -0.417656 -0.158651 0.160482
v -0.417656 -0.392586 0.160482
v -0.176212 -0.158651 0.160482
v -0.176212 -0.392586 0.160482
v -0.417656 -0.158651 0.233909
v -0.417656 -0.392586 0.233909
v -0.176212 -0.158651 0.233909
v -0.176212 -0.392586 0.233909
v 0.250039 -0.396953 -0.136041
v 0.250039 -0.110464 -0.136041
v 0.250039 -0.396953 -0.419225
v 0.250039 -0.110464 -0.419225
v 0.323467 -0.396953 -0.136041
v 0.323467 -0.110464 -0.136041
v 0.323467 -0.396953 -0.419225
v 0.323467 -0.110464 -0.419225
v 0.409223 0.302826 -0.419225
v 0.409223 0.052416 -0.419225
v 0.409223 0.302826 -0.136040
v 0.409223 0.052416 -0.136040
v 0.335796 0.302826 -0.419225
v 0.335796 0.052416 -0.419225
v 0.335796 0.302826 -0.136040
v 0.335796 0.052416 -0.136040
v -0.055009 0.054599 -0.155516
v -0.055009 0.305009 -0.155516
v -0.055009 0.054599 -0.419225
v -0.055009 0.305009 -0.419225
v 0.018418 0.054599 -0.155516
v 0.018418 0.305009 -0.155516
v 0.018418 0.054599 -0.419225
v 0.018418 0.305009 -0.419225
v 0.238928 -0.146927 -0.419225
v 0.238928 -0.397337 -0.419225
v 0.238928 -0.146927 -0.136041
v 0.238928 -0.397337 -0.136041
v 0.165501 -0.146927 -0.419225
v 0.165501 -0.397337 -0.419225
v 0.165501 -0.146927 -0.136041
v 0.165501 -0.397337 -0.136041
v 0.238827 0.320605 -0.419225
v 0.238827 0.054984 -0.419225
v 0.238827 0.320605 -0.171904
v 0.238827 0.054984 -0.171904
v 0.165400 0.320605 -0.419225
v 0.165400 0.054984 -0.419225
v 0.165400 0.320605 -0.171904
v 0.165400 0.054984 -0.171904
v -0.417656 0.367131 0.336819
v -0.417656 0.057167 0.336819
v -0.134471 0.367131 0.336819
v -0.134471 0.057167 0.336819
v -0.417656 0.367131 0.410246
v -0.417656 0.057167 0.410246
v -0.134471 0.367131 0.410246
v -0.134471 0.057167 0.410246
v -0.129701 -0.500000 0.500000
v -0.129701 0.500000 0.500000
v -0.500000 -0.500000 0.500000
v -0.500000 0.500000 0.500000
v -0.129700 -0.500000 -0.500000
v -0.129700 0.500000 -0.500000
v -0.500000 -0.500000 -0.500000
v -0.500000 0.500000 -0.500000
v -0.129701 -0.400000 0.500000
v -0.129701 -0.050000 0.500000
v -0.129701 0.050000 0.500000
v -0.129701 0.400000 0.500000
v -0.500000 0.400000 0.500000
v -0.500000 0.050000 0.500000
v -0.500000 -0.050000 0.500000
v -0.500000 -0.400000 0.500000
v -0.500000 0.400000 -0.500000
v -0.500000 0.050000 -0.500000
v -0.500000 -0.050000 -0.500000
v -0.500000 -0.400000 -0.500000
v -0.129700 0.400000 -0.500000
v -0.129700 0.050000 -0.500000
v -0.129700 -0.050000 -0.500000
v -0.129700 -0.400000 -0.500000
v -0.500000 0.500000 0.416667
v -0.500000 0.500000 -0.416667
v -0.500000 -0.500000 -0.416667
v -0.500000 -0.500000 0.416667
v -0.129700 0.500000 -0.416667
v -0.129701 0.500000 0.416667
v -0.129701 -0.500000 0.416667
v -0.129700 -0.500000 -0.416667
v -0.129701 0.400000 0.416667
v -0.129700 0.400000 -0.416667
v -0.129701 0.050000 0.416667
v -0.129700 0.050000 -0.416667
v -0.129701 -0.050000 0.416667
v -0.129700 -0.050000 -0.416667
v -0.129701 -0.400000 0.416667
v -0.129700 -0.400000 -0.416667
v -0.500000 0.400000 -0.416667
v -0.500000 0.400000 0.416667
v -0.500000 0.050000 -0.416667
v -0.500000 0.050000 0.416667
v -0.500000 -0.050000 -0.416667
v -0.500000 -0.050000 0.416667
v -0.500000 -0.400000 -0.416667
v -0.500000 -0.400000 0.416667
v -0.429701 0.400000 0.416667
v -0.429700 0.400000 -0.416667
v -0.429701 0.050000 0.416667
v -0.429700 0.050000 -0.416667
v -0.429701 -0.050000 0.416667
v -0.429700 -0.050000 -0.416667
v -0.429701 -0.400000 0.416667
v -0.429700 -0.400000 -0.416667
v -0.500000 0.500000 -0.129519
v -0.500000 -0.500000 -0.129519
v -0.129700 0.500000 -0.129519
v -0.129700 -0.500000 -0.129519
v -0.129700 0.400000 -0.129519
v -0.129700 0.050000 -0.129519
v -0.129700 -0.050000 -0.129519
v -0.129700 -0.400000 -0.129519
v -0.500000 0.400000 -0.129519
v -0.500000 0.050000 -0.129519
v -0.500000 -0.050000 -0.129519
v -0.500000 -0.400000 -0.129519
v -0.429700 0.400000 -0.129519
v -0.429700 0.050000 -0.129519
v -0.429700 -0.050000 -0.129519
v -0.429700 -0.400000 -0.129519
v 0.416534 -0.400000 -0.500000
v 0.416534 -0.500000 -0.500000
v 0.416534 -0.500000 -0.416667
v 0.416534 0.500000 -0.500000
v 0.416534 0.400000 -0.500000
v 0.416534 0.050000 -0.500000
v 0.416534 -0.050000 -0.500000
v 0.416534 0.400000 -0.416667
v 0.416534 0.050000 -0.416667
v 0.416534 -0.050000 -0.416667
v 0.416534 -0.400000 -0.416667
v 0.416534 0.500000 -0.416667
v 0.416534 -0.500000 -0.129518
v 0.416534 0.400000 -0.129518
v 0.416534 0.050000 -0.129518
v 0.416534 -0.050000 -0.129518
v 0.416534 -0.400000 -0.129518
v 0.416534 0.500000 -0.129518
v 0.499881 -0.400000 -0.500000
v 0.499881 -0.500000 -0.500000
v 0.499881 -0.500000 -0.416667
v 0.499881 0.500000 -0.500000
v 0.499881 0.400000 -0.500000
v 0.499881 0.050000 -0.500000
v 0.499881 -0.050000 -0.500000
v 0.499881 0.400000 -0.416667
v 0.499881 0.050000 -0.416667
v 0.499881 -0.050000 -0.416667
v 0.499881 -0.400000 -0.416667
v 0.499881 0.500000 -0.416667
v 0.499881 -0.500000 -0.129518
v 0.499881 0.400000 -0.129518
v 0.499881 0.050000 -0.129518
v 0.499881 -0.050000 -0.129518
v 0.499881 -0.400000 -0.129518
v 0.499881 0.500000 -0.129518
v -0.153737 0.057167 0.316355
v -0.153737 0.355399 0.316355
v -0.386794 0.057167 0.316355
v -0.386794 0.355399 0.316355
v -0.153737 0.057167 0.242928
v -0.153737 0.355399 0.242928
v -0.386794 0.057167 0.242928
v -0.386794 0.355399 0.242928
vt 0.629700 0.100000
vt 1.000000 0.100000
vt 1.000000 -0.000000
vt 0.629700 -0.000000
vt 0.916667 0.100000
vt 0.916667 -0.000000
vt 0.083333 0.100000
vt -0.000000 0.100000
vt -0.000000 -0.000000
vt 0.083333 -0.000000
vt 0.916667 0.629700
vt 0.916667 1.000000
vt 1.000000 1.000000
vt 1.000000 0.629700
vt 0.083333 0.629700
vt 0.083333 1.000000
vt -0.000000 1.000000
vt -0.000000 0.629700
vt -0.000000 0.900000
vt 0.083333 0.900000
vt -0.000000 0.550000
vt 0.083333 0.550000
vt -0.000000 0.450000
vt 0.083333 0.450000
vt 0.629700 1.000000
vt 0.629700 0.900000
vt 1.000000 0.900000
vt 0.629700 0.550000
vt 1.000000 0.550000
vt 0.629700 0.450000
vt 1.000000 0.450000
vt 0.916667 0.900000
vt 0.916667 0.550000
vt 0.916667 0.450000
vt 0.629519 0.450000
vt 0.629519 0.100000
vt 0.629519 0.550000
vt 0.629519 0.900000
vt 0.629519 1.000000
vt 0.629519 0.629700
vt 0.629519 0.083466
vt 0.916667 0.083466
vt 0.929701 0.450000
vt 0.929701 0.100000
vt 0.083466 0.550000
vt 0.083466 0.900000
vt 0.929701 0.900000
vt 0.929701 0.550000
vt 0.083466 -0.000000
vt 0.083466 0.100000
vt 0.083466 0.450000
vt 0.629519 -0.000000
vt 0.916667 0.929701
vt 0.629519 0.929701
vt 0.083333 0.929701
vt 1.000000 0.083466
vt 0.000119 0.100000
vt 0.000119 -0.000000
vt 0.000119 0.450000
vt 0.629519 0.000119
vt 0.916667 0.000119
vt 0.000119 0.550000
vt 0.083466 1.000000
vt 0.000119 0.900000
vt 0.000119 1.000000
vt 1.000000 0.000119
vt 0.797745 0.840879
vt 0.606883 0.840879
vt 0.606883 0.035180
vt 0.797745 0.035180
vt 0.120771 0.840879
vt 0.856861 0.840879
vt 0.856861 0.035180
vt 0.120771 0.035180
vt 0.797745 0.246889
vt 0.797745 0.982979
vt 0.606883 0.982979
vt 0.606883 0.246889
vn -0.000000 0.000000 1.000000
vn -1.000000 0.000000 0.000000
vn 0.000000 0.000000 -1.000000
vn 1.000000 0.000000 0.000000
vn 0.000000 -1.000000 0.000000
vn 0.000000 1.000000 0.000000
g Cube.002_Cube.002_Wood
s off
f 113/1/1 120/2/1 107/3/1 105/4/1
f 151/5/2 124/2/2 111/3/2 131/6/2
f 124/2/3 128/1/3 109/4/3 111/3/3
f 143/7/4 113/8/4 105/9/4 135/10/4
f 136/11/5 131/12/5 111/13/5 109/14/5
f 134/15/6 129/16/6 108/17/6 106/18/6
f 134/16/4 106/17/4 116/19/4 137/20/4
f 137/20/4 116/19/4 115/21/4 139/22/4
f 139/22/4 115/21/4 114/23/4 141/24/4
f 141/24/4 114/23/4 113/8/4 143/7/4
f 112/13/3 110/25/3 125/26/3 121/27/3
f 121/27/3 125/26/3 126/28/3 122/29/3
f 122/29/3 126/28/3 127/30/3 123/31/3
f 123/31/3 127/30/3 128/1/3 124/2/3
f 130/12/2 112/13/2 121/27/2 145/32/2
f 145/32/2 121/27/2 122/29/2 147/33/2
f 147/33/2 122/29/2 123/31/2 149/34/2
f 149/34/2 123/31/2 124/2/2 151/5/2
f 106/25/1 108/13/1 117/27/1 116/26/1
f 116/26/1 117/27/1 118/29/1 115/28/1
f 115/28/1 118/29/1 119/31/1 114/30/1
f 114/30/1 119/31/1 120/2/1 113/1/1
f 119/23/2 150/24/2 152/7/2 120/8/2
f 171/35/2 149/34/2 151/5/2 172/36/2
f 118/21/2 148/22/2 150/24/2 119/23/2
f 170/37/2 147/33/2 149/34/2 171/35/2
f 117/19/2 146/20/2 148/22/2 118/21/2
f 169/38/2 145/32/2 147/33/2 170/37/2
f 108/17/2 129/16/2 146/20/2 117/19/2
f 161/39/2 130/12/2 145/32/2 169/38/2
f 133/11/6 163/40/6 194/41/6 188/42/6
f 144/1/1 142/30/1 158/43/1 160/44/1
f 138/26/1 140/28/1 185/45/1 184/46/1
f 166/37/4 139/22/4 141/24/4 167/35/4
f 167/40/5 142/11/5 186/42/5 192/41/5
f 140/28/1 138/26/1 154/47/1 156/48/1
f 168/1/1 164/4/1 189/49/1 193/50/1
f 163/39/4 134/16/4 137/20/4 165/38/4
f 110/14/6 112/13/6 130/12/6 133/11/6
f 163/40/6 161/39/6 129/16/6 134/15/6
f 105/18/5 107/17/5 132/16/5 135/15/5
f 164/40/5 162/39/5 131/12/5 136/11/5
f 128/1/3 127/30/3 183/51/3 177/50/3
f 168/36/4 143/7/4 135/10/4 164/52/4
f 120/8/2 152/7/2 132/10/2 107/9/2
f 172/36/2 151/5/2 131/6/2 162/52/2
f 175/35/4 157/24/4 159/7/4 176/36/4
f 173/38/4 153/20/4 155/22/4 174/37/4
f 137/26/3 139/28/3 155/48/3 153/47/3
f 168/40/6 144/11/6 160/53/6 176/54/6
f 167/40/5 141/15/5 157/55/5 175/54/5
f 141/30/3 143/1/3 159/44/3 157/43/3
f 166/40/6 140/11/6 156/53/6 174/54/6
f 165/40/5 137/15/5 153/55/5 173/54/5
f 138/11/5 165/40/5 173/54/5 154/53/5
f 139/15/6 166/40/6 174/54/6 155/55/6
f 142/11/5 167/40/5 175/54/5 158/53/5
f 143/15/6 168/40/6 176/54/6 159/55/6
f 154/32/4 173/38/4 174/37/4 156/33/4
f 158/34/4 175/35/4 176/36/4 160/5/4
f 152/7/2 172/36/2 162/52/2 132/10/2
f 127/30/3 126/28/3 182/45/3 183/51/3
f 135/15/5 132/16/5 162/39/5 164/40/5
f 133/11/6 130/12/6 161/39/6 163/40/6
f 110/14/6 133/11/6 188/42/6 180/56/6
f 136/11/5 109/14/5 178/56/5 179/42/5
f 129/16/2 161/39/2 169/38/2 146/20/2
f 146/20/2 169/38/2 170/37/2 148/22/2
f 148/22/2 170/37/2 171/35/2 150/24/2
f 150/24/2 171/35/2 172/36/2 152/7/2
f 178/49/3 177/50/3 195/57/3 196/58/3
f 193/50/1 189/49/1 207/58/1 211/57/1
f 211/57/1 210/59/1 192/51/1 193/50/1
f 188/42/6 194/41/6 212/60/6 206/61/6
f 209/37/4 203/33/4 202/32/4 208/38/4
f 177/50/3 183/51/3 201/59/3 195/57/3
f 184/32/2 185/33/2 191/37/2 190/38/2
f 183/51/3 182/45/3 200/62/3 201/59/3
f 164/40/5 136/11/5 179/42/5 189/41/5
f 144/11/6 168/40/6 193/41/6 187/42/6
f 109/4/3 128/1/3 177/50/3 178/49/3
f 163/25/1 165/26/1 190/46/1 194/63/1
f 165/40/5 138/11/5 184/42/5 190/41/5
f 166/28/1 167/30/1 192/51/1 191/45/1
f 125/26/3 110/25/3 180/63/3 181/46/3
f 142/30/1 144/1/1 187/50/1 186/51/1
f 126/28/3 125/26/3 181/46/3 182/45/3
f 140/11/6 166/40/6 191/41/6 185/42/6
f 201/31/4 204/34/4 205/5/4 195/2/4
f 200/29/4 203/33/4 204/34/4 201/31/4
f 199/27/4 202/32/4 203/33/4 200/29/4
f 198/13/4 206/12/4 202/32/4 199/27/4
f 195/2/4 205/5/4 197/6/4 196/3/4
f 205/5/4 211/36/4 207/52/4 197/6/4
f 206/12/4 212/39/4 208/38/4 202/32/4
f 203/33/4 209/37/4 210/35/4 204/34/4
f 186/34/2 187/5/2 193/36/2 192/35/2
f 194/63/1 190/46/1 208/64/1 212/65/1
f 179/42/5 178/56/5 196/66/5 197/61/5
f 204/34/4 210/35/4 211/36/4 205/5/4
f 191/45/1 192/51/1 210/59/1 209/62/1
f 181/46/3 180/63/3 198/65/3 199/64/3
f 180/56/6 188/42/6 206/61/6 198/66/6
f 182/45/3 181/46/3 199/64/3 200/62/3
f 209/62/1 208/64/1 190/46/1 191/45/1
f 189/41/5 179/42/5 197/61/5 207/60/5
g Cube.002_Cube.002_Book_Blu
f 3/67/1 7/68/1 8/69/1 4/70/1
f 7/71/2 5/72/2 6/73/2 8/74/2
f 3/75/6 1/76/6 5/77/6 7/78/6
f 1/72/4 3/71/4 4/74/4 2/73/4
f 26/71/1 28/72/1 27/73/1 25/74/1
f 32/72/3 30/71/3 29/74/3 31/73/3
f 30/67/4 26/68/4 25/69/4 29/70/4
f 30/75/6 32/76/6 28/77/6 26/78/6
f 91/67/1 95/68/1 96/69/1 92/70/1
f 95/71/2 93/72/2 94/73/2 96/74/2
f 91/75/6 89/76/6 93/77/6 95/78/6
f 89/72/4 91/71/4 92/74/4 90/73/4
f 99/67/4 103/68/4 104/69/4 100/70/4
f 103/71/1 101/72/1 102/73/1 104/74/1
f 99/75/6 97/76/6 101/77/6 103/78/6
f 97/72/3 99/71/3 100/74/3 98/73/3
g Cube.002_Cube.002_Book_Gre
f 10/71/2 12/72/2 11/73/2 9/74/2
f 16/72/4 14/71/4 13/74/4 15/73/4
f 14/67/1 10/68/1 9/69/1 13/70/1
f 14/75/6 16/76/6 12/77/6 10/78/6
f 17/72/4 19/71/4 20/74/4 18/73/4
f 19/75/6 17/76/6 21/77/6 23/78/6
f 23/71/2 21/72/2 22/73/2 24/74/2
f 19/67/1 23/68/1 24/69/1 20/70/1
f 38/75/6 40/76/6 36/77/6 34/78/6
f 38/67/1 34/68/1 33/69/1 37/70/1
f 40/72/4 38/71/4 37/74/4 39/73/4
f 34/71/2 36/72/2 35/73/2 33/74/2
f 51/67/4 55/68/4 56/69/4 52/70/4
f 55/71/1 53/72/1 54/73/1 56/74/1
f 51/75/6 49/76/6 53/77/6 55/78/6
f 49/72/3 51/71/3 52/74/3 50/73/3
f 58/71/2 60/72/2 59/73/2 57/74/2
f 64/72/4 62/71/4 61/74/4 63/73/4
f 62/67/1 58/68/1 57/69/1 61/70/1
f 62/75/6 64/76/6 60/77/6 58/78/6
f 214/71/1 216/72/1 215/73/1 213/74/1
f 220/72/3 218/71/3 217/74/3 219/73/3
f 218/67/4 214/68/4 213/69/4 217/70/4
f 218/75/6 220/76/6 216/77/6 214/78/6
g Cube.002_Cube.002_Book_Mag
f 42/71/1 44/72/1 43/73/1 41/74/1
f 48/72/3 46/71/3 45/74/3 47/73/3
f 46/67/4 42/68/4 41/69/4 45/70/4
f 46/75/6 48/76/6 44/77/6 42/78/6
f 65/72/4 67/71/4 68/74/4 66/73/4
f 67/75/6 65/76/6 69/77/6 71/78/6
f 71/71/2 69/72/2 70/73/2 72/74/2
f 67/67/1 71/68/1 72/69/1 68/70/1
f 78/75/6 80/76/6 76/77/6 74/78/6
f 78/67/1 74/68/1 73/69/1 77/70/1
f 80/72/4 78/71/4 77/74/4 79/73/4
f 74/71/2 76/72/2 75/73/2 73/74/2
f 83/67/1 87/68/1 88/69/1 84/70/1
f 87/71/2 85/72/2 86/73/2 88/74/2
f 83/75/6 81/76/6 85/77/6 87/78/6
f 81/72/4 83/71/4 84/74/4 82/73/4
