# Blender v2.75 (sub 4) OBJ File: 'bookshelf.blend'
# www.blender.org
o Cube.003
v 0.406939 -0.086989 -0.419225
v 0.406939 -0.396953 -0.419225
v 0.406939 -0.086989 -0.136041
v 0.406939 -0.396953 -0.136041
v 0.333512 -0.086989 -0.419225
v 0.333512 -0.396953 -0.419225
v 0.333512 -0.086989 -0.136041
v 0.333512 -0.396953 -0.136041
v -0.136399 0.057167 -0.136040
v -0.136399 0.355399 -0.136040
v -0.136399 0.057167 -0.419225
v -0.136399 0.355399 -0.419225
v -0.062972 0.057167 -0.136040
v -0.062972 0.355399 -0.136040
v -0.062972 0.057167 -0.419225
v -0.062972 0.355399 -0.419225
v 0.323467 0.357650 -0.419225
v 0.323467 0.054984 -0.419225
v 0.323467 0.357650 -0.136040
v 0.323467 0.054984 -0.136040
v 0.250039 0.357650 -0.419225
v 0.250039 0.054984 -0.419225
v 0.250039 0.357650 -0.136040
v 0.250039 0.054984 -0.136040
v -0.500000 -0.500000 -0.129700
v -0.500000 0.500000 -0.129700
v -0.500000 -0.500000 -0.500000
v -0.500000 0.500000 -0.500000
v 0.500000 -0.500000 -0.129700
v 0.500000 0.500000 -0.129700
v 0.500000 -0.500000 -0.500000
v 0.500000 0.500000 -0.500000
v -0.500000 -0.400000 -0.129700
v -0.500000 -0.050000 -0.129700
v -0.500000 0.050000 -0.129700
v -0.500000 0.400000 -0.129700
v -0.500000 0.400000 -0.500000
v -0.500000 0.050000 -0.500000
v -0.500000 -0.050000 -0.500000
v -0.500000 -0.400000 -0.500000
v 0.500000 0.400000 -0.500000
v 0.500000 0.050000 -0.500000
v 0.500000 -0.050000 -0.500000
v 0.500000 -0.400000 -0.500000
v 0.500000 0.400000 -0.129700
v 0.500000 0.050000 -0.129700
v 0.500000 -0.050000 -0.129700
v 0.500000 -0.400000 -0.129700
v -0.416667 0.500000 -0.500000
v 0.416667 0.500000 -0.500000
v 0.416667 -0.500000 -0.500000
v -0.416667 -0.500000 -0.500000
v 0.416667 0.500000 -0.129700
v -0.416667 0.500000 -0.129700
v -0.416667 -0.500000 -0.129700
v 0.416667 -0.500000 -0.129700
v -0.416667 0.400000 -0.129700
v 0.416667 0.400000 -0.129700
v -0.416667 0.050000 -0.129700
v 0.416667 0.050000 -0.129700
v -0.416667 -0.050000 -0.129700
v 0.416667 -0.050000 -0.129700
v -0.416667 -0.400000 -0.129700
v 0.416667 -0.400000 -0.129700
v 0.416667 0.400000 -0.500000
v -0.416667 0.400000 -0.500000
v 0.416667 0.050000 -0.500000
v -0.416667 0.050000 -0.500000
v 0.416667 -0.050000 -0.500000
v -0.416667 -0.050000 -0.500000
v 0.416667 -0.400000 -0.500000
v -0.416667 -0.400000 -0.500000
v -0.416667 0.400000 -0.429700
v 0.416667 0.400000 -0.429700
v -0.416667 0.050000 -0.429700
v 0.416667 0.050000 -0.429700
v -0.416667 -0.050000 -0.429700
v 0.416667 -0.050000 -0.429700
v -0.416667 -0.400000 -0.429700
v 0.416667 -0.400000 -0.429700
v -0.402250 -0.396953 -0.136041
v -0.402250 -0.148853 -0.136041
v -0.402250 -0.396953 -0.419225
v -0.402250 -0.148853 -0.419225
v -0.328823 -0.396953 -0.136041
v -0.328823 -0.148853 -0.136041
v -0.328823 -0.396953 -0.419225
v -0.328823 -0.148853 -0.419225
v 0.029529 0.057167 -0.136040
v 0.029529 0.291102 -0.136040
v 0.029529 0.057167 -0.419225
v 0.029529 0.291102 -0.419225
v 0.102956 0.057167 -0.136040
v 0.102956 0.291102 -0.136040
v 0.102956 0.057167 -0.419225
v 0.102956 0.291102 -0.419225
v -0.319184 -0.395154 -0.136041
v -0.319184 -0.102765 -0.136041
v -0.319184 -0.395154 -0.419225
v -0.319184 -0.102765 -0.419225
v -0.245757 -0.395154 -0.136041
v -0.245757 -0.102765 -0.136041
v -0.245757 -0.395154 -0.419225
v -0.245757 -0.102765 -0.419225
v -0.156853 -0.158651 -0.419225
v -0.156853 -0.392586 -0.419225
v -0.156853 -0.158651 -0.136041
v -0.156853 -0.392586 -0.136041
v -0.230280 -0.158651 -0.419225
v -0.230280 -0.392586 -0.419225
v -0.230280 -0.158651 -0.136041
v -0.230280 -0.392586 -0.136041
v 0.250039 -0.396953 -0.136041
v 0.250039 -0.110464 -0.136041
v 0.250039 -0.396953 -0.419225
v 0.250039 -0.110464 -0.419225
v 0.323467 -0.396953 -0.136041
v 0.323467 -0.110464 -0.136041
v 0.323467 -0.396953 -0.419225
v 0.323467 -0.110464 -0.419225
v 0.409223 0.302826 -0.419225
v 0.409223 0.052416 -0.419225
v 0.409223 0.302826 -0.136040
v 0.409223 0.052416 -0.136040
v 0.335796 0.302826 -0.419225
v 0.335796 0.052416 -0.419225
v 0.335796 0.302826 -0.136040
v 0.335796 0.052416 -0.136040
v -0.055009 0.054599 -0.136040
v -0.055009 0.305009 -0.136040
v -0.055009 0.054599 -0.419225
v -0.055009 0.305009 -0.419225
v 0.018418 0.054599 -0.136040
v 0.018418 0.305009 -0.136040
v 0.018418 0.054599 -0.419225
v 0.018418 0.305009 -0.419225
v 0.238928 -0.146927 -0.419225
v 0.238928 -0.397337 -0.419225
v 0.238928 -0.146927 -0.136041
v 0.238928 -0.397337 -0.136041
v 0.165501 -0.146927 -0.419225
v 0.165501 -0.397337 -0.419225
v 0.165501 -0.146927 -0.136041
v 0.165501 -0.397337 -0.136041
v 0.238827 0.320605 -0.419225
v 0.238827 0.054984 -0.419225
v 0.238827 0.320605 -0.136040
v 0.238827 0.054984 -0.136040
v 0.165400 0.320605 -0.419225
v 0.165400 0.054984 -0.419225
v 0.165400 0.320605 -0.136040
v 0.165400 0.054984 -0.136040
v -0.333189 0.367131 -0.419225
v -0.333189 0.057167 -0.419225
v -0.333189 0.367131 -0.136040
v -0.333189 0.057167 -0.136040
v -0.406617 0.367131 -0.419225
v -0.406617 0.057167 -0.419225
v -0.406617 0.367131 -0.136040
v -0.406617 0.057167 -0.136040
vt 0.629700 0.100000
vt 1.000000 0.100000
vt 1.000000 0.000000
vt 0.629700 0.000000
vt 0.916667 0.100000
vt 0.916667 0.000000
vt 0.083333 0.100000
vt 0.000000 0.100000
vt 0.000000 0.000000
vt 0.083333 0.000000
vt 0.916667 0.629700
vt 0.916667 1.000000
vt 1.000000 1.000000
vt 1.000000 0.629700
vt 0.083333 0.629700
vt 0.083333 1.000000
vt 0.000000 1.000000
vt 0.000000 0.629700
vt 0.000000 0.900000
vt 0.083333 0.900000
vt 0.000000 0.550000
vt 0.083333 0.550000
vt 0.000000 0.450000
vt 0.083333 0.450000
vt 0.629700 1.000000
vt 0.629700 0.900000
vt 1.000000 0.900000
vt 0.629700 0.550000
vt 1.000000 0.550000
vt 0.629700 0.450000
vt 1.000000 0.450000
vt 0.916667 0.900000
vt 0.916667 0.550000
vt 0.916667 0.450000
vt 0.929700 0.450000
vt 0.929700 0.100000
vt 0.929700 0.900000
vt 0.929700 0.550000
vt 0.916667 0.929700
vt 0.083333 0.929700
vt 0.797745 0.840879
vt 0.606883 0.840879
vt 0.606883 0.035180
vt 0.797745 0.035180
vt 0.120771 0.840879
vt 0.856861 0.840879
vt 0.856861 0.035180
vt 0.120771 0.035180
vt 0.797745 0.246889
vt 0.797745 0.982979
vt 0.606883 0.982979
vt 0.606883 0.246889
vn -1.000000 0.000000 0.000000
vn 0.000000 0.000000 -1.000000
vn 1.000000 0.000000 0.000000
vn 0.000000 0.000000 1.000000
vn 0.000000 -1.000000 0.000000
vn 0.000000 1.000000 0.000000
g Cube.003_Cube.003_Wood
s off
f 33/1/1 40/2/1 27/3/1 25/4/1
f 71/5/2 44/2/2 31/3/2 51/6/2
f 44/2/3 48/1/3 29/4/3 31/3/3
f 63/7/4 33/8/4 25/9/4 55/10/4
f 56/11/5 51/12/5 31/13/5 29/14/5
f 54/15/6 49/16/6 28/17/6 26/18/6
f 54/16/4 26/17/4 36/19/4 57/20/4
f 57/20/4 36/19/4 35/21/4 59/22/4
f 59/22/4 35/21/4 34/23/4 61/24/4
f 61/24/4 34/23/4 33/8/4 63/7/4
f 32/13/3 30/25/3 45/26/3 41/27/3
f 41/27/3 45/26/3 46/28/3 42/29/3
f 42/29/3 46/28/3 47/30/3 43/31/3
f 43/31/3 47/30/3 48/1/3 44/2/3
f 50/12/2 32/13/2 41/27/2 65/32/2
f 65/32/2 41/27/2 42/29/2 67/33/2
f 67/33/2 42/29/2 43/31/2 69/34/2
f 69/34/2 43/31/2 44/2/2 71/5/2
f 26/25/1 28/13/1 37/27/1 36/26/1
f 36/26/1 37/27/1 38/29/1 35/28/1
f 35/28/1 38/29/1 39/31/1 34/30/1
f 34/30/1 39/31/1 40/2/1 33/1/1
f 39/23/2 70/24/2 72/7/2 40/8/2
f 70/24/2 69/34/2 71/5/2 72/7/2
f 38/21/2 68/22/2 70/24/2 39/23/2
f 68/22/2 67/33/2 69/34/2 70/24/2
f 37/19/2 66/20/2 68/22/2 38/21/2
f 66/20/2 65/32/2 67/33/2 68/22/2
f 28/17/2 49/16/2 66/20/2 37/19/2
f 49/16/2 50/12/2 65/32/2 66/20/2
f 47/31/4 62/34/4 64/5/4 48/2/4
f 64/1/1 62/30/1 78/35/1 80/36/1
f 46/29/4 60/33/4 62/34/4 47/31/4
f 60/33/4 59/22/4 61/24/4 62/34/4
f 45/27/4 58/32/4 60/33/4 46/29/4
f 60/28/1 58/26/1 74/37/1 76/38/1
f 30/13/4 53/12/4 58/32/4 45/27/4
f 53/12/4 54/16/4 57/20/4 58/32/4
f 30/14/6 32/13/6 50/12/6 53/11/6
f 53/11/6 50/12/6 49/16/6 54/15/6
f 25/18/5 27/17/5 52/16/5 55/15/5
f 55/15/5 52/16/5 51/12/5 56/11/5
f 48/2/4 64/5/4 56/6/4 29/3/4
f 64/5/4 63/7/4 55/10/4 56/6/4
f 40/8/2 72/7/2 52/10/2 27/9/2
f 72/7/2 71/5/2 51/6/2 52/10/2
f 78/34/4 77/24/4 79/7/4 80/5/4
f 74/32/4 73/20/4 75/22/4 76/33/4
f 57/26/3 59/28/3 75/38/3 73/37/3
f 63/15/6 64/11/6 80/39/6 79/40/6
f 62/11/5 61/15/5 77/40/5 78/39/5
f 61/30/3 63/1/3 79/36/3 77/35/3
f 59/15/6 60/11/6 76/39/6 75/40/6
f 58/11/5 57/15/5 73/40/5 74/39/5
g Cube.003_Cube.003_Book_Blu
f 3/41/4 7/42/4 8/43/4 4/44/4
f 7/45/1 5/46/1 6/47/1 8/48/1
f 3/49/6 1/50/6 5/51/6 7/52/6
f 1/46/3 3/45/3 4/48/3 2/47/3
f 82/45/1 84/46/1 83/47/1 81/48/1
f 88/46/3 86/45/3 85/48/3 87/47/3
f 86/41/4 82/42/4 81/43/4 85/44/4
f 86/49/6 88/50/6 84/51/6 82/52/6
f 147/41/4 151/42/4 152/43/4 148/44/4
f 151/45/1 149/46/1 150/47/1 152/48/1
f 147/49/6 145/50/6 149/51/6 151/52/6
f 145/46/3 147/45/3 148/48/3 146/47/3
f 155/41/4 159/42/4 160/43/4 156/44/4
f 159/45/1 157/46/1 158/47/1 160/48/1
f 155/49/6 153/50/6 157/51/6 159/52/6
f 153/46/3 155/45/3 156/48/3 154/47/3
g Cube.003_Cube.003_Book_Gre
f 10/45/1 12/46/1 11/47/1 9/48/1
f 16/46/3 14/45/3 13/48/3 15/47/3
f 14/41/4 10/42/4 9/43/4 13/44/4
f 14/49/6 16/50/6 12/51/6 10/52/6
f 17/46/3 19/45/3 20/48/3 18/47/3
f 19/49/6 17/50/6 21/51/6 23/52/6
f 23/45/1 21/46/1 22/47/1 24/48/1
f 19/41/4 23/42/4 24/43/4 20/44/4
f 94/49/6 96/50/6 92/51/6 90/52/6
f 94/41/4 90/42/4 89/43/4 93/44/4
f 96/46/3 94/45/3 93/48/3 95/47/3
f 90/45/1 92/46/1 91/47/1 89/48/1
f 107/41/4 111/42/4 112/43/4 108/44/4
f 111/45/1 109/46/1 110/47/1 112/48/1
f 107/49/6 105/50/6 109/51/6 111/52/6
f 105/46/3 107/45/3 108/48/3 106/47/3
f 114/45/1 116/46/1 115/47/1 113/48/1
f 120/46/3 118/45/3 117/48/3 119/47/3
f 118/41/4 114/42/4 113/43/4 117/44/4
f 118/49/6 120/50/6 116/51/6 114/52/6
g Cube.003_Cube.003_Book_Mag
f 98/45/1 100/46/1 99/47/1 97/48/1
f 104/46/3 102/45/3 101/48/3 103/47/3
f 102/41/4 98/42/4 97/43/4 101/44/4
f 102/49/6 104/50/6 100/51/6 98/52/6
f 121/46/3 123/45/3 124/48/3 122/47/3
f 123/49/6 121/50/6 125/51/6 127/52/6
f 127/45/1 125/46/1 126/47/1 128/48/1
f 123/41/4 127/42/4 128/43/4 124/44/4
f 134/49/6 136/50/6 132/51/6 130/52/6
f 134/41/4 130/42/4 129/43/4 133/44/4
f 136/46/3 134/45/3 133/48/3 135/47/3
f 130/45/1 132/46/1 131/47/1 129/48/1
f 139/41/4 143/42/4 144/43/4 140/44/4
f 143/45/1 141/46/1 142/47/1 144/48/1
f 139/49/6 137/50/6 141/51/6 143/52/6
f 137/46/3 139/45/3 140/48/3 138/47/3
