# Blender v2.75 (sub 0) OBJ File: ''
# www.blender.org
mtllib FM_cutting_board.mtl
o Cube_Cube.001
v -0.556704 0.027573 0.735272
v -0.556704 -0.027573 0.735272
v -0.556704 0.027573 -0.735272
v -0.556704 -0.027573 -0.735272
v 0.556704 0.027573 0.735272
v 0.556704 -0.027573 0.735272
v 0.556704 0.027573 -0.735272
v 0.556704 -0.027573 -0.735272
vt 0.000100 0.000100
vt 0.999900 0.000100
vt 1.000000 0.062500
vt 0.000000 0.062500
vt -0.000000 0.937500
vt 1.000000 0.937500
vt 1.000000 1.000000
vt 0.000000 1.000000
vt 1.000000 0.187500
vt -0.000000 0.187500
vt -0.000000 0.125000
vt 1.000000 0.125000
vt -0.000000 0.000000
vt 1.000000 -0.000000
vt 0.999900 0.999900
vt 0.000100 0.999900
vn 1.000000 0.000000 0.000000
vn 0.000000 0.000000 1.000000
vn -1.000000 0.000000 0.000000
vn 0.000000 0.000000 -1.000000
vn 0.000000 -1.000000 0.000000
vn 0.000000 1.000000 0.000000
usemtl None
s off
f 2/1/1 4/2/1 3/3/1 1/4/1
f 4/5/2 8/6/2 7/7/2 3/8/2
f 8/3/3 6/4/3 5/1/3 7/2/3
f 6/9/4 2/10/4 1/11/4 5/12/4
f 1/13/5 3/14/5 7/7/5 5/8/5
f 6/2/6 8/15/6 4/16/6 2/1/6
