# Blender v2.75 (sub 4) OBJ File: ''
# www.blender.org
o Cube_Cube.001
v -0.500000 -0.100000 0.500000
v -0.500000 0.000000 0.500000
v -0.500000 -0.100000 -0.500000
v -0.500000 0.000000 -0.500000
v 0.500000 -0.100000 0.500000
v 0.500000 0.000000 0.500000
v 0.500000 -0.100000 -0.500000
v 0.500000 0.000000 -0.500000
v -0.500000 0.000000 0.366667
v -0.500000 0.000000 -0.366667
v -0.500000 -0.100000 -0.366667
v -0.500000 -0.100000 0.366667
v 0.500000 0.000000 -0.366667
v 0.500000 0.000000 0.366667
v 0.500000 -0.100000 0.366667
v 0.500000 -0.100000 -0.366667
v -0.366667 0.000000 -0.500000
v 0.366667 0.000000 -0.500000
v 0.366667 -0.100000 -0.500000
v -0.366667 -0.100000 -0.500000
v 0.366667 0.000000 0.500000
v -0.366667 0.000000 0.500000
v -0.366667 -0.100000 0.500000
v 0.366667 -0.100000 0.500000
v 0.366667 0.000000 0.366667
v -0.366667 0.000000 0.366667
v 0.366667 0.000000 -0.366667
v -0.366667 0.000000 -0.366667
v -0.366667 -0.100000 0.366667
v 0.366667 -0.100000 0.366667
v -0.366667 -0.100000 -0.366667
v 0.366667 -0.100000 -0.366667
v -0.500000 -0.500000 0.366667
v -0.500000 -0.500000 0.500000
v -0.366667 -0.500000 -0.500000
v -0.500000 -0.500000 -0.500000
v 0.500000 -0.500000 -0.366667
v 0.500000 -0.500000 -0.500000
v 0.366667 -0.500000 0.500000
v 0.500000 -0.500000 0.500000
v -0.500000 -0.500000 -0.366667
v 0.500000 -0.500000 0.366667
v 0.366667 -0.500000 0.366667
v 0.366667 -0.500000 -0.366667
v 0.366667 -0.500000 -0.500000
v -0.366667 -0.500000 0.500000
v -0.366667 -0.500000 0.366667
v -0.366667 -0.500000 -0.366667
vt 0.866667 0.500000
vt 1.000000 0.500000
vt 1.000000 0.400000
vt 0.866667 0.400000
vt 0.133333 0.500000
vt 0.000000 0.500000
vt 0.000000 0.400000
vt 0.133333 0.400000
vt 0.133333 0.000000
vt 0.000000 0.000000
vt 0.133333 0.866667
vt 0.133333 1.000000
vt 0.000000 1.000000
vt 0.000000 0.866667
vt 0.133333 0.133333
vt 0.000000 0.133333
vt 0.866667 0.133333
vt 0.866667 0.866667
vt 1.000000 0.866667
vt 1.000000 0.133333
vt 0.866667 0.000000
vt 1.000000 0.000000
vt 1.000000 1.000000
vt 0.866667 1.000000
vn -1.000000 0.000000 0.000000
vn 0.000000 0.000000 -1.000000
vn 1.000000 0.000000 0.000000
vn 0.000000 0.000000 1.000000
vn 0.000000 1.000000 0.000000
vn 0.000000 -1.000000 0.000000
s off
f 10/1/1 4/2/1 3/3/1 11/4/1
f 18/1/2 8/2/2 7/3/2 19/4/2
f 14/5/3 6/6/3 5/7/3 15/8/3
f 22/5/4 2/6/4 1/7/4 23/8/4
f 12/7/2 29/8/2 47/9/2 33/10/2
f 28/11/5 17/12/5 4/13/5 10/14/5
f 22/9/5 26/15/5 9/16/5 2/10/5
f 26/15/5 28/11/5 10/14/5 9/16/5
f 1/7/1 12/8/1 33/9/1 34/10/1
f 30/17/6 32/18/6 16/19/6 15/20/6
f 8/2/3 13/1/3 16/4/3 7/3/3
f 13/1/3 14/5/3 15/8/3 16/4/3
f 2/6/1 9/5/1 12/8/1 1/7/1
f 9/5/1 10/1/1 11/4/1 12/8/1
f 12/16/6 11/14/6 31/11/6 29/15/6
f 29/15/6 31/11/6 32/18/6 30/17/6
f 24/7/1 30/8/1 43/9/1 39/10/1
f 23/9/6 29/15/6 30/17/6 24/21/6
f 14/20/5 13/19/5 27/18/5 25/17/5
f 25/17/5 27/18/5 28/11/5 26/15/5
f 6/22/5 14/20/5 25/17/5 21/21/5
f 21/21/5 25/17/5 26/15/5 22/9/5
f 13/19/5 8/23/5 18/24/5 27/18/5
f 27/18/5 18/24/5 17/12/5 28/11/5
f 20/3/3 31/4/3 48/21/3 35/22/3
f 31/11/6 20/12/6 19/24/6 32/18/6
f 6/2/4 21/1/4 24/4/4 5/3/4
f 21/1/4 22/5/4 23/8/4 24/4/4
f 4/6/2 17/5/2 20/8/2 3/7/2
f 17/5/2 18/1/2 19/4/2 20/8/2
f 44/18/6 45/24/6 38/23/6 37/19/6
f 39/21/6 43/17/6 42/20/6 40/22/6
f 34/10/6 33/16/6 47/15/6 46/9/6
f 41/14/6 36/13/6 35/12/6 48/11/6
f 32/4/1 19/3/1 45/22/1 44/21/1
f 15/8/3 5/7/3 40/10/3 42/9/3
f 5/3/4 24/4/4 39/21/4 40/22/4
f 23/8/4 1/7/4 34/10/4 46/9/4
f 31/8/4 11/7/4 41/10/4 48/9/4
f 3/7/2 20/8/2 35/9/2 36/10/2
f 11/4/1 3/3/1 36/22/1 41/21/1
f 30/4/2 15/3/2 42/22/2 43/21/2
f 19/4/2 7/3/2 38/22/2 45/21/2
f 16/3/4 32/4/4 44/21/4 37/22/4
f 7/3/3 16/4/3 37/21/3 38/22/3
f 29/8/3 23/7/3 46/10/3 47/9/3
