# Blender v2.75 (sub 0) OBJ File: ''
# www.blender.org
mtllib FM_counter_corner_2.mtl
o Cube.006
v 0.495833 0.432548 0.499414
v -0.489520 0.432524 0.504199
v -0.489520 0.503103 0.504592
v 0.495833 0.503128 0.499807
v -0.494323 0.438031 -0.494103
v -0.494323 0.508610 -0.493711
v 0.491030 0.438055 -0.498888
v 0.491030 0.508635 -0.498495
vn -0.004900 0.005600 -1.000000
vn 1.000000 0.000000 -0.004800
vn 0.004900 -0.005600 1.000000
vn -1.000000 -0.000000 0.004800
vn -0.000000 -1.000000 -0.005500
vn 0.000000 1.000000 0.005500
usemtl None.001
s 1
f 1//1 2//1 3//1 4//1
f 2//2 5//2 6//2 3//2
f 5//3 7//3 8//3 6//3
f 7//4 1//4 4//4 8//4
f 4//5 3//5 6//5 8//5
f 7//6 5//6 2//6 1//6
o Cube.004
v -0.496091 -0.506365 -0.497052
v 0.491742 -0.506340 -0.502361
v 0.496089 -0.511325 0.497732
v -0.491743 -0.511349 0.503040
v -0.496089 0.461053 -0.491091
v -0.491742 0.456069 0.509001
v 0.496091 0.456093 0.503693
v 0.491744 0.461078 -0.496399
vn -0.000000 -1.000000 -0.005000
vn 0.000000 1.000000 0.005000
vn -0.005400 0.006200 -1.000000
vn 1.000000 0.000000 -0.004300
vn 0.005400 -0.006200 1.000000
vn -1.000000 -0.000000 0.004300
usemtl Material.002
s 1
f 9//7 10//7 11//7 12//7
f 13//8 14//8 15//8 16//8
f 9//9 13//9 16//9 10//9
f 10//10 16//10 15//10 11//10
f 11//11 15//11 14//11 12//11
f 13//12 9//12 12//12 14//12
