# Blender v2.78 (sub 0) OBJ File: ''
# www.blender.org
mtllib FM_counter_corner.mtl
o nodebox1
v 0.375000 -0.500000 -0.375000
v 0.375000 -0.500000 0.500000
v 0.375000 0.375000 0.500000
v 0.375000 0.375000 -0.375000
v -0.500000 -0.500000 -0.375000
v -0.500000 -0.500000 0.500000
v -0.500000 0.375000 0.500000
v -0.500000 0.375000 -0.375000
vt -0.0000 0.6667
vt -0.0000 0.3333
vt 1.0000 0.3333
vt 1.0000 0.6667
vt 1.0000 0.6667
vt 0.0000 0.6667
vt 0.0000 0.3333
vt 1.0000 0.3333
vt 0.0000 0.3333
vt 1.0000 0.3333
vt 1.0000 0.6667
vt -0.0000 0.6667
vt 1.0000 0.6667
vt 1.0000 0.3333
vt 1.0000 0.6667
vt 0.0000 0.3333
vt 0.0000 0.0000
vt 0.0000 0.0000
vt 0.0000 0.0000
vt 0.0000 0.0000
vn -1.0000 0.0000 0.0000
vn 0.0000 -0.0000 1.0000
vn 0.0000 -1.0000 -0.0000
usemtl none
s off
f 1/1/1 2/2/1 3/3/1 4/4/1
f 5/5/1 6/6/1 7/7/1 8/8/1
f 1/9/2 4/10/2 8/11/2 5/12/2
f 2/2/2 3/3/2 7/13/2 6/6/2
f 1/14/3 2/15/3 6/6/3 5/16/3
usemtl none_NONE
f 4/17/3 3/18/3 7/19/3 8/20/3
o nodebox2
v 0.500000 0.375000 -0.500000
v 0.500000 0.375000 0.500000
v 0.500000 0.500000 0.500000
v 0.500000 0.500000 -0.500000
v -0.500000 0.375000 -0.500000
v -0.500000 0.375000 0.500000
v -0.500000 0.500000 0.500000
v -0.500000 0.500000 -0.500000
vt 0.0000 0.6667
vt 1.0000 0.6667
vt 1.0000 0.7917
vt 0.0000 0.7917
vt 0.0000 0.6667
vt 1.0000 0.6667
vt 1.0000 0.7917
vt 0.0000 0.7917
vt 0.0000 0.0000
vt 1.0000 0.0000
vt 1.0000 1.0000
vt 0.0000 1.0000
vt 1.0000 0.7500
vt 0.0000 0.7500
vt 0.0000 0.6667
vt 1.0000 0.6667
vt 1.0000 1.0000
vt 0.0000 1.0000
vt 1.0000 0.6667
vt 1.0000 1.0000
vt 0.0000 1.0000
vt 0.0000 0.6667
vn -1.0000 0.0000 0.0000
vn 0.0000 -0.0000 1.0000
vn 0.0000 -1.0000 -0.0000
usemtl none
s off
f 9/21/4 10/22/4 11/23/4 12/24/4
f 13/25/4 14/26/4 15/27/4 16/28/4
f 9/29/5 12/30/5 16/31/5 13/32/5
f 10/22/5 11/33/5 15/34/5 14/35/5
f 9/36/6 10/37/6 14/38/6 13/25/6
f 12/39/6 11/40/6 15/41/6 16/42/6
