# Blender v2.77 (sub 0) OBJ File: ''
# www.blender.org
mtllib FM_computer.mtl
o Computer_Cube.004_Screen
v -0.262143 0.375756 -0.052895
v -0.262143 -0.150924 -0.052895
v -0.265880 -0.150924 0.473772
v -0.265880 0.375756 0.473772
v 0.264523 -0.150924 -0.049159
v 0.260787 -0.150924 0.477508
v 0.264523 0.375756 -0.049159
v 0.260787 0.375755 0.477508
v 0.200036 -0.086554 -0.032977
v 0.200037 0.311385 -0.032977
v -0.197893 -0.086554 -0.035800
v -0.197893 0.311385 -0.035800
v -0.315933 -0.401219 -0.139534
v 0.343198 -0.401219 -0.133669
v 0.346124 -0.401219 -0.462504
v -0.313008 -0.401219 -0.468370
v -0.315933 -0.498294 -0.139534
v -0.313008 -0.498294 -0.468369
v 0.346124 -0.498294 -0.462504
v 0.343198 -0.498294 -0.133669
vt 0.9955 0.4983
vt 0.9955 0.6086
vt 0.6646 0.6086
vt 0.6646 0.4983
vt 0.9948 0.6665
vt 0.0038 0.6665
vt 0.0038 0.3362
vt 0.9947 0.3362
vt 0.0028 0.6086
vt 0.0028 0.4983
vt 0.3337 0.4983
vt 0.3337 0.6086
vt 0.3337 0.3880
vt 0.6646 0.3880
vt 0.9856 0.3389
vt 0.9856 0.6630
vt 0.8630 0.6224
vt 0.8638 0.3798
vt 0.9999 0.3334
vt 0.0001 0.3334
vt 0.0001 0.0001
vt 0.9999 0.0001
vt 0.0132 0.6633
vt 0.0133 0.3392
vt 0.1359 0.3797
vt 0.1351 0.6224
vt 0.8750 0.9023
vt 0.1091 0.9023
vt 0.1091 0.7749
vt 0.8750 0.7749
vt 0.9878 0.9023
vt 0.9878 0.7749
vt 0.8750 0.7373
vt 0.1091 0.7373
vt -0.0037 0.7749
vt -0.0037 0.9023
vt 0.8750 0.9399
vt 0.1091 0.9399
vn -1.0000 -0.0000 -0.0071
vn 0.0000 -1.0000 -0.0000
vn 1.0000 -0.0000 0.0071
vn 0.0000 1.0000 0.0000
vn -0.0071 -0.0000 1.0000
vn -0.2434 0.0000 -0.9699
vn 0.0071 0.0000 -1.0000
vn 0.2571 0.0000 -0.9664
vn 0.0069 -0.2503 -0.9682
vn 0.0069 0.2503 -0.9682
vn -0.5825 0.5774 0.5722
vn 0.5722 0.5774 0.5825
vn 0.5825 0.5773 -0.5722
vn -0.5722 0.5773 -0.5825
vn -0.7134 0.0000 0.7008
vn -0.7008 -0.0000 -0.7134
vn 0.7134 -0.0000 -0.7008
vn 0.7008 -0.0000 0.7134
usemtl None
s off
f 1/1/1 2/2/1 3/3/1 4/4/1
f 2/5/2 5/6/2 6/7/2 3/8/2
f 5/9/3 7/10/3 8/11/3 6/12/3
f 7/13/4 1/14/4 4/4/4 8/11/4
f 4/4/5 3/3/5 6/12/5 8/11/5
f 7/15/6 5/16/6 9/17/6 10/18/6
f 10/19/7 9/20/7 11/21/7 12/22/7
f 2/23/8 1/24/8 12/25/8 11/26/8
f 1/24/9 7/15/9 10/18/9 12/25/9
f 5/16/10 2/23/10 11/26/10 9/17/10
s 1
f 13/27/11 14/28/12 15/29/13 16/30/14
f 17/31/15 13/27/11 16/30/14 18/32/16
f 18/33/16 16/30/14 15/29/13 19/34/17
f 19/35/17 15/29/13 14/28/12 20/36/18
f 13/27/11 17/37/15 20/38/18 14/28/12
o Computer_Cube.004_Screen_computertex.png.001
v 0.408214 -0.230655 0.029489
v 0.404301 -0.230655 0.469298
v 0.404301 -0.497397 0.469298
v 0.408214 -0.497397 0.029489
v -0.387756 -0.230655 0.462250
v -0.387756 -0.497397 0.462250
v -0.383843 -0.230655 0.022441
v -0.383843 -0.497397 0.022441
v -0.128397 -0.318933 0.403876
v -0.126165 -0.318933 0.153032
v -0.126165 -0.068079 0.153032
v -0.128397 -0.068079 0.403875
v 0.124679 -0.318933 0.155263
v 0.124679 -0.068079 0.155263
v 0.122448 -0.318933 0.406108
v 0.122448 -0.068079 0.406108
vt 0.6699 0.4033
vt 0.3431 0.4033
vt 0.3431 0.3372
vt 0.6699 0.3372
vt 0.3431 0.5994
vt 0.1450 0.5994
vt 0.1450 0.4033
vt 0.6699 0.5994
vt 0.6699 0.6655
vt 0.3431 0.6655
vt 0.8680 0.4033
vt 0.8680 0.5994
vt 0.2506 0.8819
vt 0.0035 0.8819
vt 0.0035 0.7995
vt 0.2506 0.7995
vt 0.9922 0.8819
vt 0.7450 0.8819
vt 0.7450 0.7995
vt 0.9922 0.7995
vt 0.4978 0.8819
vt 0.4978 0.7995
vn 0.5825 0.5774 -0.5722
vn 0.5722 0.5774 0.5825
vn 0.7008 0.0000 0.7134
vn 0.7134 0.0000 -0.7008
vn -0.5825 0.5774 0.5722
vn -0.7134 -0.0000 0.7008
vn -0.5722 0.5774 -0.5825
vn -0.7008 0.0000 -0.7134
usemtl None
s 1
f 21/39/19 22/40/20 23/41/21 24/42/22
f 22/40/20 25/43/23 26/44/24 23/45/21
f 25/43/23 27/46/25 28/47/26 26/48/24
f 27/46/25 21/39/19 24/49/22 28/50/26
f 27/46/25 25/43/23 22/40/20 21/39/19
f 29/51/22 30/52/21 31/53/21 32/54/22
f 30/55/21 33/56/24 34/57/24 31/58/21
f 33/56/24 35/59/26 36/60/26 34/57/24
f 35/59/26 29/51/22 32/54/22 36/60/26
