# Blender v2.75 (sub 0) OBJ File: ''
# www.blender.org
mtllib FM_doorbell.mtl
o Cube.003
v 0.099249 -0.236820 -0.426144
v -0.074224 -0.241630 -0.426326
v -0.074165 -0.241229 -0.493689
v 0.099309 -0.236419 -0.493506
v 0.085768 0.249206 -0.423260
v 0.085828 0.249608 -0.490622
v -0.087645 0.244798 -0.490804
v -0.087705 0.244396 -0.423442
vt 0.250000 0.000000
vt 0.250000 1.000000
vt -0.000000 1.000000
vt 0.000000 -0.000000
vt 0.750000 0.000000
vt 1.000000 0.000000
vt 1.000000 0.687500
vt 0.750000 0.687500
vt 0.375000 1.000000
vt 0.375000 -0.000000
vt 0.625000 -0.000000
vt 0.625000 1.000000
vt 0.750000 1.000000
vt 1.000000 1.000000
vt 0.687500 1.000000
vt 0.687500 0.000000
vt 0.812500 1.000000
vt 0.812500 0.000000
vn 0.027700 -0.999600 -0.005900
vn -0.027700 0.999600 0.005900
vn -0.000900 -0.006000 1.000000
vn -0.999600 -0.027700 -0.001100
vn 0.000900 0.006000 -1.000000
vn 0.999600 0.027700 0.001100
usemtl Material.001
s 1
f 1/1/1 2/2/1 3/3/1 4/4/1
f 5/5/2 6/6/2 7/7/2 8/8/2
f 1/9/3 5/10/3 8/11/3 2/12/3
f 2/13/4 8/5/4 7/6/4 3/14/4
f 3/15/5 7/16/5 6/6/5 4/14/5
f 5/17/6 1/18/6 4/6/6 6/14/6
o Cube.002
v -0.053972 0.060675 -0.478672
v 0.062385 0.063902 -0.478550
v 0.065612 -0.052454 -0.479241
v -0.050744 -0.055680 -0.479363
v 0.062316 0.063434 -0.400040
v 0.065543 -0.052921 -0.400731
v -0.054041 0.060207 -0.400162
v -0.050814 -0.056148 -0.400853
vt 0.250000 0.000000
vn 0.000900 0.006000 -1.000000
vn 0.999600 0.027700 0.001000
vn -0.000900 -0.006000 1.000000
vn -0.999600 -0.027700 -0.001000
vn 0.027700 -0.999600 -0.005900
vn -0.027700 0.999600 0.005900
usemtl None.001
s 1
f 9/19/7 10/19/7 11/19/7 12/19/7
f 10/19/8 13/19/8 14/19/8 11/19/8
f 13/19/9 15/19/9 16/19/9 14/19/9
f 15/19/10 9/19/10 12/19/10 16/19/10
f 12/19/11 11/19/11 14/19/11 16/19/11
f 15/19/12 13/19/12 10/19/12 9/19/12
