# Blender v2.75 (sub 0) OBJ File: 'nightstand.blend'
# www.blender.org
mtllib FM_doorbell_on.mtl
o Cube.002
v -0.053972 0.060675 -0.499663
v 0.062385 0.063902 -0.499541
v 0.065612 -0.052454 -0.500232
v -0.050744 -0.055680 -0.500354
v 0.062316 0.063434 -0.421031
v 0.065543 -0.052921 -0.421722
v -0.054041 0.060207 -0.421153
v -0.050814 -0.056148 -0.421844
vt 0.250000 0.000000
vn 0.000900 0.006000 -1.000000
vn 0.999600 0.027700 0.001000
vn -0.000900 -0.006000 1.000000
vn -0.999600 -0.027700 -0.001100
vn 0.027700 -0.999600 -0.005900
vn -0.027700 0.999600 0.005900
usemtl None.001
s 1
f 1/1/1 2/1/1 3/1/1 4/1/1
f 2/1/2 5/1/2 6/1/2 3/1/2
f 5/1/3 7/1/3 8/1/3 6/1/3
f 7/1/4 1/1/4 4/1/4 8/1/4
f 4/1/5 3/1/5 6/1/5 8/1/5
f 7/1/6 5/1/6 2/1/6 1/1/6
o Cube.003
v 0.099249 -0.236820 -0.426144
v -0.074224 -0.241630 -0.426326
v -0.074165 -0.241229 -0.493689
v 0.099309 -0.236419 -0.493506
v 0.085768 0.249206 -0.423260
v 0.085828 0.249608 -0.490622
v -0.087645 0.244798 -0.490804
v -0.087705 0.244396 -0.423442
vt 0.250000 0.000000
vt 0.250000 1.000000
vt -0.000000 1.000000
vt 0.000000 -0.000000
vt 0.750000 0.000000
vt 1.000000 0.000000
vt 1.000000 0.687500
vt 0.750000 0.687500
vt 0.375000 1.000000
vt 0.375000 -0.000000
vt 0.625000 -0.000000
vt 0.625000 1.000000
vt 0.750000 1.000000
vt 1.000000 1.000000
vt 0.687500 1.000000
vt 0.687500 0.000000
vt 0.812500 1.000000
vt 0.812500 0.000000
vn 0.027700 -0.999600 -0.005900
vn -0.027700 0.999600 0.005900
vn -0.000900 -0.006000 1.000000
vn -0.999600 -0.027700 -0.001000
vn 0.000900 0.006000 -1.000000
vn 0.999600 0.027700 0.001100
usemtl Material.001
s 1
f 9/2/7 10/3/7 11/4/7 12/5/7
f 13/6/8 14/7/8 15/8/8 16/9/8
f 9/10/9 13/11/9 16/12/9 10/13/9
f 10/14/10 16/6/10 15/7/10 11/15/10
f 11/16/11 15/17/11 14/7/11 12/15/11
f 13/18/12 9/19/12 12/7/12 14/15/12
o BoundingBox_Cube
v 0.500000 -0.500000 -0.500000
v 0.500000 -0.500000 0.500000
v -0.500000 -0.500000 0.500000
v -0.500000 -0.500000 -0.500000
v 0.500000 0.500000 -0.500000
v 0.500000 0.500000 0.500000
v -0.500000 0.500000 0.500000
v -0.500000 0.500000 -0.500000
vn 0.000000 -1.000000 0.000000
vn 0.000000 1.000000 0.000000
vn 1.000000 0.000000 0.000000
vn -0.000000 -0.000000 1.000000
vn -1.000000 -0.000000 -0.000000
vn 0.000000 0.000000 -1.000000
usemtl Material
s off
f 17//13 18//13 19//13 20//13
f 21//14 24//14 23//14 22//14
f 17//15 21//15 22//15 18//15
f 18//16 22//16 23//16 19//16
f 19//17 23//17 24//17 20//17
f 21//18 17//18 20//18 24//18
