# Blender v2.76 (sub 2) OBJ File: 'dishwasher.blend'
# www.blender.org
o Dishwasher_Cube.001
v -0.500000 -0.500000 0.500000
v -0.500000 0.500000 0.500000
v -0.500000 -0.500000 -0.400000
v -0.500000 0.500000 -0.400000
v 0.500000 -0.500000 0.500000
v 0.500000 0.500000 0.500000
v 0.500000 -0.500000 -0.400000
v 0.500000 0.500000 -0.400000
v -0.450122 -0.500000 -0.400000
v -0.450122 0.200000 -0.400000
v -0.450122 -0.500000 -0.450000
v -0.450122 0.200000 -0.450000
v 0.450000 -0.500000 -0.400000
v 0.450000 0.200000 -0.400000
v 0.450000 -0.500000 -0.450000
v 0.450000 0.200000 -0.450000
v -0.450122 0.320000 -0.400000
v -0.450122 0.420000 -0.400000
v -0.450122 0.320000 -0.430000
v -0.450122 0.420000 -0.430000
v 0.450000 0.320000 -0.400000
v 0.450000 0.420000 -0.400000
v 0.450000 0.320000 -0.430000
v 0.450000 0.420000 -0.430000
v -0.430122 0.330000 -0.430000
v -0.430122 0.410000 -0.430000
v -0.430122 0.330000 -0.460000
v -0.430122 0.410000 -0.460000
v -0.330000 0.330000 -0.430000
v -0.330000 0.410000 -0.430000
v -0.330000 0.330000 -0.460000
v -0.330000 0.410000 -0.460000
v -0.310122 0.330000 -0.430000
v -0.310122 0.410000 -0.430000
v -0.310122 0.330000 -0.460000
v -0.310122 0.410000 -0.460000
v -0.210000 0.330000 -0.430000
v -0.210000 0.410000 -0.430000
v -0.210000 0.330000 -0.460000
v -0.210000 0.410000 -0.460000
v -0.190122 0.330000 -0.430000
v -0.190122 0.410000 -0.430000
v -0.190122 0.330000 -0.460000
v -0.190122 0.410000 -0.460000
v -0.090000 0.330000 -0.430000
v -0.090000 0.410000 -0.430000
v -0.090000 0.330000 -0.460000
v -0.090000 0.410000 -0.460000
vt 0.000000 1.000000
vt 0.900000 1.000000
vt 0.900000 0.000000
vt 0.000000 0.000000
vt 1.000000 1.000000
vt 1.000000 0.000000
vt 0.000000 0.900000
vt 1.000000 0.900000
vt 0.900000 0.700000
vt 0.950000 0.700000
vt 0.950000 0.000000
vt 0.049878 0.700000
vt 0.049878 0.000000
vt 0.049878 0.900000
vt 0.049878 0.950000
vt 0.950000 0.950000
vt 0.950000 0.900000
vt 0.930000 0.910000
vt 0.960000 0.910000
vt 0.960000 0.830000
vt 0.930000 0.830000
vt 0.069878 0.910000
vt 0.170000 0.910000
vt 0.170000 0.830000
vt 0.069878 0.830000
vt 0.069878 0.930000
vt 0.069878 0.960000
vt 0.170000 0.960000
vt 0.170000 0.930000
vt 0.189878 0.910000
vt 0.290000 0.910000
vt 0.290000 0.830000
vt 0.189878 0.830000
vt 0.189878 0.930000
vt 0.189878 0.960000
vt 0.290000 0.960000
vt 0.290000 0.930000
vt 0.309878 0.910000
vt 0.410000 0.910000
vt 0.410000 0.830000
vt 0.309878 0.830000
vt 0.309878 0.930000
vt 0.309878 0.960000
vt 0.410000 0.960000
vt 0.410000 0.930000
vt 0.900000 0.920000
vt 0.930000 0.920000
vt 0.930000 0.820000
vt 0.900000 0.820000
vt 0.049878 0.920000
vt 0.950000 0.920000
vt 0.950000 0.820000
vt 0.049878 0.820000
vt 0.049878 0.930000
vt 0.950000 0.930000
vn -1.000000 0.000000 0.000000
vn 0.000000 0.000000 -1.000000
vn 1.000000 0.000000 0.000000
vn 0.000000 0.000000 1.000000
vn 0.000000 -1.000000 0.000000
vn 0.000000 1.000000 0.000000
g Dishwasher_Cube.001_None
s off
f 2/1/1 4/2/1 3/3/1 1/4/1
f 4/1/2 8/5/2 7/6/2 3/4/2
f 8/2/3 6/1/3 5/4/3 7/3/3
f 6/5/4 2/1/4 1/4/4 5/6/4
f 1/4/5 3/7/5 7/8/5 5/6/5
f 6/6/6 8/8/6 4/7/6 2/4/6
f 10/9/1 12/10/1 11/11/1 9/3/1
f 12/12/2 16/10/2 15/11/2 11/13/2
f 16/10/3 14/9/3 13/3/3 15/11/3
f 9/14/5 11/15/5 15/16/5 13/17/5
f 14/17/6 16/16/6 12/15/6 10/14/6
g Dishwasher_Cube.001_None_default_snow.png
f 26/18/1 28/19/1 27/20/1 25/21/1
f 28/22/2 32/23/2 31/24/2 27/25/2
f 32/19/3 30/18/3 29/21/3 31/20/3
f 25/26/5 27/27/5 31/28/5 29/29/5
f 30/29/6 32/28/6 28/27/6 26/26/6
f 34/18/1 36/19/1 35/20/1 33/21/1
f 36/30/2 40/31/2 39/32/2 35/33/2
f 40/19/3 38/18/3 37/21/3 39/20/3
f 33/34/5 35/35/5 39/36/5 37/37/5
f 38/37/6 40/36/6 36/35/6 34/34/6
f 42/18/1 44/19/1 43/20/1 41/21/1
f 44/38/2 48/39/2 47/40/2 43/41/2
f 48/19/3 46/18/3 45/21/3 47/20/3
f 41/42/5 43/43/5 47/44/5 45/45/5
f 46/45/6 48/44/6 44/43/6 42/42/6
g Dishwasher_Cube.001_None_default_steel_block.png
f 18/46/1 20/47/1 19/48/1 17/49/1
f 20/50/2 24/51/2 23/52/2 19/53/2
f 24/47/3 22/46/3 21/49/3 23/48/3
f 17/14/5 19/54/5 23/55/5 21/17/5
f 22/17/6 24/55/6 20/54/6 18/14/6
