# Blender v2.76 (sub 2) OBJ File: 'fridge.blend'
# www.blender.org
o Fridge_Cube.032
v 0.300000 0.900000 -0.450000
v 0.300000 1.200000 -0.450000
v 0.300000 0.900000 -0.500000
v 0.300000 1.200000 -0.500000
v 0.400000 0.900000 -0.450000
v 0.400000 1.200000 -0.450000
v 0.400000 0.900000 -0.500000
v 0.400000 1.200000 -0.500000
v 0.300000 1.250000 -0.450000
v 0.300000 1.250000 -0.500000
v 0.400000 1.250000 -0.500000
v 0.400000 1.250000 -0.450000
v 0.400000 1.200000 -0.390000
v 0.300000 1.200000 -0.390000
v 0.400000 1.250000 -0.390000
v 0.300000 1.250000 -0.390000
v 0.300000 0.850000 -0.500000
v 0.300000 0.850000 -0.450000
v 0.400000 0.850000 -0.500000
v 0.400000 0.850000 -0.450000
v 0.300000 0.900000 -0.390000
v 0.400000 0.900000 -0.390000
v 0.300000 0.850000 -0.390000
v 0.400000 0.850000 -0.390000
v 0.300000 0.100000 -0.450000
v 0.300000 0.500000 -0.450000
v 0.300000 0.100000 -0.500000
v 0.300000 0.500000 -0.500000
v 0.400000 0.100000 -0.450000
v 0.400000 0.500000 -0.450000
v 0.400000 0.100000 -0.500000
v 0.400000 0.500000 -0.500000
v 0.300000 0.550000 -0.450000
v 0.300000 0.550000 -0.500000
v 0.400000 0.550000 -0.500000
v 0.400000 0.550000 -0.450000
v 0.400000 0.500000 -0.390000
v 0.300000 0.500000 -0.390000
v 0.400000 0.550000 -0.390000
v 0.300000 0.550000 -0.390000
v 0.300000 0.050000 -0.500000
v 0.300000 0.050000 -0.450000
v 0.400000 0.050000 -0.500000
v 0.400000 0.050000 -0.450000
v 0.300000 0.100000 -0.390000
v 0.400000 0.100000 -0.390000
v 0.300000 0.050000 -0.390000
v 0.400000 0.050000 -0.390000
v -0.300000 1.300000 0.490000
v -0.300000 1.400000 0.490000
v -0.300000 1.300000 0.420000
v -0.300000 1.400000 0.420000
v 0.300000 1.300000 0.490000
v 0.300000 1.400000 0.490000
v 0.300000 1.300000 0.420000
v 0.300000 1.400000 0.420000
v 0.400000 1.400000 0.420000
v 0.400000 1.300000 0.420000
v 0.400000 1.400000 0.490000
v 0.400000 1.300000 0.490000
v 0.300000 1.200000 0.490000
v 0.300000 1.200000 0.420000
v 0.400000 1.200000 0.490000
v 0.400000 1.200000 0.420000
v 0.300000 1.100000 0.490000
v 0.300000 1.100000 0.420000
v 0.400000 1.100000 0.490000
v 0.400000 1.100000 0.420000
v -0.300000 1.200000 0.490000
v -0.300000 1.200000 0.420000
v -0.300000 1.100000 0.490000
v -0.300000 1.100000 0.420000
v -0.400000 1.200000 0.490000
v -0.400000 1.200000 0.420000
v -0.400000 1.100000 0.490000
v -0.400000 1.100000 0.420000
v -0.300000 1.000000 0.490000
v -0.300000 1.000000 0.420000
v -0.400000 1.000000 0.490000
v -0.400000 1.000000 0.420000
v -0.300000 0.900000 0.490000
v -0.300000 0.900000 0.420000
v -0.400000 0.900000 0.490000
v -0.400000 0.900000 0.420000
v 0.300000 1.000000 0.490000
v 0.300000 1.000000 0.420000
v 0.300000 0.900000 0.490000
v 0.300000 0.900000 0.420000
v 0.400000 1.000000 0.490000
v 0.400000 1.000000 0.420000
v 0.400000 0.900000 0.490000
v 0.400000 0.900000 0.420000
v 0.300000 0.800000 0.490000
v 0.300000 0.800000 0.420000
v 0.400000 0.800000 0.490000
v 0.400000 0.800000 0.420000
v 0.300000 0.700000 0.490000
v 0.300000 0.700000 0.420000
v 0.400000 0.700000 0.490000
v 0.400000 0.700000 0.420000
v -0.300000 0.800000 0.490000
v -0.300000 0.800000 0.420000
v -0.300000 0.700000 0.490000
v -0.300000 0.700000 0.420000
v -0.400000 0.800000 0.490000
v -0.400000 0.800000 0.420000
v -0.400000 0.700000 0.490000
v -0.400000 0.700000 0.420000
v -0.300000 0.600000 0.490000
v -0.300000 0.600000 0.420000
v -0.400000 0.600000 0.490000
v -0.400000 0.600000 0.420000
v -0.400000 1.300000 0.490000
v -0.400000 1.400000 0.490000
v -0.400000 1.400000 0.420000
v -0.400000 1.300000 0.420000
v -0.300000 0.500000 0.490000
v -0.300000 0.500000 0.420000
v 0.300000 0.500000 0.490000
v 0.300000 0.600000 0.490000
v 0.300000 0.500000 0.420000
v 0.300000 0.600000 0.420000
v 0.400000 0.600000 0.420000
v 0.400000 0.500000 0.420000
v 0.400000 0.600000 0.490000
v 0.400000 0.500000 0.490000
v 0.300000 0.400000 0.490000
v 0.300000 0.400000 0.420000
v 0.400000 0.400000 0.490000
v 0.400000 0.400000 0.420000
v 0.300000 0.300000 0.490000
v 0.300000 0.300000 0.420000
v 0.400000 0.300000 0.490000
v 0.400000 0.300000 0.420000
v -0.300000 0.400000 0.490000
v -0.300000 0.400000 0.420000
v -0.300000 0.300000 0.490000
v -0.300000 0.300000 0.420000
v -0.400000 0.400000 0.490000
v -0.400000 0.400000 0.420000
v -0.400000 0.300000 0.490000
v -0.400000 0.300000 0.420000
v -0.300000 0.200000 0.490000
v -0.300000 0.200000 0.420000
v -0.400000 0.200000 0.490000
v -0.400000 0.200000 0.420000
v -0.300000 0.100000 0.490000
v -0.300000 0.100000 0.420000
v -0.400000 0.100000 0.490000
v -0.400000 0.100000 0.420000
v 0.300000 0.200000 0.490000
v 0.300000 0.200000 0.420000
v 0.300000 0.100000 0.490000
v 0.300000 0.100000 0.420000
v 0.400000 0.200000 0.490000
v 0.400000 0.200000 0.420000
v 0.400000 0.100000 0.490000
v 0.400000 0.100000 0.420000
v 0.300000 -0.000000 0.490000
v 0.300000 -0.000000 0.420000
v 0.400000 -0.000000 0.490000
v 0.400000 -0.000000 0.420000
v 0.300000 -0.100000 0.490000
v 0.300000 -0.100000 0.420000
v 0.400000 -0.100000 0.490000
v 0.400000 -0.100000 0.420000
v -0.300000 -0.000000 0.490000
v -0.300000 -0.000000 0.420000
v -0.300000 -0.100000 0.490000
v -0.300000 -0.100000 0.420000
v -0.400000 -0.000000 0.490000
v -0.400000 -0.000000 0.420000
v -0.400000 -0.100000 0.490000
v -0.400000 -0.100000 0.420000
v -0.300000 -0.200000 0.490000
v -0.300000 -0.200000 0.420000
v -0.400000 -0.200000 0.490000
v -0.400000 -0.200000 0.420000
v -0.400000 0.500000 0.490000
v -0.400000 0.500000 0.420000
v -0.300000 -0.300000 0.490000
v -0.300000 -0.300000 0.420000
v 0.300000 -0.300000 0.490000
v 0.300000 -0.200000 0.490000
v 0.300000 -0.300000 0.420000
v 0.300000 -0.200000 0.420000
v 0.400000 -0.200000 0.420000
v 0.400000 -0.300000 0.420000
v 0.400000 -0.200000 0.490000
v 0.400000 -0.300000 0.490000
v -0.400000 -0.300000 0.490000
v -0.400000 -0.300000 0.420000
v -0.500000 -0.500000 0.440000
v -0.500000 1.470000 0.440000
v -0.500000 -0.500000 -0.400000
v -0.500000 1.470000 -0.400000
v 0.500000 -0.500000 0.440000
v 0.500000 1.470000 0.440000
v 0.500000 -0.500000 -0.400000
v 0.500000 1.470000 -0.400000
v -0.500000 0.685000 0.440000
v -0.500000 0.685000 -0.380000
v 0.500000 0.685000 -0.380000
v 0.500000 0.685000 0.440000
v -0.500000 0.734250 0.440000
v -0.500000 0.734250 -0.400000
v 0.500000 0.734250 -0.400000
v 0.500000 0.734250 0.440000
v -0.500000 0.635750 -0.400000
v 0.500000 0.635750 -0.400000
v 0.500000 0.635750 0.440000
v -0.500000 0.635750 0.440000
vt 0.728226 0.714286
vt 0.762198 0.714286
vt 0.762198 0.761905
vt 0.728226 0.761905
vt 0.033972 0.952381
vt 0.000000 0.952381
vt 0.000000 0.904762
vt 0.033972 0.904762
vt 0.048531 0.000000
vt 0.048531 0.047619
vt 0.000000 0.047619
vt 0.000000 0.000000
vt 0.339717 0.000000
vt 0.339717 0.047619
vt 0.830141 0.952381
vt 0.796170 0.952381
vt 0.796170 0.666667
vt 0.830141 0.666667
vt 0.728226 0.428571
vt 0.762198 0.428571
vt 0.000000 0.857143
vt 0.033972 0.857143
vt 0.728226 0.380952
vt 0.762198 0.380952
vt 0.681562 0.425164
vt 0.728226 0.438246
vt 0.714894 0.484033
vt 0.668230 0.470951
vt 0.000000 0.095238
vt 0.048531 0.095238
vt 0.048531 0.142857
vt 0.000000 0.142857
vt 0.198977 0.809524
vt 0.232949 0.809524
vt 0.232949 0.857143
vt 0.198977 0.857143
vt 0.621566 0.457869
vt 0.634899 0.412082
vt 0.864113 0.380952
vt 0.830141 0.380952
vt 0.830141 0.333333
vt 0.864113 0.333333
vt 0.864113 0.666667
vt 0.574903 0.444787
vt 0.588235 0.399000
vt 0.000000 0.809524
vt 0.033972 0.809524
vt 0.714894 0.137361
vt 0.668230 0.124279
vt 0.681562 0.078492
vt 0.728226 0.091574
vt 0.966028 0.333333
vt 1.000000 0.333333
vt 1.000000 0.619048
vt 0.966028 0.619048
vt 0.339717 0.095238
vt 0.339717 0.142857
vt 0.864113 0.714286
vt 0.830141 0.714286
vt 0.388248 0.142857
vt 0.388248 0.190476
vt 0.339717 0.190476
vt 0.388248 0.095238
vt 1.000000 0.666667
vt 0.966028 0.666667
vt 0.966028 0.047619
vt 1.000000 0.047619
vt 0.169858 0.857143
vt 0.203830 0.857143
vt 0.203830 0.904762
vt 0.169858 0.904762
vt 0.621566 0.111197
vt 0.634899 0.065410
vt 0.864113 0.761905
vt 0.830141 0.761905
vt 0.830141 0.285714
vt 0.864113 0.285714
vt 0.388248 0.238095
vt 0.339717 0.238095
vt 0.864113 0.809524
vt 0.830141 0.809524
vt 0.574902 0.098115
vt 0.588235 0.052328
vt 0.048531 0.190476
vt 0.048531 0.238095
vt 0.000000 0.238095
vt 0.000000 0.190476
vt 0.830141 0.000000
vt 0.864113 0.000000
vt 0.541571 0.385918
vt 0.494908 0.372836
vt 0.067943 0.809524
vt 0.067943 0.857143
vt 0.966028 0.000000
vt 1.000000 0.000000
vt 0.528239 0.431705
vt 0.481575 0.418623
vt 0.434912 0.405541
vt 0.448244 0.359754
vt 0.067943 0.904762
vt 0.067943 0.952381
vt 0.266920 0.809524
vt 0.266920 0.857143
vt 0.048531 0.285714
vt 0.000000 0.285714
vt 0.796170 0.380952
vt 0.796170 0.333333
vt 0.048531 0.333333
vt 0.000000 0.333334
vt 0.339717 0.285714
vt 0.339717 0.333333
vt 0.388248 0.392459
vt 0.401580 0.346672
vt 0.932057 0.619048
vt 0.932057 0.666667
vt 0.481575 0.071951
vt 0.528239 0.085033
vt 0.932057 0.333333
vt 0.898085 0.666667
vt 0.932056 0.714286
vt 0.898085 0.714286
vt 0.494908 0.026164
vt 0.541571 0.039246
vt 0.932056 0.761905
vt 0.898085 0.761905
vt 0.388248 0.285714
vt 0.388248 0.333333
vt 0.898085 0.809524
vt 0.898085 0.857143
vt 0.864113 0.857143
vt 0.434911 0.058869
vt 0.448244 0.013082
vt 0.101915 0.857143
vt 0.135887 0.857143
vt 0.135887 0.904762
vt 0.101915 0.904762
vt 0.388248 0.380952
vt 0.339717 0.380952
vt 0.237802 0.857143
vt 0.271774 0.857143
vt 0.271774 0.904762
vt 0.237802 0.904762
vt 0.150446 0.857143
vt 0.150446 0.809524
vt 0.388248 0.000000
vt 0.388248 0.047619
vt 0.830141 1.000000
vt 0.796170 1.000000
vt 0.762198 0.904762
vt 0.728226 0.904762
vt 0.728226 0.857143
vt 0.762198 0.857143
vt 0.048531 0.380952
vt 0.048531 0.428572
vt 0.000000 0.428572
vt 0.000000 0.380953
vt 0.339717 0.428572
vt 0.762198 0.952381
vt 0.762198 0.666667
vt 0.932057 0.047619
vt 0.728226 0.809524
vt 0.762198 0.809524
vt 0.932057 0.000000
vt 0.681562 0.909196
vt 0.728226 0.922278
vt 0.714893 0.968065
vt 0.668230 0.954983
vt 0.000000 0.476191
vt 0.048531 0.476191
vt 0.048531 0.523810
vt 0.000000 0.523810
vt 0.621566 0.941901
vt 0.634899 0.896114
vt 0.830141 0.047619
vt 0.796170 0.047619
vt 0.796170 0.000000
vt 0.574902 0.928819
vt 0.588235 0.883032
vt 0.714894 0.621393
vt 0.668230 0.608311
vt 0.681562 0.562524
vt 0.728226 0.575606
vt 0.898085 0.333333
vt 0.898085 0.619048
vt 0.339717 0.476191
vt 0.339717 0.523810
vt 0.966028 0.714286
vt 0.388248 0.523810
vt 0.388248 0.571429
vt 0.339717 0.571429
vt 0.388248 0.476191
vt 0.898085 0.047619
vt 0.300892 0.857143
vt 0.300892 0.809524
vt 0.621566 0.595229
vt 0.634899 0.549442
vt 0.966028 0.761905
vt 0.762198 0.619048
vt 0.796170 0.619048
vt 0.388248 0.619048
vt 0.339717 0.619048
vt 0.966028 0.809524
vt 0.932057 0.809524
vt 0.574902 0.582147
vt 0.588235 0.536360
vt 0.048531 0.571429
vt 0.048531 0.619048
vt 0.000000 0.619048
vt 0.000000 0.571429
vt 0.762198 0.333333
vt 0.541571 0.869950
vt 0.494908 0.856868
vt 0.101915 0.952381
vt 0.898085 0.000000
vt 0.528239 0.915737
vt 0.481575 0.902655
vt 0.434911 0.889573
vt 0.448244 0.843786
vt 0.101915 0.809524
vt 0.334864 0.809524
vt 0.368835 0.809524
vt 0.368835 0.857143
vt 0.334864 0.857143
vt 0.048531 0.666667
vt 0.000000 0.666667
vt 0.762198 0.047619
vt 0.762198 0.000000
vt 0.048531 0.714286
vt 0.000000 0.714286
vt 0.339717 0.666667
vt 0.339717 0.714286
vt 0.388248 0.876491
vt 0.401580 0.830704
vt 0.864113 0.619048
vt 0.481575 0.555983
vt 0.528239 0.569065
vt 0.494908 0.510196
vt 0.541571 0.523278
vt 0.388248 0.666667
vt 0.388248 0.714286
vt 0.830141 0.857143
vt 0.434911 0.542901
vt 0.448244 0.497115
vt 0.388248 0.761905
vt 0.339717 0.761905
vt 0.388248 0.045787
vt 0.401580 0.000000
vt 0.388248 0.428572
vt 0.762198 1.000000
vt 0.048531 0.761905
vt 0.048531 0.809524
vt 0.000000 0.761905
vt 0.339717 0.809524
vt 0.728226 0.333333
vt 0.728226 0.047619
vt 0.864113 0.047619
vt 0.728226 0.000000
vt 0.388248 0.529819
vt 0.401580 0.484033
vt 0.388248 0.809524
vt 0.513514 0.071429
vt 0.581081 0.071429
vt 0.581081 0.500000
vt 0.513514 0.500000
vt 0.729730 0.071429
vt 0.864865 0.071429
vt 0.864865 0.500000
vt 0.729730 0.500000
vt 0.662162 0.500000
vt 0.662162 0.071428
vt 0.432432 0.571428
vt 0.567568 0.571428
vt 0.567568 1.000000
vt 0.432432 1.000000
vt 0.581081 0.571428
vt 0.513514 0.571428
vt 0.513514 0.000000
vt 0.581081 0.000000
vt 0.148649 0.785714
vt 0.148649 0.714286
vt 0.283784 0.714286
vt 0.283784 0.785714
vt 0.432432 0.071429
vt 0.432432 0.000000
vt 0.729730 0.000000
vt 0.864865 0.000000
vt 0.729730 0.571429
vt 0.662162 0.571429
vt 0.432432 0.800000
vt 0.432432 0.871428
vt 0.297297 0.871428
vt 0.297297 0.800000
vt 0.567568 0.857143
vt 0.567567 0.714286
vt 0.648649 0.714286
vt 0.648649 0.857143
vt 0.283784 0.871428
vt 0.148649 0.871429
vt 0.864865 0.571429
vt 0.662162 0.000000
vt 0.648649 0.571429
vt 0.432433 0.500000
vt 0.297297 0.714286
vt 0.432432 0.714286
vt 0.081081 0.071429
vt 0.148649 0.071429
vt 0.148649 0.642857
vt 0.081081 0.642857
vt 0.432432 0.642857
vt 0.297297 0.642857
vt 0.297297 0.071429
vt 0.216216 0.071429
vt 0.216216 0.642857
vt 1.000000 0.571429
vt 0.081081 0.714286
vt 0.081081 0.000000
vt 0.148649 0.000000
vt 0.000000 0.785714
vt 0.135135 0.714286
vt 0.135135 0.785714
vt 0.000000 0.071429
vt 0.216216 0.000000
vt 0.864865 0.657143
vt 0.864865 0.728571
vt 0.729730 0.728571
vt 0.729730 0.657143
vt 0.729730 0.714286
vt 0.729730 0.857143
vt 0.135135 0.871428
vt 0.000000 0.871429
vt 0.297297 0.000000
vt 0.216216 0.714286
vt 0.000000 0.642857
vt 0.586957 0.061785
vt 1.043478 0.061784
vt 1.043478 0.826599
vt 0.586957 0.826599
vt -0.500000 0.061785
vt 0.043478 0.061784
vt 0.043478 0.826599
vt -0.500000 0.826599
vt 1.500000 0.264815
vt 1.043478 0.264815
vt 1.043478 -0.500000
vt 1.500000 -0.500000
vt -0.043478 1.500000
vt -0.500000 1.500000
vt -0.043478 0.826599
vt 0.413043 0.826599
vt 0.413043 1.500000
vt 0.043478 -0.004545
vt 0.586957 -0.004545
vt 0.586957 0.028619
vt 0.043478 0.028620
vt 1.500000 0.331145
vt 1.043478 0.331145
vt 1.043478 0.297980
vt 1.489130 0.297980
vt -0.500000 -0.004545
vt -0.500000 0.028620
vt 1.043478 -0.004545
vt 1.032609 0.028619
vt 0.586957 -0.500000
vt -0.500000 -0.500000
vt 0.043478 -0.500000
vt 1.500000 0.826599
vn 0.000000 1.000000 0.000000
vn 1.000000 0.000000 0.000000
vn 0.000000 0.000000 1.000000
vn 0.000000 -1.000000 0.000000
vn 0.000000 0.000000 -1.000000
vn -1.000000 0.000000 0.000000
vn 0.000000 -0.376300 -0.926500
vn 0.000000 0.376300 -0.926500
g Fridge_Cube.032_None
s off
f 50/1/1 52/2/1 115/3/1 114/4/1
f 57/5/2 59/6/2 60/7/2 58/8/2
f 54/9/3 53/10/3 60/11/3 59/12/3
f 54/9/3 50/13/3 49/14/3 53/10/3
f 49/15/4 51/16/4 55/17/4 53/18/4
f 54/19/1 56/20/1 52/2/1 50/1/1
f 58/8/2 60/7/2 63/21/2 64/22/2
f 56/20/1 54/19/1 59/23/1 57/24/1
f 55/25/5 56/26/5 57/27/5 58/28/5
f 63/29/3 61/30/3 65/31/3 67/32/3
f 53/33/6 55/34/6 62/35/6 61/36/6
f 55/25/5 58/28/5 64/37/5 62/38/5
f 60/11/3 53/10/3 61/30/3 63/29/3
f 65/39/4 66/40/4 68/41/4 67/42/4
f 66/40/4 65/39/4 71/43/4 72/18/4
f 62/38/5 64/37/5 68/44/5 66/45/5
f 64/22/2 63/21/2 67/46/2 68/47/2
f 70/48/5 72/49/5 76/50/5 74/51/5
f 61/52/1 62/53/1 70/54/1 69/55/1
f 62/38/5 66/45/5 72/49/5 70/48/5
f 65/31/3 61/30/3 69/56/3 71/57/3
f 73/18/6 74/43/6 76/58/6 75/59/6
f 71/57/3 75/60/3 79/61/3 77/62/3
f 71/57/3 69/56/3 73/63/3 75/60/3
f 69/55/1 70/54/1 74/64/1 73/65/1
f 78/53/1 77/52/1 85/66/1 86/67/1
f 72/68/2 71/69/2 77/70/2 78/71/2
f 76/50/5 72/49/5 78/72/5 80/73/5
f 75/59/6 76/58/6 80/74/6 79/75/6
f 82/76/4 81/77/4 83/42/4 84/41/4
f 77/62/3 79/61/3 83/78/3 81/79/3
f 79/75/6 80/74/6 84/80/6 83/81/6
f 80/73/5 78/72/5 82/82/5 84/83/5
f 85/84/3 87/85/3 91/86/3 89/87/3
f 77/62/3 81/79/3 87/85/3 85/84/3
f 81/77/4 82/76/4 88/88/4 87/89/4
f 82/82/5 78/72/5 86/90/5 88/91/5
f 90/47/2 89/92/2 91/93/2 92/22/2
f 86/67/1 85/66/1 89/94/1 90/95/1
f 88/91/5 86/90/5 90/96/5 92/97/5
f 88/91/5 92/97/5 96/98/5 94/99/5
f 96/8/2 95/100/2 99/101/2 100/5/2
f 92/22/2 91/93/2 95/100/2 96/8/2
f 87/34/6 88/102/6 94/103/6 93/35/6
f 91/86/3 87/85/3 93/104/3 95/105/3
f 97/40/4 98/106/4 100/107/4 99/41/4
f 95/105/3 93/104/3 97/108/3 99/109/3
f 97/108/3 93/104/3 101/110/3 103/111/3
f 94/99/5 96/98/5 100/112/5 98/113/5
f 101/114/1 102/55/1 106/65/1 105/115/1
f 98/106/4 97/40/4 103/18/4 104/17/4
f 94/99/5 98/113/5 104/116/5 102/117/5
f 93/118/1 94/52/1 102/55/1 101/114/1
f 105/119/6 106/115/6 108/120/6 107/121/6
f 102/117/5 104/116/5 108/122/5 106/123/5
f 107/121/6 108/120/6 112/124/6 111/125/6
f 103/111/3 101/110/3 105/126/3 107/127/3
f 110/80/4 109/128/4 111/129/4 112/130/4
f 108/122/5 104/116/5 110/131/5 112/132/5
f 104/133/2 103/134/2 109/135/2 110/136/2
f 103/111/3 107/127/3 111/137/3 109/138/3
f 114/139/6 115/140/6 116/141/6 113/142/6
f 52/33/5 51/36/5 116/143/5 115/144/5
f 49/14/3 50/13/3 114/145/3 113/146/3
f 51/16/4 49/15/4 113/147/4 116/148/4
f 123/149/2 125/150/2 126/151/2 124/152/2
f 120/153/3 119/154/3 126/155/3 125/156/3
f 120/153/3 109/138/3 117/157/3 119/154/3
f 117/16/4 118/158/4 121/159/4 119/17/4
f 120/160/1 122/66/1 110/52/1 109/118/1
f 124/152/2 126/151/2 129/161/2 130/162/2
f 122/66/1 120/160/1 125/163/1 123/94/1
f 121/164/5 122/165/5 123/166/5 124/167/5
f 129/168/3 127/169/3 131/170/3 133/171/3
f 119/69/6 121/139/6 128/142/6 127/70/6
f 121/164/5 124/167/5 130/172/5 128/173/5
f 126/155/3 119/154/3 127/169/3 129/168/3
f 131/174/4 132/175/4 134/176/4 133/88/4
f 132/175/4 131/174/4 137/41/4 138/107/4
f 128/173/5 130/172/5 134/177/5 132/178/5
f 130/162/2 129/161/2 133/4/2 134/3/2
f 136/179/5 138/180/5 142/181/5 140/182/5
f 127/183/1 128/118/1 136/114/1 135/184/1
f 128/173/5 132/178/5 138/180/5 136/179/5
f 131/170/3 127/169/3 135/185/3 137/186/3
f 139/115/6 140/65/6 142/187/6 141/120/6
f 137/186/3 141/188/3 145/189/3 143/190/3
f 137/186/3 135/185/3 139/191/3 141/188/3
f 135/184/1 136/114/1 140/115/1 139/119/1
f 144/118/1 143/183/1 151/192/1 152/160/1
f 138/193/2 137/103/2 143/102/2 144/194/2
f 142/181/5 138/180/5 144/195/5 146/196/5
f 141/120/6 142/187/6 146/197/6 145/124/6
f 148/198/4 147/199/4 149/17/4 150/159/4
f 143/190/3 145/189/3 149/200/3 147/201/3
f 145/124/6 146/197/6 150/202/6 149/203/6
f 146/196/5 144/195/5 148/204/5 150/205/5
f 151/206/3 153/207/3 157/208/3 155/209/3
f 143/190/3 147/201/3 153/207/3 151/206/3
f 147/199/4 148/198/4 154/210/4 153/107/4
f 148/204/5 144/195/5 152/211/5 154/212/5
f 156/213/2 155/101/2 157/100/2 158/136/2
f 152/160/1 151/192/1 155/214/1 156/163/1
f 154/212/5 152/211/5 156/215/5 158/216/5
f 154/212/5 158/216/5 162/217/5 160/218/5
f 162/133/2 161/93/2 165/92/2 166/219/2
f 158/136/2 157/100/2 161/93/2 162/133/2
f 153/220/6 154/221/6 160/222/6 159/223/6
f 157/208/3 153/207/3 159/224/3 161/225/3
f 163/175/4 164/226/4 166/227/4 165/176/4
f 161/225/3 159/224/3 163/228/3 165/229/3
f 163/228/3 159/224/3 167/230/3 169/231/3
f 160/218/5 162/217/5 166/232/5 164/233/5
f 167/234/1 168/184/1 172/119/1 171/43/1
f 164/226/4 163/175/4 169/107/4 170/210/4
f 160/218/5 164/233/5 170/235/5 168/236/5
f 159/42/1 160/183/1 168/184/1 167/234/1
f 171/43/6 172/119/6 174/121/6 173/58/6
f 168/236/5 170/235/5 174/237/5 172/238/5
f 173/58/6 174/121/6 178/125/6 177/74/6
f 169/231/3 167/230/3 171/239/3 173/240/3
f 176/81/4 175/80/4 177/130/4 178/241/4
f 174/237/5 170/235/5 176/242/5 178/243/5
f 170/71/2 169/135/2 175/134/2 176/68/2
f 169/231/3 173/240/3 177/244/3 175/245/3
f 111/125/6 112/124/6 180/203/6 179/128/6
f 110/131/5 118/246/5 180/247/5 112/132/5
f 117/157/3 109/138/3 111/137/3 179/248/3
f 118/158/4 117/16/4 179/148/4 180/249/4
f 187/223/2 189/193/2 190/194/2 188/220/2
f 184/250/3 183/251/3 190/46/3 189/252/3
f 184/250/3 175/245/3 181/253/3 183/251/3
f 181/210/4 182/254/4 185/255/4 183/226/4
f 184/256/1 186/192/1 176/183/1 175/42/1
f 186/192/1 184/256/1 189/89/1 187/214/1
f 185/143/5 186/133/5 187/219/5 188/144/5
f 185/255/4 188/257/4 190/227/4 183/226/4
f 177/74/6 178/125/6 192/128/6 191/80/6
f 176/242/5 182/258/5 192/259/5 178/243/5
f 181/253/3 175/245/3 177/244/3 191/260/3
f 182/254/4 181/210/4 191/24/4 192/23/4
g Fridge_Cube.032_None_default_steel_block.png
f 2/261/6 4/262/6 3/263/6 1/264/6
f 4/265/5 8/266/5 7/267/5 3/268/5
f 8/268/2 6/269/2 5/270/2 7/265/2
f 6/271/3 2/272/3 1/273/3 5/274/3
f 1/264/6 3/263/6 17/275/6 18/276/6
f 4/262/6 2/261/6 9/277/6 10/278/6
f 12/279/1 11/280/1 10/281/1 9/282/1
f 9/277/6 2/261/6 14/283/6 16/284/6
f 8/266/5 4/265/5 10/285/5 11/286/5
f 6/269/2 8/268/2 11/287/2 12/288/2
f 18/289/4 17/290/4 19/291/4 20/292/4
f 2/293/4 6/294/4 13/295/4 14/296/4
f 12/279/1 9/282/1 16/297/1 15/298/1
f 6/269/2 12/288/2 15/275/2 13/263/2
f 3/268/5 7/267/5 19/299/5 17/287/5
f 20/300/2 5/270/2 22/262/2 24/278/2
f 7/265/2 5/270/2 20/300/2 19/285/2
f 5/301/1 1/295/1 21/294/1 22/272/1
f 1/264/6 18/276/6 23/271/6 21/302/6
f 18/289/4 20/292/4 24/303/4 23/304/4
f 26/305/6 28/306/6 27/307/6 25/308/6
f 28/309/5 32/310/5 31/311/5 27/283/5
f 32/306/2 30/312/2 29/313/2 31/307/2
f 30/286/3 26/95/3 25/314/3 29/299/3
f 25/308/6 27/307/6 41/280/6 42/315/6
f 28/306/6 26/305/6 33/316/6 34/317/6
f 36/318/1 35/229/1 34/319/1 33/320/1
f 33/316/6 26/305/6 38/321/6 40/12/6
f 32/310/5 28/309/5 34/304/5 35/303/5
f 30/312/2 32/306/2 35/317/2 36/322/2
f 42/323/4 41/324/4 43/325/4 44/326/4
f 26/296/4 30/295/4 37/327/4 38/328/4
f 36/318/1 33/320/1 40/329/1 39/330/1
f 30/312/2 36/322/2 39/331/2 37/311/2
f 27/283/5 31/311/5 43/331/5 41/284/5
f 44/332/2 29/313/2 46/310/2 48/303/2
f 31/307/2 29/313/2 44/332/2 43/280/2
f 29/287/1 25/327/1 45/295/1 46/301/1
f 25/308/6 42/315/6 47/229/6 45/333/6
f 42/323/4 44/326/4 48/287/4 47/299/4
g Fridge_Cube.032_None_default_snow.png
f 212/334/6 209/335/6 195/336/6 193/337/6
f 209/338/5 210/339/5 199/340/5 195/341/5
f 210/342/2 211/343/2 197/344/2 199/345/2
f 211/339/3 212/334/3 193/337/3 197/340/3
f 193/346/4 195/347/4 199/341/4 197/348/4
f 198/348/1 200/349/1 196/350/1 194/346/1
f 208/351/3 205/352/3 201/353/3 204/354/3
f 207/355/2 208/356/2 204/357/2 203/358/2
f 206/359/7 207/351/7 203/354/7 202/360/7
f 205/352/6 206/361/6 202/362/6 201/353/6
f 194/363/6 196/344/6 206/361/6 205/352/6
f 196/364/5 200/365/5 207/351/5 206/359/5
f 200/366/2 198/336/2 208/356/2 207/355/2
f 198/365/3 194/363/3 205/352/3 208/351/3
f 204/354/3 201/353/3 212/334/3 211/339/3
f 203/358/2 204/357/2 211/343/2 210/342/2
f 202/360/8 203/354/8 210/339/8 209/338/8
f 201/353/6 202/362/6 209/335/6 212/334/6
