# Blender v2.75 (sub 4) OBJ File: 'hedge.blend'
# www.blender.org
o Cube.003_Cube.004
v 0.200001 0.362120 -0.200194
v 0.200000 0.362120 0.200194
v 0.500000 0.362120 0.200194
v 0.500000 0.362120 -0.200194
v 0.200000 -0.362120 -0.200194
v 0.500000 -0.362120 -0.200194
v 0.500000 -0.362120 0.200194
v 0.200000 -0.362120 0.200194
v -0.199999 0.362120 -0.200194
v -0.200000 0.362120 0.200194
v -0.200000 -0.362119 -0.200194
v -0.200000 -0.362119 0.200193
v 0.200001 0.362120 -0.500194
v 0.200000 -0.362120 -0.500194
v -0.199999 0.362120 -0.500194
v -0.199999 -0.362119 -0.500194
vt 0.538609 0.552877
vt 0.538609 -0.007193
vt 0.958253 -0.007192
vt 0.958253 0.552877
vt 0.486239 -0.006131
vt 0.486239 0.988286
vt 0.074325 0.988286
vt 0.074325 -0.006131
vt 0.004137 0.169138
vt 0.990568 0.169138
vt 0.990568 0.714476
vt 0.004137 0.714476
vt 0.006403 0.983527
vt 0.006404 -0.003244
vt 0.415151 -0.003244
vt 0.415151 0.983527
vt 0.960148 -0.003244
vt 0.960148 0.983527
vt 1.006353 0.560742
vt -0.026901 0.560742
vt -0.026901 -0.010481
vt 1.006353 -0.010481
vt -0.020918 0.552877
vt -0.020918 -0.007193
vt 0.989605 0.889084
vt -0.004597 0.889084
vt -0.004597 0.339982
vt 0.989605 0.339982
vt 1.006353 0.988744
vt -0.026901 0.988744
vt 0.898154 -0.006131
vt 0.898154 0.988286
vt 0.538609 0.972521
vt -0.020918 0.972521
vt 0.549401 0.565009
vt 0.549401 0.991821
vt -0.020235 0.991821
vt -0.020235 0.565009
vt 0.549401 -0.004075
vt 0.976213 -0.004075
vt 0.976213 0.565009
vt -0.020235 -0.004075
vn 0.301500 0.904500 -0.301500
vn 0.000000 0.707100 0.707100
vn 0.577400 0.577400 0.577400
vn 0.577400 0.577400 -0.577300
vn 0.301500 -0.904500 -0.301500
vn 0.577400 -0.577400 -0.577400
vn 0.577300 -0.577400 0.577400
vn -0.000000 -0.707100 0.707100
vn -0.577400 0.577400 0.577300
vn -0.577400 -0.577300 0.577300
vn -0.707100 0.707100 -0.000000
vn -0.707100 -0.707100 -0.000000
vn 0.577400 0.577300 -0.577300
vn 0.577400 -0.577400 -0.577300
vn -0.577400 -0.577400 -0.577400
vn -0.577300 0.577400 -0.577400
s 1
f 1/1/1 2/2/2 3/3/3 4/4/4
f 5/5/5 1/6/1 4/7/4 6/8/6
f 6/9/6 4/10/4 3/11/3 7/12/7
f 7/13/7 3/14/3 2/15/2 8/16/8
f 8/16/8 2/15/2 10/17/9 12/18/10
f 9/19/11 11/20/12 12/21/10 10/22/9
f 2/2/2 1/1/1 9/23/11 10/24/9
f 13/25/13 14/26/14 16/27/15 15/28/16
f 11/20/12 9/19/11 15/29/16 16/30/15
f 1/6/1 5/5/5 14/31/14 13/32/13
f 9/23/11 1/1/1 13/33/13 15/34/16
f 5/35/5 6/36/6 7/37/7 8/38/8
f 5/35/5 11/39/12 16/40/15 14/41/14
f 5/35/5 8/38/8 12/42/10 11/39/12
