# Blender v2.78 (sub 0) OBJ File: 'lamp_floor.blend'
# www.blender.org
mtllib FM_lamp_floor.mtl
o nodebox6
v 0.170617 1.597023 -0.142759
v 0.170617 1.597022 0.136809
v 0.170617 1.669289 0.136809
v 0.170617 1.669289 -0.142759
v -0.170617 1.597023 -0.142759
v -0.170617 1.597022 0.136809
v -0.170617 1.669289 0.136809
v -0.170617 1.669289 -0.142759
vt 0.0000 0.6667
vt 1.0000 0.6667
vt 1.0000 0.7500
vt -0.0000 0.7500
vt 0.0000 0.6667
vt 1.0000 0.6667
vt 1.0000 0.7292
vt 0.0000 0.7292
vt 1.0000 0.6667
vt 1.0000 0.7500
vt -0.0000 0.7500
vt 1.0000 0.7292
vt 0.0000 0.7292
vt 0.0000 0.6667
vt 0.0000 0.0000
vt 1.0000 0.0000
vt 1.0000 1.0000
vt 0.0000 1.0000
vt 1.0000 0.6667
vt 1.0000 1.0000
vt 0.0000 1.0000
vt 0.0000 0.6667
vn -1.0000 0.0000 0.0000
vn 0.0000 -0.0000 1.0000
vn 0.0000 -1.0000 -0.0000
usemtl none
s 1
f 1/1/1 2/2/1 3/3/1 4/4/1
f 5/5/1 6/6/1 7/7/1 8/8/1
f 1/9/2 4/10/2 8/11/2 5/5/2
f 2/2/2 3/12/2 7/13/2 6/14/2
f 1/15/3 2/16/3 6/17/3 5/18/3
f 4/19/3 3/20/3 7/21/3 8/22/3
o nodebox3
v 0.411730 1.280994 -0.353798
v 0.411730 1.280993 0.356507
v 0.411730 1.434445 0.356507
v 0.411730 1.434446 -0.353798
v -0.411730 1.280994 -0.353798
v -0.411730 1.280993 0.356507
v -0.411730 1.434445 0.356507
v -0.411730 1.434446 -0.353798
vt 1.0000 0.6667
vt 0.0000 0.6667
vt 0.0000 0.7292
vt 1.0000 0.7292
vt 0.0000 0.6667
vt 1.0000 0.6667
vt 1.0000 0.7292
vt 0.0000 0.7292
vt 1.0000 0.6667
vt 1.0000 0.7292
vt 0.0000 0.7292
vt 0.0000 0.6667
vt 1.0000 1.0000
vt -0.0000 1.0000
vt 1.0000 0.6667
vt 1.0000 1.0000
vt 0.0000 1.0000
vt 0.0000 0.6667
vn -1.0000 0.0000 0.0000
vn 0.0000 -0.0000 1.0000
vn 0.0000 -1.0000 -0.0000
usemtl none
s 1
f 9/23/4 10/24/4 11/25/4 12/26/4
f 13/27/4 14/28/4 15/29/4 16/30/4
f 9/23/5 12/26/5 16/30/5 13/27/5
f 10/31/5 11/32/5 15/33/5 14/34/5
f 9/23/6 10/35/6 14/36/6 13/27/6
f 12/37/6 11/38/6 15/39/6 16/40/6
o nodebox5
v 0.217557 1.524757 -0.206155
v 0.217557 1.524756 0.202698
v 0.217557 1.597022 0.202698
v 0.217557 1.597023 -0.206155
v -0.217557 1.524757 -0.206155
v -0.217557 1.524756 0.202698
v -0.217557 1.597022 0.202698
v -0.217557 1.597023 -0.206155
vt 0.0000 0.6667
vt 1.0000 0.6667
vt 1.0000 0.7500
vt 0.0000 0.7500
vt 0.0000 0.6667
vt 1.0000 0.6667
vt 1.0000 0.7292
vt 0.0000 0.7292
vt 1.0000 0.6667
vt 1.0000 0.7292
vt 1.0000 0.7292
vt 0.0000 0.7292
vt 0.0000 0.6667
vt 0.0000 0.0000
vt 1.0000 0.0000
vt 1.0000 1.0000
vt 0.0000 1.0000
vt 1.0000 0.6667
vt 1.0000 1.0000
vt 0.0000 1.0000
vt 0.0000 0.6667
vn -1.0000 0.0000 0.0000
vn 0.0000 -0.0000 1.0000
vn 0.0000 -1.0000 -0.0000
usemtl none
s 1
f 17/41/7 18/42/7 19/43/7 20/44/7
f 21/45/7 22/46/7 23/47/7 24/48/7
f 17/49/8 20/50/8 24/48/8 21/45/8
f 18/42/8 19/51/8 23/52/8 22/53/8
f 17/54/9 18/55/9 22/56/9 21/57/9
f 20/58/9 19/59/9 23/60/9 24/61/9
o nodebox4
v 0.304799 1.397006 -0.271594
v 0.304799 1.397005 0.269894
v 0.304799 1.531787 0.269894
v 0.304799 1.531788 -0.271594
v -0.304799 1.397006 -0.271594
v -0.304799 1.397005 0.269894
v -0.304799 1.531787 0.269894
v -0.304799 1.531788 -0.271594
vt 0.0000 0.6667
vt 1.0000 0.6667
vt 1.0000 0.7292
vt 0.0000 0.7292
vt 0.0000 0.6667
vt 1.0000 0.6667
vt 1.0000 0.7292
vt 0.0000 0.7292
vt 1.0000 0.6667
vt 1.0000 0.7292
vt 0.0000 0.7292
vt 0.0000 0.6667
vt 0.0000 0.0000
vt 1.0000 0.0000
vt 1.0000 1.0000
vt 0.0000 1.0000
vt 1.0000 0.6667
vt 1.0000 1.0000
vt -0.0000 1.0000
vt 0.0000 0.6667
vn -1.0000 0.0000 0.0000
vn 0.0000 -0.0000 1.0000
vn 0.0000 -1.0000 -0.0000
usemtl none
s 1
f 25/62/10 26/63/10 27/64/10 28/65/10
f 29/66/10 30/67/10 31/68/10 32/69/10
f 25/70/11 28/71/11 32/69/11 29/66/11
f 26/63/11 27/64/11 31/72/11 30/73/11
f 25/74/12 26/75/12 30/76/12 29/77/12
f 28/78/12 27/79/12 31/80/12 32/81/12
o Cube.001
v 0.081006 -0.424358 -0.052853
v 0.081006 -0.424358 0.052853
v -0.081006 -0.424358 0.052853
v -0.081006 -0.424358 -0.052853
v 0.081006 1.641402 -0.052853
v 0.081006 1.641402 0.052853
v -0.081006 1.641402 0.052853
v -0.081006 1.641402 -0.052853
vt 0.0000 0.0000
vt 1.0000 0.0000
vt 1.0000 1.0000
vt 0.0000 1.0000
vt 0.0000 0.0000
vt 1.0000 0.0000
vt 1.0000 1.0000
vt 0.0000 1.0000
vt 0.1875 0.0208
vt 0.1875 0.3333
vt 0.0000 0.3333
vt -0.0000 0.0208
vt 0.1875 0.0000
vt 0.1875 0.3333
vt 0.0000 0.3333
vt -0.0000 0.0000
vt 0.1875 0.0000
vt 0.1875 0.3333
vt 0.0000 0.3333
vt -0.0000 0.0000
vt 0.2500 0.0000
vt 0.2500 0.3333
vt 0.0000 0.3333
vt 0.0000 -0.0000
vn 0.0000 -1.0000 0.0000
vn 0.0000 1.0000 0.0000
vn 1.0000 0.0000 0.0000
vn -0.0000 -0.0000 1.0000
vn -1.0000 -0.0000 -0.0000
vn 0.0000 0.0000 -1.0000
usemtl Material
s off
f 33/82/13 34/83/13 35/84/13 36/85/13
f 37/86/14 40/87/14 39/88/14 38/89/14
f 33/90/15 37/91/15 38/92/15 34/93/15
f 34/94/16 38/95/16 39/96/16 35/97/16
f 35/98/17 39/99/17 40/100/17 36/101/17
f 37/102/18 33/103/18 36/104/18 40/105/18
o Cube
v 0.500925 -0.482200 -0.446345
v 0.500925 -0.482200 0.446345
v -0.500925 -0.482200 0.446345
v -0.500925 -0.482200 -0.446346
v 0.500925 -0.405235 -0.446345
v 0.500925 -0.405235 0.446346
v -0.500925 -0.405235 0.446345
v -0.500925 -0.405235 -0.446345
vt 1.0000 0.6667
vt -0.0000 0.6667
vt 0.0000 0.3333
vt 1.0000 0.3333
vt 1.0000 0.6667
vt 0.0000 0.6667
vt 0.0000 0.3333
vt 1.0000 0.3333
vt 1.0000 0.3333
vt 1.0000 0.3958
vt 0.0000 0.3958
vt 0.0000 0.3333
vt 1.0000 0.3333
vt 1.0000 0.3958
vt 0.0000 0.3958
vt 1.0000 0.3958
vt 0.0000 0.3958
vt -0.0000 0.3333
vn 0.0000 -1.0000 -0.0000
vn 0.0000 1.0000 0.0000
vn 1.0000 0.0000 0.0000
vn -0.0000 -0.0000 1.0000
vn -1.0000 -0.0000 -0.0000
vn 0.0000 0.0000 -1.0000
usemtl Material
s off
f 41/106/19 42/107/19 43/108/19 44/109/19
f 45/110/20 48/111/20 47/112/20 46/113/20
f 41/114/21 45/115/21 46/116/21 42/117/21
f 42/118/22 46/119/22 47/120/22 43/108/22
f 43/108/23 47/120/23 48/121/23 44/109/23
f 45/122/24 41/123/24 44/109/24 48/121/24
