# Blender v2.76 (sub 2) OBJ File: 'microwave.blend'
# www.blender.org
o Microwave_Cube.002
v 0.450000 -0.495086 0.459119
v 0.450000 -0.095086 0.459119
v -0.450000 -0.495086 0.459119
v -0.450000 -0.095086 0.459119
v 0.450000 -0.495086 -0.140881
v 0.450000 -0.095086 -0.140881
v -0.450000 -0.495086 -0.140881
v -0.450000 -0.095086 -0.140881
v 0.450000 -0.145086 0.459119
v -0.450000 -0.145086 0.459119
v -0.450000 -0.145086 -0.140881
v 0.450000 -0.145086 -0.140881
v -0.450000 -0.445086 0.459119
v -0.450000 -0.445086 -0.140881
v 0.450000 -0.445086 -0.140881
v 0.450000 -0.445086 0.459119
v 0.390000 -0.095086 0.459119
v -0.250000 -0.095086 0.459119
v -0.250000 -0.495086 0.459119
v 0.390000 -0.495086 0.459119
v -0.250000 -0.095086 -0.140881
v 0.390000 -0.095086 -0.140881
v 0.390000 -0.495086 -0.140881
v -0.250000 -0.495086 -0.140881
v 0.390000 -0.145086 -0.140881
v -0.250000 -0.145086 -0.140881
v -0.250000 -0.145086 0.459119
v 0.390000 -0.145086 0.459119
v 0.390000 -0.445086 -0.140881
v -0.250000 -0.445086 -0.140881
v -0.250000 -0.445086 0.459119
v 0.390000 -0.445086 0.459119
vt 0.750000 0.952381
vt 1.000000 0.952381
vt 1.000000 1.000000
vt 0.750000 1.000000
vt 0.000000 0.904762
vt 1.000000 0.904762
vt 0.000000 1.000000
vt 0.062500 0.690476
vt 0.000000 0.690476
vt 0.000000 0.619048
vt 0.062500 0.619048
vt 1.000000 0.690476
vt 1.000000 0.619048
vt 0.750000 0.619048
vt 0.000000 0.809524
vt 1.000000 0.809524
vt 0.062500 1.000000
vt 0.000000 0.928571
vt 0.062500 0.928571
vt 0.750000 0.690476
vt 0.062500 0.952381
vt 0.000000 0.952381
vt 0.812500 0.000000
vt 0.812500 0.238095
vt 0.187500 0.238095
vt 0.187500 0.000000
vt 0.000000 0.238095
vt 1.000000 0.238095
vt 1.000000 0.000000
vt 1.000000 0.928571
vt 0.000000 0.976190
vt 1.000000 0.976190
vt -0.000000 0.000000
vn 0.000000 0.000000 1.000000
vn -1.000000 0.000000 -0.000000
vn 0.000000 0.000000 -1.000000
vn 1.000000 0.000000 0.000000
vn 0.000000 -1.000000 0.000000
vn 0.000000 1.000000 -0.000000
g Microwave_Cube.002_None
s off
f 31/1/1 13/2/1 3/3/1 19/4/1
f 13/5/2 14/6/2 7/3/2 3/7/2
f 29/8/3 15/9/3 5/10/3 23/11/3
f 15/12/4 16/9/4 1/10/4 5/13/4
f 19/14/5 3/13/5 7/3/5 24/4/5
f 21/15/6 8/10/6 4/13/6 18/16/6
f 6/3/4 2/7/4 9/5/4 12/6/4
f 22/17/3 6/7/3 12/18/3 25/19/3
f 4/10/2 8/13/2 11/12/2 10/9/2
f 18/14/1 4/13/1 10/12/1 27/20/1
f 12/6/4 9/5/4 16/9/4 15/12/4
f 25/19/3 12/18/3 15/9/3 29/8/3
f 10/9/2 11/12/2 14/6/2 13/5/2
f 27/20/1 10/12/1 13/2/1 31/1/1
f 9/9/1 28/8/1 32/21/1 16/22/1
f 28/8/1 27/20/1 31/1/1 32/21/1
f 11/23/3 26/24/3 30/25/3 14/26/3
f 26/13/3 25/10/3 29/27/3 30/28/3
f 2/10/1 17/11/1 28/8/1 9/9/1
f 17/11/1 18/14/1 27/20/1 28/8/1
f 8/29/3 21/28/3 26/24/3 11/23/3
f 21/3/3 22/17/3 25/19/3 26/30/3
f 6/7/6 22/31/6 17/32/6 2/3/6
f 22/31/6 21/15/6 18/16/6 17/32/6
f 1/10/5 20/11/5 23/17/5 5/7/5
f 20/11/5 19/14/5 24/4/5 23/17/5
f 14/26/3 30/25/3 24/27/3 7/33/3
f 30/12/3 29/8/3 23/11/3 24/13/3
f 16/22/1 32/21/1 20/17/1 1/7/1
f 32/21/1 31/1/1 19/4/1 20/17/1
