# Blender v2.76 (sub 2) OBJ File: 'oven.blend'
# www.blender.org
o Oven_Cube.009
v -0.500000 -0.495000 0.496330
v -0.500000 0.500000 0.496330
v -0.500000 -0.495000 -0.500000
v -0.500000 0.500000 -0.500000
v 0.500000 -0.495000 0.496330
v 0.500000 0.500000 0.496330
v 0.500000 -0.495000 -0.500000
v 0.500000 0.500000 -0.500000
v -0.283333 0.500000 -0.500000
v 0.283333 0.500000 -0.500000
v 0.283333 -0.495000 -0.500000
v -0.283333 -0.495000 -0.500000
v 0.283333 0.500000 0.496330
v -0.283333 0.500000 0.496330
v -0.283333 -0.495000 0.496330
v 0.283333 -0.495000 0.496330
v -0.500000 -0.283333 0.496330
v -0.500000 0.283333 0.496330
v -0.500000 0.283333 -0.500000
v -0.500000 -0.283333 -0.500000
v 0.500000 0.283333 -0.500000
v 0.500000 -0.283333 -0.500000
v 0.500000 0.283333 0.496330
v 0.500000 -0.283333 0.496330
v 0.283333 0.283333 0.496330
v 0.283333 -0.283333 0.496330
v -0.283333 0.283333 0.496330
v -0.283333 -0.283333 0.496330
v -0.368333 0.368333 -0.500000
v -0.368333 -0.368333 -0.500000
v 0.368333 0.368333 -0.500000
v 0.368333 -0.368333 -0.500000
v -0.500000 0.500000 0.300000
v -0.500000 -0.495000 0.300000
v 0.500000 0.500000 0.300000
v 0.500000 -0.495000 0.300000
v 0.283333 0.500000 0.300000
v -0.283333 0.500000 0.300000
v -0.283333 -0.495000 0.300000
v 0.283333 -0.495000 0.300000
v 0.500000 0.283333 0.300000
v 0.500000 -0.283333 0.300000
v -0.500000 0.283333 0.300000
v -0.500000 -0.283333 0.300000
v 0.450000 0.700000 0.350000
v 0.450000 0.700000 0.496330
v -0.283333 0.700000 0.496330
v -0.450000 0.700000 0.496330
v 0.283333 0.700000 0.496330
v 0.283333 0.700000 0.350000
v -0.283333 0.700000 0.350000
v -0.450000 0.700000 0.350000
v -0.310000 0.500000 -0.160000
v -0.300000 0.530000 -0.170000
v -0.310000 0.500000 -0.380000
v -0.300000 0.530000 -0.370000
v -0.090000 0.500000 -0.160000
v -0.100000 0.530000 -0.170000
v -0.090000 0.500000 -0.380000
v -0.100000 0.530000 -0.370000
v 0.090000 0.500000 -0.160000
v 0.100000 0.530000 -0.170000
v 0.090000 0.500000 -0.380000
v 0.100000 0.530000 -0.370000
v 0.310000 0.500000 -0.160000
v 0.300000 0.530000 -0.170000
v 0.310000 0.500000 -0.380000
v 0.300000 0.530000 -0.370000
v -0.310000 0.500000 0.180000
v -0.300000 0.530000 0.170000
v -0.310000 0.500000 -0.040000
v -0.300000 0.530000 -0.030000
v -0.090000 0.500000 0.180000
v -0.100000 0.530000 0.170000
v -0.090000 0.500000 -0.040000
v -0.100000 0.530000 -0.030000
v 0.090000 0.500000 0.180000
v 0.100000 0.530000 0.170000
v 0.090000 0.500000 -0.040000
v 0.100000 0.530000 -0.030000
v 0.310000 0.500000 0.180000
v 0.300000 0.530000 0.170000
v 0.310000 0.500000 -0.040000
v 0.300000 0.530000 -0.030000
v -0.473591 -0.227597 0.473591
v 0.473591 -0.227597 0.473591
v -0.473591 -0.227597 -0.473591
v 0.473591 -0.227597 -0.473591
v -0.473591 0.127597 0.473591
v 0.473591 0.127597 0.473591
v -0.473591 0.127597 -0.473591
v 0.473591 0.127597 -0.473591
v -0.224761 0.526033 0.321575
v -0.224761 0.532728 0.294909
v -0.164139 0.559979 0.330099
v -0.164139 0.566675 0.303433
v -0.164139 0.627872 0.347146
v -0.164139 0.634567 0.320480
v -0.224761 0.661819 0.355669
v -0.224761 0.668514 0.329003
v -0.285383 0.627872 0.347146
v -0.285383 0.634567 0.320480
v -0.285383 0.559979 0.330099
v -0.285383 0.566675 0.303433
v -0.074761 0.526033 0.321575
v -0.074761 0.532728 0.294909
v -0.014139 0.559979 0.330099
v -0.014139 0.566675 0.303433
v -0.014139 0.627872 0.347146
v -0.014139 0.634567 0.320480
v -0.074761 0.661819 0.355669
v -0.074761 0.668514 0.329003
v -0.135383 0.627872 0.347146
v -0.135383 0.634567 0.320480
v -0.135383 0.559979 0.330099
v -0.135383 0.566675 0.303433
v 0.075239 0.526033 0.321575
v 0.075239 0.532728 0.294909
v 0.135861 0.559979 0.330099
v 0.135861 0.566675 0.303433
v 0.135861 0.627872 0.347146
v 0.135861 0.634567 0.320480
v 0.075239 0.661819 0.355669
v 0.075239 0.668514 0.329003
v 0.014617 0.627872 0.347146
v 0.014617 0.634567 0.320480
v 0.014617 0.559979 0.330099
v 0.014617 0.566675 0.303433
v 0.225239 0.526033 0.321575
v 0.225239 0.532728 0.294909
v 0.285861 0.559979 0.330099
v 0.285861 0.566675 0.303433
v 0.285861 0.627872 0.347146
v 0.285861 0.634567 0.320480
v 0.225239 0.661819 0.355669
v 0.225239 0.668514 0.329003
v 0.164617 0.627872 0.347146
v 0.164617 0.634567 0.320480
v 0.164617 0.559979 0.330099
v 0.164617 0.566675 0.303433
vt 0.000100 0.000000
vt 1.000000 0.000000
vt 1.000000 0.999900
vt 0.000100 0.999900
vt -0.000000 0.000100
vt 0.999900 0.000100
vt 0.999900 1.000000
vt -0.000000 1.000000
vt 0.046069 0.045720
vt 0.046069 0.950754
vt 0.000770 0.996006
vt 0.000770 0.000468
vt 0.952041 0.950754
vt 0.997340 0.996006
vt 0.952041 0.045720
vt 0.997340 0.000468
vt 0.045299 0.049268
vt 0.045299 0.954302
vt 0.000000 0.999555
vt 0.000000 0.004016
vt 0.951271 0.954302
vt 0.996569 0.999555
vt 0.951271 0.049268
vt 0.996569 0.004016
vt 0.048237 0.047427
vt 0.048237 0.952461
vt 0.002938 0.997713
vt 0.002938 0.002175
vt 0.954208 0.952461
vt 0.999507 0.997713
vt 0.954208 0.047427
vt 0.999507 0.002175
vt 0.045299 0.045252
vt 0.045299 0.950286
vt 0.000000 0.995538
vt 0.000000 0.000000
vt 0.951271 0.950286
vt 0.996569 0.995538
vt 0.951271 0.045252
vt 0.996569 0.000000
vt 0.154524 0.110402
vt 0.345575 0.220706
vt 0.191150 0.488178
vt 0.000099 0.377875
vt 0.000099 0.598481
vt 0.345575 0.755649
vt 0.154524 0.865953
vt 0.345575 0.976256
vt 0.654425 0.755649
vt 0.654425 0.976256
vt 0.845477 0.865953
vt 0.808850 0.488177
vt 0.999901 0.598480
vt 0.654425 0.220706
vt 0.654425 0.000099
vt 0.345575 0.000099
vt 0.999901 0.377874
vt 0.845476 0.110402
vt 0.198367 0.218573
vt 0.994388 0.218573
vt 0.994388 0.002984
vt 0.198367 0.002984
vt 0.131667 0.132481
vt 0.000000 0.218231
vt 0.000000 0.006987
vt 0.216667 0.005474
vt -0.000638 0.218573
vt -0.000638 0.002984
vt 0.214951 0.218573
vt 0.214951 0.002984
vt 0.778799 0.201990
vt 0.778799 0.998010
vt 0.994388 0.998010
vt 0.994388 0.201990
vt 0.214951 0.201990
vt 0.214951 0.998010
vt -0.000638 0.998010
vt -0.000638 0.201990
vt 0.778799 0.218573
vt 0.778799 0.002984
vt 0.999999 0.211244
vt 0.868333 0.127334
vt 0.783333 0.001514
vt 0.783334 0.994527
vt 0.216668 0.998486
vt 0.131668 0.867676
vt 0.868334 0.862529
vt -0.000638 0.782421
vt 0.198367 0.782421
vt 1.000000 0.993012
vt 1.000000 0.776779
vt 0.214951 0.782421
vt 0.778799 0.782421
vt 0.994388 0.782421
vt 0.198367 0.998010
vt 0.000001 0.783766
vt 0.944637 1.197016
vt 0.778799 1.197016
vt -0.000638 1.197016
vt 0.148616 1.197016
vt 0.778799 0.152238
vt 0.214951 0.152238
vt 0.944637 0.002984
vt 0.944637 0.152238
vt 0.049113 0.152238
vt 0.049113 0.002984
vt 0.214263 0.999772
vt -0.001231 0.999772
vt 0.048498 1.198690
vt 0.214263 1.198690
vt 0.777863 0.999772
vt 0.777863 1.198690
vt 0.214951 1.197016
vt 0.049113 1.197016
vt 0.993357 0.999772
vt 0.943627 1.198690
vt 0.000100 0.000100
vt 0.999900 0.999900
vn 0.000000 1.000000 0.000000
vn -0.948700 0.316200 0.000000
vn 0.000000 0.316200 -0.948700
vn 0.948700 0.316200 0.000000
vn 0.000000 0.316200 0.948700
vn 0.500000 -0.840000 -0.210900
vn 1.000000 0.000000 0.000000
vn 0.500000 0.840000 0.210900
vn -0.500000 0.840000 0.210900
vn 0.000000 0.243500 -0.969900
vn -0.500000 -0.840000 -0.210900
vn -1.000000 0.000000 0.000000
vn 0.000000 0.000000 -1.000000
vn 0.000000 0.000000 1.000000
vn 0.000000 -1.000000 0.000000
vn -0.970100 0.242500 0.000000
vn 0.970100 0.242500 0.000000
vn 0.000000 0.242500 -0.970100
g Oven_Cube.009_Racks
s off
f 85/1/1 86/2/1 88/3/1 87/4/1
f 89/5/1 90/6/1 92/7/1 91/8/1
g Oven_Cube.009_Burners
f 54/9/2 56/10/2 55/11/2 53/12/2
f 56/10/3 60/13/3 59/14/3 55/11/3
f 60/13/4 58/15/4 57/16/4 59/14/4
f 58/15/5 54/9/5 53/12/5 57/16/5
f 58/15/1 60/13/1 56/10/1 54/9/1
f 62/17/2 64/18/2 63/19/2 61/20/2
f 64/18/3 68/21/3 67/22/3 63/19/3
f 68/21/4 66/23/4 65/24/4 67/22/4
f 66/23/5 62/17/5 61/20/5 65/24/5
f 66/23/1 68/21/1 64/18/1 62/17/1
f 70/25/2 72/26/2 71/27/2 69/28/2
f 72/26/3 76/29/3 75/30/3 71/27/3
f 76/29/4 74/31/4 73/32/4 75/30/4
f 74/31/5 70/25/5 69/28/5 73/32/5
f 74/31/1 76/29/1 72/26/1 70/25/1
f 78/33/2 80/34/2 79/35/2 77/36/2
f 80/34/3 84/37/3 83/38/3 79/35/3
f 84/37/4 82/39/4 81/40/4 83/38/4
f 82/39/5 78/33/5 77/36/5 81/40/5
f 82/39/1 84/37/1 80/34/1 78/33/1
f 93/41/6 94/42/6 96/43/6 95/44/6
f 95/45/7 96/43/7 98/46/7 97/47/7
f 97/48/8 98/46/8 100/49/8 99/50/8
f 99/51/9 100/49/9 102/52/9 101/53/9
f 96/43/10 94/42/10 104/54/10 102/52/10 100/49/10 98/46/10
f 103/55/11 104/54/11 94/42/11 93/56/11
f 101/57/12 102/52/12 104/54/12 103/58/12
f 105/41/6 106/42/6 108/43/6 107/44/6
f 107/45/7 108/43/7 110/46/7 109/47/7
f 109/48/8 110/46/8 112/49/8 111/50/8
f 111/51/9 112/49/9 114/52/9 113/53/9
f 108/43/10 106/42/10 116/54/10 114/52/10 112/49/10 110/46/10
f 115/55/11 116/54/11 106/42/11 105/56/11
f 113/57/12 114/52/12 116/54/12 115/58/12
f 117/41/6 118/42/6 120/43/6 119/44/6
f 119/45/7 120/43/7 122/46/7 121/47/7
f 121/48/8 122/46/8 124/49/8 123/50/8
f 123/51/9 124/49/9 126/52/9 125/53/9
f 120/43/10 118/42/10 128/54/10 126/52/10 124/49/10 122/46/10
f 127/55/11 128/54/11 118/42/11 117/56/11
f 125/57/12 126/52/12 128/54/12 127/58/12
f 129/41/6 130/42/6 132/43/6 131/44/6
f 131/45/7 132/43/7 134/46/7 133/47/7
f 133/48/8 134/46/8 136/49/8 135/50/8
f 135/51/9 136/49/9 138/52/9 137/53/9
f 132/43/10 130/42/10 140/54/10 138/52/10 136/49/10 134/46/10
f 139/55/11 140/54/11 130/42/11 129/56/11
f 137/57/12 138/52/12 140/54/12 139/58/12
g Oven_Cube.009_Body
f 44/59/12 20/60/12 3/61/12 34/62/12
f 32/63/13 22/64/13 7/65/13 11/66/13
f 42/59/7 24/67/7 5/68/7 36/62/7
f 28/69/14 17/67/14 1/68/14 15/70/14
f 40/71/15 11/72/15 7/73/15 36/74/15
f 38/75/1 9/76/1 4/77/1 33/78/1
f 35/74/1 8/73/1 10/72/1 37/71/1
f 37/71/1 10/72/1 9/76/1 38/75/1
f 34/78/15 3/77/15 12/76/15 39/75/15
f 39/75/15 12/76/15 11/72/15 40/71/15
f 24/60/14 26/79/14 16/80/14 5/61/14
f 26/79/14 28/69/14 15/70/14 16/80/14
f 20/81/13 30/82/13 12/83/13 3/2/13
f 30/82/13 32/63/13 11/66/13 12/83/13
f 9/84/13 10/85/13 31/86/13 29/87/13
f 18/88/12 43/89/12 44/59/12 17/67/12
f 4/90/13 9/84/13 29/87/13 19/91/13
f 19/91/13 29/87/13 30/82/13 20/81/13
f 13/72/14 14/76/14 27/92/14 25/93/14
f 25/93/14 27/92/14 28/69/14 26/79/14
f 6/73/14 13/72/14 25/93/14 23/94/14
f 23/94/14 25/93/14 26/79/14 24/60/14
f 14/76/14 2/77/14 18/88/14 27/92/14
f 27/92/14 18/88/14 17/67/14 28/69/14
f 35/95/7 6/77/7 23/88/7 41/89/7
f 41/89/7 23/88/7 24/67/7 42/59/7
f 10/85/13 8/8/13 21/96/13 31/86/13
f 31/86/13 21/96/13 22/64/13 32/63/13
f 33/95/12 4/73/12 19/94/12 43/89/12
f 43/89/12 19/94/12 20/60/12 44/59/12
f 2/77/12 33/95/12 43/89/12 18/88/12
f 21/94/7 41/89/7 42/59/7 22/60/7
f 8/73/7 35/95/7 41/89/7 21/94/7
f 15/70/15 39/75/15 40/71/15 16/80/15
f 1/68/15 34/78/15 39/75/15 15/70/15
f 13/72/14 6/73/14 46/97/14 49/98/14
f 33/95/16 2/77/16 48/99/16 52/100/16
f 6/77/17 35/95/17 45/100/17 46/99/17
f 16/80/15 40/71/15 36/74/15 5/61/15
f 22/60/7 42/59/7 36/62/7 7/61/7
f 17/67/12 44/59/12 34/62/12 1/68/12
f 49/80/1 50/101/1 51/102/1 47/70/1
f 46/103/1 45/104/1 50/101/1 49/80/1
f 47/70/1 51/102/1 52/105/1 48/106/1
f 38/107/18 33/108/18 52/109/18 51/110/18
f 37/111/18 38/107/18 51/110/18 50/112/18
f 2/77/14 14/76/14 47/113/14 48/114/14
f 14/76/14 13/72/14 49/98/14 47/113/14
f 35/115/18 37/111/18 50/112/18 45/116/18
g Oven_Cube.009_Glass
f 30/4/13 29/117/13 31/6/13 32/118/13
