# Blender v2.76 (sub 2) OBJ File: 'trashcan.blend'
# www.blender.org
o Cube.002
v 0.031943 0.196240 -0.248731
v 0.031943 0.196240 0.236130
v -0.022482 0.196240 0.236130
v -0.022482 0.196240 -0.248731
v 0.031943 0.223533 -0.248731
v -0.022482 0.223533 -0.248731
v -0.022482 0.223533 0.236130
v 0.031943 0.223533 0.236130
v -0.022482 0.223533 -0.212789
v 0.031943 0.196240 -0.212789
v 0.031943 0.223533 -0.212789
v -0.022482 0.196240 -0.212789
v -0.022482 0.223533 -0.164238
v 0.031943 0.196240 -0.164238
v 0.031943 0.223533 -0.164238
v -0.022482 0.196240 -0.164238
v -0.022482 0.223533 0.198067
v 0.031943 0.196240 0.198067
v 0.031943 0.223533 0.198067
v -0.022482 0.196240 0.198067
v -0.022482 0.196240 0.151363
v -0.022482 0.223533 0.151363
v 0.031943 0.196240 0.151363
v 0.031943 0.223533 0.151363
v -0.022482 0.156288 -0.164238
v -0.022482 0.156288 -0.212789
v 0.031943 0.156288 -0.212789
v 0.031943 0.156288 -0.164238
v 0.031943 0.156288 0.151363
v 0.031943 0.156288 0.198067
v -0.022482 0.156288 0.198067
v -0.022482 0.156288 0.151363
v 0.282877 0.096561 -0.280094
v 0.282877 0.096561 0.293006
v -0.273416 0.096561 0.293006
v -0.273416 0.096561 -0.280094
v 0.282877 0.158992 -0.280094
v -0.273416 0.158992 -0.280094
v -0.273416 0.158992 0.293006
v 0.282877 0.158992 0.293006
v 0.226999 -0.500050 -0.245730
v 0.226999 -0.500050 0.245730
v -0.226999 -0.500050 0.245730
v -0.226998 -0.500050 -0.245730
v 0.226999 0.106618 -0.245730
v -0.226999 0.106618 -0.245730
v -0.226999 0.106618 0.245730
v 0.226998 0.106618 0.245730
vt 0.815868 0.882231
vt 0.772300 0.838664
vt 0.834596 0.776368
vt 0.878163 0.819936
vt 0.697492 0.763856
vt 0.759788 0.701560
vt 0.803356 0.745128
vt 0.741060 0.807423
vt 0.666252 0.795096
vt 0.709820 0.838663
vt 0.320755 0.200048
vt 0.289515 0.231288
vt 0.248376 0.190148
vt 0.279616 0.158908
vt 0.186080 0.252444
vt 0.154840 0.221204
vt 0.217136 0.158908
vt 0.376327 0.255620
vt 0.345087 0.286860
vt 0.154840 0.283684
vt 0.227219 0.293583
vt 0.195979 0.324823
vt 0.113700 0.180064
vt 0.175996 0.117769
vt 0.737570 0.616863
vt 0.706330 0.648103
vt 0.282791 0.349155
vt 0.251551 0.380395
vt 0.644091 0.709500
vt 0.706387 0.647205
vt 0.752117 0.692935
vt 0.689821 0.755231
vt 0.834596 0.713888
vt 0.791028 0.670320
vt 0.612795 0.741638
vt 0.644035 0.710398
vt 0.923893 0.865666
vt 0.861598 0.927961
vt 0.345144 0.285962
vt 0.282848 0.348257
vt 0.620522 0.840826
vt 0.567065 0.787369
vt 0.237118 0.302527
vt 0.299414 0.240232
vt 0.783301 0.571132
vt 0.836758 0.624590
vt 0.205821 0.426126
vt 0.150249 0.370553
vt 0.067970 0.134334
vt 0.130266 0.072038
vt 0.366485 0.154318
vt 0.422057 0.209890
vt 0.001614 1.097808
vt 1.001197 1.097808
vt 1.001197 2.068076
vt 0.001614 2.068076
vt 0.001614 1.000729
vt 0.001613 0.002899
vt 1.001196 0.002898
vt 1.001197 1.000728
vt 1.110087 1.000728
vt 1.110086 0.002898
vt 1.001196 -0.090243
vt 0.001613 -0.090243
vt -0.107277 1.000729
vt -0.107278 0.002900
vt 0.000002 1.000000
vt 0.000000 0.000000
vt 1.000000 0.000000
vt 1.000000 1.000000
vt 0.994674 0.134945
vt 0.673894 0.134945
vt 0.673894 -0.124918
vt 0.994674 -0.124918
vt 0.994676 1.124918
vt 0.673895 1.124918
vt 0.673894 0.884864
vt 0.994675 0.884863
vt 0.994675 1.134863
vt 0.673894 1.134864
vt 0.673894 0.875000
vt 0.994675 0.875000
vt 0.673894 -0.115055
vt 0.994674 -0.115055
vt 0.994675 0.125000
vt 0.673894 0.125000
vn 0.000000 -1.000000 0.000000
vn 0.000000 1.000000 0.000000
vn 1.000000 0.000000 0.000000
vn 0.000000 0.000000 1.000000
vn -1.000000 0.000000 0.000000
vn 0.000000 0.000000 -1.000000
g Cube.002_Cube.002_Material.001
s off
f 18/1/1 2/2/1 3/3/1 20/4/1
f 19/5/2 17/6/2 7/7/2 8/8/2
f 18/9/3 19/5/3 8/8/3 2/10/3
f 2/2/4 8/8/4 7/7/4 3/3/4
f 12/11/5 9/12/5 6/13/5 4/14/5
f 5/15/6 1/16/6 4/17/6 6/13/6
f 16/18/5 13/19/5 9/12/5 12/11/5
f 1/20/3 5/15/3 11/21/3 10/22/3
f 5/15/2 6/13/2 9/12/2 11/21/2
f 1/16/1 10/23/1 12/24/1 4/17/1
f 21/25/5 22/26/5 13/19/5 16/18/5
f 10/22/3 11/21/3 15/27/3 14/28/3
f 11/21/2 9/12/2 13/19/2 15/27/2
f 21/29/6 23/30/6 29/31/6 32/32/6
f 3/33/5 7/7/5 17/6/5 20/34/5
f 23/35/3 24/36/3 19/5/3 18/9/3
f 24/36/2 22/26/2 17/6/2 19/5/2
f 18/1/4 20/4/4 31/37/4 30/38/4
f 14/39/1 23/30/1 21/29/1 16/40/1
f 15/27/2 13/19/2 22/26/2 24/36/2
f 14/28/3 15/27/3 24/36/3 23/35/3
f 20/34/5 17/6/5 22/26/5 21/25/5
f 23/35/3 18/9/3 30/41/3 29/42/3
f 14/39/4 16/40/4 25/43/4 28/44/4
f 20/34/5 21/25/5 32/45/5 31/46/5
f 10/22/3 14/28/3 28/47/3 27/48/3
f 12/24/6 10/23/6 27/49/6 26/50/6
f 16/18/5 12/11/5 26/51/5 25/52/5
f 33/53/1 34/54/1 35/55/1 36/56/1
f 37/57/2 38/58/2 39/59/2 40/60/2
f 33/53/3 37/57/3 40/60/3 34/54/3
f 34/61/4 40/60/4 39/59/4 35/62/4
f 35/63/5 39/59/5 38/58/5 36/64/5
f 37/57/6 33/65/6 36/66/6 38/58/6
f 41/67/1 42/68/1 43/69/1 44/70/1
f 41/71/3 45/72/3 48/73/3 42/74/3
f 42/75/4 48/76/4 47/77/4 43/78/4
f 43/79/5 47/80/5 46/81/5 44/82/5
f 45/83/6 41/84/6 44/85/6 46/86/6
