# Blender v2.76 (sub 2) OBJ File: 'washing_machine.blend'
# www.blender.org
o Washing_Machine_Dishwasher_Cube.001_None_default_snow.png
v -0.450122 0.420000 -0.400000
v -0.450122 0.420000 -0.430000
v -0.450122 0.320000 -0.430000
v -0.450122 0.320000 -0.400000
v 0.450000 0.420000 -0.430000
v 0.450000 0.320000 -0.430000
v 0.450000 0.420000 -0.400000
v 0.450000 0.320000 -0.400000
v -0.430122 0.410000 -0.430000
v -0.430122 0.410000 -0.460000
v -0.430122 0.330000 -0.460000
v -0.430122 0.330000 -0.430000
v -0.330000 0.410000 -0.460000
v -0.330000 0.330000 -0.460000
v -0.330000 0.410000 -0.430000
v -0.330000 0.330000 -0.430000
v -0.310122 0.410000 -0.430000
v -0.310122 0.410000 -0.460000
v -0.310122 0.330000 -0.460000
v -0.310122 0.330000 -0.430000
v -0.210000 0.410000 -0.460000
v -0.210000 0.330000 -0.460000
v -0.210000 0.410000 -0.430000
v -0.210000 0.330000 -0.430000
v -0.190122 0.410000 -0.430000
v -0.190122 0.410000 -0.460000
v -0.190122 0.330000 -0.460000
v -0.190122 0.330000 -0.430000
v -0.090000 0.410000 -0.460000
v -0.090000 0.330000 -0.460000
v -0.090000 0.410000 -0.430000
v -0.090000 0.330000 -0.430000
v 0.325000 -0.091747 -0.396154
v 0.292500 -0.091747 -0.452446
v 0.227500 -0.091747 -0.452446
v 0.195000 -0.091747 -0.396154
v 0.262931 -0.282777 -0.396154
v 0.236638 -0.263674 -0.452446
v 0.184051 -0.225468 -0.452446
v 0.157758 -0.206365 -0.396154
v 0.100431 -0.400840 -0.396154
v 0.090388 -0.369931 -0.452446
v 0.070301 -0.308112 -0.452446
v 0.060258 -0.277203 -0.396154
v -0.100431 -0.400840 -0.396154
v -0.090388 -0.369931 -0.452446
v -0.070301 -0.308112 -0.452446
v -0.060258 -0.277203 -0.396154
v -0.262931 -0.282777 -0.396154
v -0.236638 -0.263674 -0.452446
v -0.184051 -0.225468 -0.452446
v -0.157758 -0.206365 -0.396154
v -0.325000 -0.091747 -0.396154
v -0.292500 -0.091747 -0.452446
v -0.227500 -0.091747 -0.452446
v -0.195000 -0.091747 -0.396154
v -0.262931 0.099283 -0.396154
v -0.236638 0.080180 -0.452446
v -0.184051 0.041974 -0.452446
v -0.157758 0.022871 -0.396154
v -0.100431 0.217347 -0.396154
v -0.090388 0.186437 -0.452446
v -0.070301 0.124619 -0.452446
v -0.060258 0.093709 -0.396154
v 0.100431 0.217347 -0.396154
v 0.090388 0.186437 -0.452446
v 0.070301 0.124619 -0.452446
v 0.060258 0.093709 -0.396154
v 0.262930 0.099284 -0.396154
v 0.236637 0.080181 -0.452446
v 0.184051 0.041974 -0.452446
v 0.157758 0.022871 -0.396154
v -0.500000 0.500000 0.500000
v -0.500000 0.500000 -0.400000
v -0.500000 -0.500000 -0.400000
v -0.500000 -0.500000 0.500000
v 0.500000 0.500000 -0.400000
v 0.500000 -0.500000 -0.400000
v 0.500000 0.500000 0.500000
v 0.500000 -0.500000 0.500000
v -0.207025 -0.297792 -0.400000
v 0.201125 -0.297792 -0.400000
v -0.207025 0.110358 -0.400000
v 0.201125 0.110358 -0.400000
vt 0.083604 0.916396
vt 0.916396 0.916396
vt 0.916396 0.083604
vt 0.083604 0.083604
vt 0.930000 0.910000
vt 0.960000 0.910000
vt 0.960000 0.830000
vt 0.930000 0.830000
vt 0.069878 0.910000
vt 0.170000 0.910000
vt 0.170000 0.830000
vt 0.069878 0.830000
vt 0.069878 0.930000
vt 0.069878 0.960000
vt 0.170000 0.960000
vt 0.170000 0.930000
vt 0.189878 0.910000
vt 0.290000 0.910000
vt 0.290000 0.830000
vt 0.189878 0.830000
vt 0.189878 0.930000
vt 0.189878 0.960000
vt 0.290000 0.960000
vt 0.290000 0.930000
vt 0.309878 0.910000
vt 0.410000 0.910000
vt 0.410000 0.830000
vt 0.309878 0.830000
vt 0.309878 0.930000
vt 0.309878 0.960000
vt 0.410000 0.960000
vt 0.410000 0.930000
vt 0.900000 0.920000
vt 0.930000 0.920000
vt 0.930000 0.820000
vt 0.900000 0.820000
vt 0.049878 0.920000
vt 0.950000 0.920000
vt 0.950000 0.820000
vt 0.049878 0.820000
vt 0.049878 0.900000
vt 0.049878 0.930000
vt 0.950000 0.930000
vt 0.950000 0.900000
vt 0.000000 1.000000
vt 0.900000 1.000000
vt 0.900000 0.000000
vt 0.000000 0.000000
vt 0.000100 0.999900
vt 0.000100 0.000100
vt 0.293017 0.389664
vt 0.293017 0.797732
vt 1.000000 1.000000
vt 1.000000 0.000000
vt 0.000000 0.900000
vt 1.000000 0.900000
vt 0.999900 0.000100
vt 0.999900 0.999900
vt 0.701084 0.797732
vt 0.701084 0.389664
vt 0.952624 0.653913
vt 0.768955 0.902377
vt 0.708634 0.823760
vt 0.857618 0.625120
vt 0.657005 0.750735
vt 0.773740 0.596076
vt 0.604990 0.681775
vt 0.693270 0.570998
vt 0.477158 0.999902
vt 0.473718 0.900935
vt 0.473878 0.812257
vt 0.470612 0.728013
vt 0.182864 0.907294
vt 0.238575 0.825144
vt 0.291122 0.753734
vt 0.338722 0.684285
vt 0.000098 0.657665
vt 0.093842 0.624319
vt 0.178775 0.597823
vt 0.258781 0.570057
vt 0.000098 0.347625
vt 0.095645 0.375956
vt 0.180176 0.404660
vt 0.261662 0.429421
vt 0.182495 0.096558
vt 0.243273 0.175573
vt 0.295010 0.248452
vt 0.346756 0.316321
vt 0.477282 0.000098
vt 0.480207 0.099636
vt 0.479478 0.188873
vt 0.481827 0.273987
vt 0.772124 0.094848
vt 0.716047 0.176947
vt 0.663177 0.248480
vt 0.615358 0.318369
vt 0.954130 0.344846
vt 0.860471 0.377878
vt 0.775770 0.404207
vt 0.696264 0.432032
vn 0.000000 0.000000 -1.000000
vn -1.000000 0.000000 0.000000
vn 1.000000 0.000000 0.000000
vn 0.000000 -1.000000 0.000000
vn 0.000000 1.000000 0.000000
vn 0.000000 -0.000000 1.000000
vn 0.833700 -0.270900 -0.481300
vn -0.833700 0.270900 -0.481300
vn 0.515200 -0.709100 -0.481300
vn -0.515200 0.709100 -0.481300
vn 0.000000 -0.876600 -0.481300
vn 0.000000 0.876600 -0.481300
vn -0.515200 -0.709100 -0.481300
vn 0.515200 0.709100 -0.481300
vn -0.833600 -0.270900 -0.481300
vn 0.833600 0.270900 -0.481300
vn -0.833600 0.270900 -0.481300
vn 0.833600 -0.270900 -0.481300
vn 0.833700 0.270900 -0.481300
vn -0.833700 -0.270900 -0.481300
g Washing_Machine_Dishwasher_Cube.001_None_default_snow.png_None
s off
f 83/1/1 84/2/1 82/3/1 81/4/1
g Washing_Machine_Dishwasher_Cube.001_None_default_snow.png_None_default_acacia_wood.png
f 9/5/2 10/6/2 11/7/2 12/8/2
f 10/9/1 13/10/1 14/11/1 11/12/1
f 13/6/3 15/5/3 16/8/3 14/7/3
f 12/13/4 11/14/4 14/15/4 16/16/4
f 15/16/5 13/15/5 10/14/5 9/13/5
f 17/5/2 18/6/2 19/7/2 20/8/2
f 18/17/1 21/18/1 22/19/1 19/20/1
f 21/6/3 23/5/3 24/8/3 22/7/3
f 20/21/4 19/22/4 22/23/4 24/24/4
f 23/24/5 21/23/5 18/22/5 17/21/5
f 25/5/2 26/6/2 27/7/2 28/8/2
f 26/25/1 29/26/1 30/27/1 27/28/1
f 29/6/3 31/5/3 32/8/3 30/7/3
f 28/29/4 27/30/4 30/31/4 32/32/4
f 31/32/5 29/31/5 26/30/5 25/29/5
g Washing_Machine_Dishwasher_Cube.001_None_default_snow.png_None_default_dry_grass.png
f 1/33/2 2/34/2 3/35/2 4/36/2
f 2/37/1 5/38/1 6/39/1 3/40/1
f 5/34/3 7/33/3 8/36/3 6/35/3
f 4/41/4 3/42/4 6/43/4 8/44/4
f 7/44/5 5/43/5 2/42/5 1/41/5
g Washing_Machine_Dishwasher_Cube.001_None_default_snow.png_None_default_coal_block.png
f 73/45/2 74/46/2 75/47/2 76/48/2
f 75/49/1 74/50/1 83/51/1 81/52/1
f 77/46/3 79/45/3 80/48/3 78/47/3
f 79/53/6 73/45/6 76/48/6 80/54/6
f 76/48/4 75/55/4 78/56/4 80/54/4
f 79/54/5 77/56/5 74/55/5 73/48/5
f 77/57/1 78/58/1 82/59/1 84/60/1
f 74/50/1 77/57/1 84/60/1 83/51/1
f 78/58/1 75/49/1 81/52/1 82/59/1
g Washing_Machine_Dishwasher_Cube.001_None_default_snow.png_None_default_gold_block.png
f 33/61/7 37/62/7 38/63/7 34/64/7
f 34/64/1 38/63/1 39/65/1 35/66/1
f 35/66/8 39/65/8 40/67/8 36/68/8
f 37/62/9 41/69/9 42/70/9 38/63/9
f 38/63/1 42/70/1 43/71/1 39/65/1
f 39/65/10 43/71/10 44/72/10 40/67/10
f 41/69/11 45/73/11 46/74/11 42/70/11
f 42/70/1 46/74/1 47/75/1 43/71/1
f 43/71/12 47/75/12 48/76/12 44/72/12
f 45/73/13 49/77/13 50/78/13 46/74/13
f 46/74/1 50/78/1 51/79/1 47/75/1
f 47/75/14 51/79/14 52/80/14 48/76/14
f 49/77/15 53/81/15 54/82/15 50/78/15
f 50/78/1 54/82/1 55/83/1 51/79/1
f 51/79/16 55/83/16 56/84/16 52/80/16
f 53/81/17 57/85/17 58/86/17 54/82/17
f 54/82/1 58/86/1 59/87/1 55/83/1
f 55/83/18 59/87/18 60/88/18 56/84/18
f 57/85/10 61/89/10 62/90/10 58/86/10
f 58/86/1 62/90/1 63/91/1 59/87/1
f 59/87/9 63/91/9 64/92/9 60/88/9
f 61/89/12 65/93/12 66/94/12 62/90/12
f 62/90/1 66/94/1 67/95/1 63/91/1
f 63/91/11 67/95/11 68/96/11 64/92/11
f 65/93/14 69/97/14 70/98/14 66/94/14
f 66/94/1 70/98/1 71/99/1 67/95/1
f 67/95/13 71/99/13 72/100/13 68/96/13
f 69/97/19 33/61/19 34/64/19 70/98/19
f 70/98/1 34/64/1 35/66/1 71/99/1
f 71/99/20 35/66/20 36/68/20 72/100/20
