# Blender v2.77 (sub 0) OBJ File: 'nightstand.blend'
# www.blender.org
mtllib nightstand.mtl
o Cube_Cube.001
v 0.355439 0.041130 -0.382276
v 0.355439 0.362854 -0.382276
v 0.355439 0.041130 -0.337600
v 0.355439 0.362854 -0.337600
v -0.355439 0.041130 -0.382276
v -0.355439 0.362854 -0.382276
v -0.355439 0.041130 -0.337600
v -0.355439 0.362854 -0.337600
v 0.116264 0.149374 -0.392572
v 0.116264 0.254610 -0.392572
v 0.116264 0.149374 -0.377958
v 0.116264 0.254610 -0.377958
v -0.116264 0.149374 -0.392572
v -0.116264 0.254610 -0.392572
v -0.116264 0.149374 -0.377958
v -0.116264 0.254610 -0.377958
v 0.355439 -0.358870 -0.382276
v 0.355439 -0.037146 -0.382276
v 0.355439 -0.358870 -0.337600
v 0.355439 -0.037146 -0.337600
v -0.355439 -0.358870 -0.382276
v -0.355439 -0.037146 -0.382276
v -0.355439 -0.358870 -0.337600
v -0.355439 -0.037146 -0.337600
v 0.116264 -0.250626 -0.392572
v 0.116264 -0.145390 -0.392572
v 0.116264 -0.250626 -0.377958
v 0.116264 -0.145390 -0.377958
v -0.116264 -0.250626 -0.392572
v -0.116264 -0.145390 -0.392572
v -0.116264 -0.250626 -0.377958
v -0.116264 -0.145390 -0.377958
v 0.409091 -0.500000 -0.342386
v 0.409091 0.500000 -0.342386
v 0.409091 -0.500000 0.478737
v 0.409091 0.500000 0.478737
v -0.409091 -0.500000 -0.342386
v -0.409091 0.500000 -0.342386
v -0.409091 -0.500000 0.478737
v -0.409091 0.500000 0.478737
v 0.450000 -0.400000 -0.342386
v 0.450000 0.400000 -0.342386
v 0.450000 0.400000 0.478737
v 0.450000 -0.400000 0.478737
v -0.450000 0.400000 0.478737
v -0.450000 -0.400000 0.478737
v -0.450000 0.400000 -0.342386
v -0.450000 -0.400000 -0.342386
v -0.500000 -0.400000 0.478737
v -0.500000 -0.500000 0.478737
v -0.500000 0.500000 0.478737
v -0.500000 0.500000 -0.342386
v -0.500000 -0.400000 -0.342386
v -0.500000 -0.500000 -0.342386
v -0.500000 0.400000 0.478737
v -0.500000 0.400000 -0.342386
v 0.500000 0.400000 -0.342386
v 0.500000 0.500000 -0.342386
v 0.500000 0.500000 0.478737
v 0.500000 -0.400000 0.478737
v 0.500000 -0.500000 0.478737
v 0.500000 -0.500000 -0.342386
v 0.500000 -0.400000 -0.342386
v 0.500000 0.400000 0.478737
v 0.409091 0.400000 -0.433622
v 0.409091 0.500000 -0.433622
v -0.409091 -0.400000 -0.433622
v -0.409091 -0.500000 -0.433622
v -0.409091 0.500000 -0.433622
v 0.409091 -0.500000 -0.433622
v 0.409091 -0.400000 -0.433622
v -0.409091 0.400000 -0.433622
v -0.500000 -0.400000 -0.433622
v -0.500000 -0.500000 -0.433622
v -0.500000 0.500000 -0.433622
v -0.500000 0.400000 -0.433622
v 0.500000 0.400000 -0.433622
v 0.500000 0.500000 -0.433622
v 0.500000 -0.500000 -0.433622
v 0.500000 -0.400000 -0.433622
vt 1.9956 -1.0914
vt 2.0444 -1.0914
vt 2.0444 -0.7407
vt 1.9956 -0.7407
vt 2.0444 -0.3899
vt 1.9956 -0.3899
vt 1.9956 -0.7407
vt 2.0444 -0.7407
vt 0.5234 1.4856
vt -0.2544 1.4856
vt -0.2544 1.1341
vt 0.5234 1.1341
vt 0.9985 1.8745
vt 0.9497 1.8745
vt 0.9497 1.0968
vt 0.9985 1.0968
vt 1.9216 1.0968
vt 1.9705 1.0968
vt 1.9705 1.8745
vt 1.9216 1.8745
vt -0.0943 0.5115
vt -0.0783 0.5115
vt -0.0783 0.6262
vt -0.0943 0.6262
vt -0.0943 0.6262
vt -0.0783 0.6262
vt -0.0783 0.7409
vt -0.0943 0.7409
vt 2.0280 1.4087
vt 1.7736 1.4087
vt 1.7736 1.2937
vt 2.0280 1.2937
vt -0.0633 0.0027
vt -0.0474 0.0027
vt -0.0474 0.2571
vt -0.0633 0.2571
vt -0.0624 0.5115
vt -0.0783 0.5115
vt -0.0783 0.2571
vt -0.0624 0.2571
vt 1.9705 1.6056
vt 2.0193 1.6056
vt 2.0193 1.9563
vt 1.9705 1.9563
vt 2.0444 -0.0392
vt 1.9956 -0.0392
vt 1.9956 -0.3899
vt 2.0444 -0.3899
vt 0.5234 1.8372
vt -0.2544 1.8372
vt -0.2544 1.4856
vt 0.5234 1.4856
vt 0.0015 0.7804
vt -0.0474 0.7804
vt -0.0474 0.0027
vt 0.0015 0.0027
vt 1.8728 1.0968
vt 1.9216 1.0968
vt 1.9216 1.8745
vt 1.8728 1.8745
vt -0.0783 0.5115
vt -0.0624 0.5115
vt -0.0624 0.6262
vt -0.0783 0.6262
vt -0.0783 0.6262
vt -0.0624 0.6262
vt -0.0624 0.7409
vt -0.0783 0.7409
vt 2.2824 1.4087
vt 2.0280 1.4087
vt 2.0280 1.2937
vt 2.2824 1.2937
vt -0.0943 0.0027
vt -0.0783 0.0027
vt -0.0783 0.2571
vt -0.0943 0.2571
vt -0.0783 0.5115
vt -0.0943 0.5115
vt -0.0943 0.2571
vt -0.0783 0.2571
vt -0.9821 -1.0367
vt -1.0914 -0.9919
vt -1.0914 -1.0914
vt -0.9821 -1.0914
vt -0.9821 -0.0520
vt -1.0914 -0.0968
vt 1.0982 -0.0520
vt 1.9956 -0.0520
vt 1.9956 0.0027
vt 1.0982 0.0027
vt 1.0982 -1.0914
vt 1.0982 -1.0367
vt 0.9985 -0.9919
vt 0.9985 -1.0914
vt 0.8988 -0.0968
vt 0.0015 -0.0968
vt 0.0015 -0.9919
vt 0.8988 -0.9919
vt 0.1012 0.1022
vt 0.9985 0.1022
vt 0.9985 0.9973
vt 0.1012 0.9973
vt -0.9917 0.0027
vt -0.9917 0.0574
vt -1.0914 0.1022
vt -1.0914 0.0027
vt 1.8828 0.0027
vt 1.8828 0.9874
vt 1.0085 0.9874
vt 1.0085 0.0027
vt 0.8988 0.0027
vt 0.9985 -0.0968
vt 0.9985 0.0027
vt -1.0914 1.9919
vt -1.0914 1.0968
vt -0.2171 1.0968
vt -0.2171 1.9919
vt 0.0015 -0.9919
vt 0.0015 -0.0968
vt -0.1078 -0.0520
vt -0.1078 -1.0367
vt 1.9956 -1.0367
vt 1.9956 -1.0914
vt 0.9985 1.8825
vt 0.9985 0.9874
vt 1.8728 0.9874
vt 1.8728 1.8825
vt 0.8139 2.0914
vt 0.8139 1.1962
vt 0.9232 1.1962
vt 0.9232 2.0914
vt 0.7047 2.0914
vt 0.7047 1.1962
vt 0.8139 1.1962
vt 0.8139 2.0914
vt 0.0015 -1.0914
vt 0.8988 -1.0914
vt 0.5954 1.9919
vt 0.7047 1.9919
vt 0.7047 2.0914
vt 0.5954 2.0914
vt 0.1012 0.0027
vt 0.9985 0.0027
vt 0.0015 0.0027
vt -0.1078 0.0027
vt -0.9821 0.0027
vt -1.0914 0.0027
vt -0.0943 0.0574
vt -0.0943 0.0027
vt 0.4861 1.9919
vt 0.4861 1.0968
vt 0.5954 1.0968
vt 0.5954 1.9919
vt 0.5954 1.0968
vt 0.7047 1.0968
vt 0.9985 -1.0914
vt 0.9985 -0.9919
vt -0.9917 1.0421
vt -0.0943 1.0421
vt -0.0943 1.0968
vt -0.9917 1.0968
vt -0.1078 -1.0914
vt 0.0015 -1.0914
vt 0.0015 0.0027
vt -1.0914 0.9973
vt 0.9985 1.0968
vt 0.1012 1.0968
vt 1.9821 0.1022
vt 1.9821 0.9973
vt 1.8728 0.9973
vt 1.8728 0.1022
vt 2.0914 0.1022
vt 2.0914 0.9973
vt 1.9821 0.9973
vt 1.9821 0.1022
vt 1.8728 0.0027
vt 1.9821 0.0027
vt 1.9821 0.0027
vt 2.0914 0.0027
vt 2.0914 1.0968
vt 1.9821 1.0968
vt 1.9821 1.0968
vt 1.8728 1.0968
vt 0.8139 1.0968
vt 0.9232 1.0968
vt 0.9985 0.0027
vt 0.9985 -0.0968
vt 0.0015 0.9973
vt 0.0015 0.1022
vt 0.7047 1.0968
vt 0.8139 1.0968
vt 0.5954 2.0914
vt 0.4861 2.0914
vt 0.0015 0.0027
vt 0.0015 1.0968
vt -1.0914 1.0968
vn 1.0000 0.0000 0.0000
vn -1.0000 0.0000 0.0000
vn -0.0000 0.0000 -1.0000
vn 0.0000 -1.0000 0.0000
vn 0.0000 1.0000 0.0000
vn 0.0000 0.0000 1.0000
usemtl Material
s off
f 2/1/1 4/2/1 3/3/1 1/4/1
f 8/5/2 6/6/2 5/7/2 7/8/2
f 6/9/3 2/10/3 1/11/3 5/12/3
f 1/13/4 3/14/4 7/15/4 5/16/4
f 6/17/5 8/18/5 4/19/5 2/20/5
f 10/21/1 12/22/1 11/23/1 9/24/1
f 16/25/2 14/26/2 13/27/2 15/28/2
f 14/29/3 10/30/3 9/31/3 13/32/3
f 9/33/4 11/34/4 15/35/4 13/36/4
f 14/37/5 16/38/5 12/39/5 10/40/5
f 18/41/1 20/42/1 19/43/1 17/44/1
f 24/45/2 22/46/2 21/47/2 23/48/2
f 22/49/3 18/50/3 17/51/3 21/52/3
f 17/53/4 19/54/4 23/55/4 21/56/4
f 22/57/5 24/58/5 20/59/5 18/60/5
f 26/61/1 28/62/1 27/63/1 25/64/1
f 32/65/2 30/66/2 29/67/2 31/68/2
f 30/69/3 26/70/3 25/71/3 29/72/3
f 25/73/4 27/74/4 31/75/4 29/76/4
f 30/77/5 32/78/5 28/79/5 26/80/5
f 44/81/6 35/82/6 61/83/6 60/84/6
f 44/81/6 46/85/6 39/86/6 35/82/6
f 47/87/4 45/88/4 55/89/4 56/90/4
f 57/91/4 42/92/4 65/93/4 77/94/4
f 33/95/4 35/96/4 39/97/4 37/98/4
f 38/99/5 40/100/5 36/101/5 34/102/5
f 53/103/5 48/104/5 67/105/5 73/106/5
f 47/107/3 42/108/3 41/109/3 48/110/3
f 62/111/4 33/95/4 70/112/4 79/113/4
f 45/114/2 47/115/2 48/116/2 46/117/2
f 36/118/6 40/119/6 45/120/6 43/121/6
f 43/121/6 45/120/6 46/85/6 44/81/6
f 43/122/4 42/92/4 57/91/4 64/123/4
f 42/124/1 43/125/1 44/126/1 41/127/1
f 49/128/2 53/129/2 54/130/2 50/131/2
f 51/132/2 52/133/2 56/134/2 55/135/2
f 37/98/4 39/97/4 50/136/4 54/137/4
f 58/138/1 57/139/1 77/140/1 78/141/1
f 40/100/5 38/99/5 52/142/5 51/143/5
f 45/120/6 40/119/6 51/144/6 55/145/6
f 39/86/6 46/85/6 49/146/6 50/147/6
f 46/148/5 48/104/5 53/103/5 49/149/5
f 63/150/1 60/151/1 61/152/1 62/153/1
f 58/138/1 59/154/1 64/155/1 57/139/1
f 37/98/4 54/137/4 74/156/4 68/157/4
f 41/158/5 44/159/5 60/160/5 63/161/5
f 36/118/6 43/121/6 64/162/6 59/163/6
f 35/96/4 33/95/4 62/111/4 61/164/4
f 48/104/5 41/158/5 71/165/5 67/105/5
f 34/102/5 36/101/5 59/166/5 58/167/5
f 67/168/3 71/169/3 70/170/3 68/171/3
f 69/172/3 66/173/3 65/174/3 72/175/3
f 67/168/3 68/171/3 74/176/3 73/177/3
f 69/172/3 72/175/3 76/178/3 75/179/3
f 65/174/3 66/173/3 78/180/3 77/181/3
f 70/170/3 71/169/3 80/182/3 79/183/3
f 54/130/2 53/129/2 73/184/2 74/185/2
f 47/87/4 56/90/4 76/186/4 72/187/4
f 38/99/5 34/102/5 66/188/5 69/189/5
f 56/134/2 52/133/2 75/190/2 76/191/2
f 33/95/4 37/98/4 68/157/4 70/112/4
f 63/150/1 62/153/1 79/192/1 80/193/1
f 52/142/5 38/99/5 69/189/5 75/194/5
f 34/102/5 58/167/5 78/195/5 66/188/5
f 41/158/5 63/161/5 80/196/5 71/165/5
f 42/92/4 47/87/4 72/187/4 65/93/4
