# Blender v2.77 (sub 0) OBJ File: ''
# www.blender.org
mtllib shelf.mtl
o Cube.002_Cube.003
v -0.509103 0.484119 0.483627
v -0.509103 0.484119 -0.483626
v -0.509103 0.390795 -0.483626
v -0.509103 0.390794 0.483627
v 0.509103 0.484119 -0.483626
v 0.509103 0.390795 -0.483626
v 0.509103 0.484119 0.483627
v 0.509103 0.390794 0.483627
vt -0.0000 1.0000
vt 0.0000 -0.0000
vt 0.1250 0.0000
vt 0.1250 1.0000
vt 0.0000 0.1250
vt 0.0000 -0.0000
vt 1.0000 0.0000
vt 1.0000 0.1250
vt 0.0000 1.0000
vt -0.0000 0.0000
vt 0.1250 0.0000
vt 0.1250 1.0000
vt 1.0000 0.1250
vt 0.0000 0.1250
vt 0.0001 0.0001
vt 0.9999 0.0001
vt 0.0001 0.9999
vt 0.0001 0.0001
vt 0.9999 0.0001
vt 0.9999 0.9999
vt 0.9999 0.0001
vt 0.9999 0.9999
vt 0.0001 0.9999
vt 0.0001 0.0001
vn -1.0000 0.0000 0.0000
vn 0.0000 0.0000 -1.0000
vn 1.0000 0.0000 0.0000
vn 0.0000 -0.0000 1.0000
vn 0.0000 -1.0000 -0.0000
vn 0.0000 1.0000 0.0000
usemtl None
s 1
f 1/1/1 2/2/1 3/3/1 4/4/1
f 2/5/2 5/6/2 6/7/2 3/8/2
f 5/9/3 7/10/3 8/11/3 6/12/3
f 7/13/4 1/14/4 4/15/4 8/16/4
f 4/17/5 3/18/5 6/19/5 8/20/5
f 7/21/6 5/22/6 2/23/6 1/24/6
o Cube.003_Cube.004
v 0.048811 0.460532 0.484391
v 0.048811 0.460532 -0.486527
v -0.048811 0.459346 -0.486527
v -0.048811 0.459346 0.484391
v -0.048811 -0.479395 -0.486529
v -0.048811 -0.479395 0.484391
v 0.048811 -0.480581 0.484391
v 0.048811 -0.480581 -0.486529
vt 0.0000 0.1250
vt 0.0000 -0.0000
vt 1.0000 0.0000
vt 1.0000 0.1250
vt 0.0001 0.0001
vt 0.9999 0.0001
vt 1.0000 1.0000
vt 0.0000 1.0000
vt 0.0001 0.0001
vt 0.9999 0.0001
vt 1.0000 1.0000
vt 0.0000 1.0000
vt -0.0000 1.0000
vt 0.0000 -0.0000
vt 0.1250 0.0000
vt 0.1250 1.0000
vt -0.0000 0.0000
vt 0.1250 0.0000
vt 0.1250 1.0000
vt -0.0000 1.0000
vn -0.0121 0.9999 0.0000
vn -1.0000 0.0000 0.0000
vn 1.0000 0.0000 0.0000
vn -0.0000 -0.0000 1.0000
vn 0.0000 0.0000 -1.0000
usemtl None
s 1
f 9/25/7 10/26/7 11/27/7 12/28/7
f 12/29/8 11/30/8 13/31/8 14/32/8
f 15/33/9 16/34/9 10/35/9 9/36/9
f 12/37/10 14/38/10 15/39/10 9/40/10
f 11/41/11 10/42/11 16/43/11 13/44/11
o Cube.004_Cube.005
v -0.501667 0.479928 0.048363
v 0.501667 0.479928 0.048363
v 0.501667 0.479928 -0.048363
v -0.501667 0.479928 -0.048363
v 0.501667 -0.474925 0.048363
v 0.501667 -0.474925 -0.048363
v -0.501667 -0.474924 0.048363
v -0.501667 -0.474924 -0.048363
vt 0.0000 0.0000
vt 1.0000 0.0000
vt 1.0000 1.0000
vt 0.0000 1.0000
vt 1.0000 1.0000
vt 0.0000 1.0000
vt 0.0000 -0.0000
vt 1.0000 0.1250
vt 0.0000 0.1250
vt 0.0001 0.0001
vt 0.9999 0.0001
vt 0.0000 1.0000
vt 1.0000 -0.0000
vt 1.0000 1.0000
vt -0.0000 0.0000
vt 1.0000 -0.0000
vt 1.0000 1.0000
vt 0.0000 1.0000
vt 0.0000 0.0000
vt 1.0000 0.0000
vt 1.0000 1.0000
vt 0.0000 1.0000
vn 0.0000 1.0000 0.0000
vn 1.0000 -0.0000 0.0000
vn -0.0000 -1.0000 0.0000
vn -1.0000 -0.0000 0.0000
vn 0.0000 0.0000 -1.0000
vn 0.0000 -0.0000 1.0000
usemtl None
s 1
f 17/45/12 18/46/12 19/47/12 20/48/12
f 18/46/13 21/49/13 22/50/13 19/51/13
f 21/52/14 23/53/14 24/54/14 22/55/14
f 23/56/15 17/45/15 20/57/15 24/58/15
f 20/59/16 19/60/16 22/61/16 24/62/16
f 23/63/17 21/64/17 18/65/17 17/66/17
o Cube.001_Cube.002
v -0.509103 0.017498 0.499103
v -0.509103 0.017498 -0.499103
v -0.509103 -0.075826 -0.499103
v -0.509103 -0.075826 0.499103
v 0.509103 0.017498 -0.499103
v 0.509103 -0.075826 -0.499103
v 0.509103 0.017498 0.499103
v 0.509103 -0.075826 0.499103
vt -0.0000 1.0000
vt 0.0000 -0.0000
vt 0.1250 0.0000
vt 0.1250 1.0000
vt 1.0000 0.0000
vt 1.0000 0.1250
vt 0.0000 0.1250
vt 0.1250 0.0000
vt 0.1250 1.0000
vt -0.0000 1.0000
vt 0.0000 -0.0000
vt 1.0000 0.1250
vt 0.0000 0.1250
vt 0.0000 0.0000
vt 1.0000 0.0000
vt 1.0000 -0.0000
vt 1.0000 1.0000
vt 0.0000 1.0000
vt -0.0000 0.0000
vt 0.0000 1.0000
vt -0.0000 0.0000
vt 1.0000 -0.0000
vt 1.0000 1.0000
vn -1.0000 0.0000 0.0000
vn 0.0000 0.0000 -1.0000
vn 1.0000 0.0000 0.0000
vn 0.0000 0.0000 1.0000
vn 0.0000 -1.0000 -0.0000
vn 0.0000 1.0000 0.0000
usemtl None
s 1
f 25/67/18 26/68/18 27/69/18 28/70/18
f 26/68/19 29/71/19 30/72/19 27/73/19
f 29/74/20 31/75/20 32/76/20 30/77/20
f 31/78/21 25/79/21 28/80/21 32/81/21
f 28/82/22 27/83/22 30/84/22 32/85/22
f 31/86/23 29/87/23 26/88/23 25/89/23
o Cube_Cube.001
v -0.509174 -0.402461 0.499325
v -0.509174 -0.402461 -0.499325
v -0.509174 -0.495785 -0.499325
v -0.509174 -0.495785 0.499325
v 0.509174 -0.402461 -0.499325
v 0.509174 -0.495785 -0.499325
v 0.509174 -0.402461 0.499325
v 0.509174 -0.495785 0.499325
vt 1.0000 -0.0000
vt 1.0000 1.0000
vt 0.0000 1.0000
vt -0.0000 0.0000
vt 0.0001 0.0001
vt 0.9999 0.0001
vt 1.0000 0.1250
vt 0.0000 0.1250
vt 1.0000 0.0000
vt 1.0000 1.0000
vt -0.0000 1.0000
vt 0.0000 -0.0000
vt 1.0000 0.1250
vt 0.0000 0.1250
vt 0.0001 0.0001
vt 0.9999 0.0001
vt 0.0001 0.9999
vt 0.0001 0.0001
vt 0.9999 0.0001
vt 0.9999 0.9999
vt 0.9999 0.0001
vt 0.9999 0.9999
vt 0.0001 0.9999
vt 0.0001 0.0001
vn -1.0000 0.0000 0.0000
vn 0.0000 0.0000 -1.0000
vn 1.0000 0.0000 0.0000
vn 0.0000 -0.0000 1.0000
vn 0.0000 -1.0000 -0.0000
vn 0.0000 1.0000 0.0000
usemtl None
s 1
f 33/90/24 34/91/24 35/92/24 36/93/24
f 34/94/25 37/95/25 38/96/25 35/97/25
f 37/98/26 39/99/26 40/100/26 38/101/26
f 39/102/27 33/103/27 36/104/27 40/105/27
f 36/106/28 35/107/28 38/108/28 40/109/28
f 39/110/29 37/111/29 34/112/29 33/113/29
